<svg width="83" height="76" viewBox="0 0 83 76" fill="none" xmlns="http://www.w3.org/2000/svg">
<path d="M17.1282 57.1426C21.8881 52.807 21.4697 49.2523 25.9552 46.8691C30.4453 44.6475 35.6237 44.0281 40.4556 42.4437C50.7629 39.1 59.9454 29.9486 71.4179 34.0284C85.023 38.8622 86.8766 53.8797 75.7325 62.4342C64.7504 70.9797 47.834 76.2803 34.022 75.9885C28.1688 75.818 20.5024 74.3952 16.4803 69.6377C13.4524 65.6612 12.6786 60.8229 17.1282 57.1426Z" fill="#1F445F"/>
<circle cx="56" cy="20" r="11" fill="#1F445F"/>
<circle cx="41.5" cy="4.5" r="4.5" fill="#1F445F"/>
<path fill-rule="evenodd" clip-rule="evenodd" d="M74.0055 6C75.6585 6 76.9995 7.34881 76.9995 9.01138V34.8691C76.9995 35.3367 76.8922 35.7967 76.6843 36.2179L74.0782 41.4522C73.8461 41.9256 73.3811 42.1476 72.9307 42.1208H45.9717C45.4205 42.1208 44.9736 41.6714 44.9736 41.117C44.9736 40.5626 45.4205 40.1132 45.9717 40.1132H71.2678L69.329 36.2148C69.1228 35.797 69.0154 35.3371 69.0154 34.8711V9.01138C69.0154 7.34881 70.3564 6 72.0094 6H74.0055ZM73.0075 39.1218L73.6014 40.3159C73.4341 40.1887 73.2258 40.1132 73 40.1132H72.5139L73.0075 39.1218ZM74.9822 35.0824H71.0346C71.0521 35.1648 71.0796 35.2446 71.1166 35.3195L73.0074 39.1216L74.899 35.3223C74.9368 35.2458 74.9646 35.1653 74.9822 35.0824ZM75.0045 33.0749H71.0125V9.01149C71.0125 8.45768 71.4598 8.0077 72.0105 8.0077H74.0065C74.5571 8.0077 75.0045 8.45768 75.0045 9.01149V33.0749Z" fill="white"/>
<path fill-rule="evenodd" clip-rule="evenodd" d="M63.8623 19.3942V44.3734C63.8623 45.3588 63.0681 46.1576 62.0884 46.1576C61.1086 46.1576 60.3144 45.3588 60.3144 44.3734V19.3942C60.3144 18.4083 59.5212 17.61 58.5404 17.61H12.4174C11.4366 17.61 10.6434 18.4083 10.6434 19.3942V49.7262H28.4941H42.6859H53.2196V24.7191H17.7403V44.2171C17.7403 45.2025 16.9461 46.0014 15.9663 46.0014C14.9866 46.0014 14.1924 45.2025 14.1924 44.2171V23.6486C14.1924 22.2669 15.3061 21.1506 16.6759 21.1506H54.284C55.6538 21.1506 56.7675 22.2669 56.7675 23.6486V49.7262H67.4107C69.3696 49.7262 70.9586 51.3243 70.9586 53.2946V56.8631C70.9586 60.8057 67.7812 64 63.8627 64H7.09586C3.1774 64 0 60.8057 0 56.8631V53.2946C0 51.3243 1.58897 49.7262 3.54793 49.7262H7.09547V19.3942C7.09547 16.438 9.47657 14.0415 12.4174 14.0415H58.5404C61.4812 14.0415 63.8623 16.438 63.8623 19.3942ZM28.4941 53.2948V55.0789C28.4941 56.0638 29.2889 56.8631 30.2681 56.8631H40.9119C41.8911 56.8631 42.6859 56.0638 42.6859 55.0789V53.2948H67.4106V56.8632C67.4106 58.8347 65.822 60.4317 63.8626 60.4317H7.09578C5.13642 60.4317 3.54785 58.8347 3.54785 56.8632V53.2948H7.09547V55.0788C7.09547 56.0642 7.8897 56.863 8.86943 56.863C9.84917 56.863 10.6434 56.0642 10.6434 55.0788V53.2948H28.4941Z" fill="white"/>
</svg>
