<svg width="102" height="91" viewBox="0 0 102 91" fill="none" xmlns="http://www.w3.org/2000/svg">
<path d="M35.1282 72.1426C39.8881 67.807 39.4697 64.2523 43.9552 61.8691C48.4453 59.6475 53.6237 59.0281 58.4556 57.4437C68.7629 54.1 77.9454 44.9486 89.4179 49.0284C103.023 53.8622 104.877 68.8797 93.7325 77.4342C82.7504 85.9797 65.834 91.2803 52.022 90.9885C46.1688 90.818 38.5024 89.3952 34.4803 84.6377C31.4524 80.6612 30.6786 75.8229 35.1282 72.1426Z" fill="#1F445F"/>
<circle cx="74" cy="35" r="11" fill="#1F445F"/>
<circle cx="59.5" cy="19.5" r="4.5" fill="#1F445F"/>
<mask id="path-4-outside-1" maskUnits="userSpaceOnUse" x="6.62256" y="17.8333" width="62" height="63" fill="black">
<rect fill="white" x="6.62256" y="17.8333" width="62" height="63"/>
<path d="M59.6706 51.8583C59.7873 50.9249 59.8748 49.9916 59.8748 48.9999C59.8748 48.0083 59.7873 47.0749 59.6706 46.1416L65.8248 41.3291C66.3789 40.8916 66.5248 40.1041 66.1748 39.4624L60.3414 29.3708C60.0789 28.9041 59.5831 28.6416 59.0581 28.6416C58.8831 28.6416 58.7081 28.6708 58.5623 28.7291L51.2998 31.6458C49.7831 30.4791 48.1498 29.5166 46.3706 28.7874L45.2623 21.0583C45.1748 20.3583 44.5623 19.8333 43.8331 19.8333H32.1664C31.4373 19.8333 30.8248 20.3583 30.7373 21.0583L29.6289 28.7874C27.8498 29.5166 26.2164 30.5083 24.6998 31.6458L17.4373 28.7291C17.2623 28.6708 17.0873 28.6416 16.9123 28.6416C16.4164 28.6416 15.9206 28.9041 15.6581 29.3708L9.82478 39.4624C9.44561 40.1041 9.62061 40.8916 10.1748 41.3291L16.3289 46.1416C16.2123 47.0749 16.1248 48.0374 16.1248 48.9999C16.1248 49.9624 16.2123 50.9249 16.3289 51.8583L10.1748 56.6708C9.62061 57.1083 9.47478 57.8958 9.82478 58.5374L15.6581 68.6291C15.9206 69.0958 16.4164 69.3583 16.9414 69.3583C17.1164 69.3583 17.2914 69.3291 17.4373 69.2708L24.6998 66.3541C26.2164 67.5208 27.8498 68.4833 29.6289 69.2124L30.7373 76.9416C30.8248 77.6416 31.4373 78.1666 32.1664 78.1666H43.8331C44.5623 78.1666 45.1748 77.6416 45.2623 76.9416L46.3706 69.2124C48.1498 68.4833 49.7831 67.4916 51.2998 66.3541L58.5623 69.2708C58.7373 69.3291 58.9123 69.3583 59.0873 69.3583C59.5831 69.3583 60.0789 69.0958 60.3414 68.6291L66.1748 58.5374C66.5248 57.8958 66.3789 57.1083 65.8248 56.6708L59.6706 51.8583ZM53.8956 46.8708C54.0123 47.7749 54.0414 48.3874 54.0414 48.9999C54.0414 49.6124 53.9831 50.2541 53.8956 51.1291L53.4873 54.4249L56.0831 56.4666L59.2331 58.9166L57.1914 62.4458L53.4873 60.9583L50.4539 59.7333L47.8289 61.7166C46.5748 62.6499 45.3789 63.3499 44.1831 63.8458L41.0914 65.0999L40.6248 68.3958L40.0414 72.3333H35.9581L35.4039 68.3958L34.9373 65.0999L31.8456 63.8458C30.5914 63.3208 29.4248 62.6499 28.2581 61.7749L25.6039 59.7333L22.5123 60.9874L18.8081 62.4749L16.7664 58.9458L19.9164 56.4958L22.5123 54.4541L22.1039 51.1583C22.0164 50.2541 21.9581 49.5833 21.9581 48.9999C21.9581 48.4166 22.0164 47.7458 22.1039 46.8708L22.5123 43.5749L19.9164 41.5333L16.7664 39.0833L18.8081 35.5541L22.5123 37.0416L25.5456 38.2666L28.1706 36.2833C29.4248 35.3499 30.6206 34.6499 31.8164 34.1541L34.9081 32.8999L35.3748 29.6041L35.9581 25.6666H40.0123L40.5664 29.6041L41.0331 32.8999L44.1248 34.1541C45.3789 34.6791 46.5456 35.3499 47.7123 36.2249L50.3664 38.2666L53.4581 37.0124L57.1623 35.5249L59.2039 39.0541L56.0831 41.5333L53.4873 43.5749L53.8956 46.8708ZM37.9998 37.3333C31.5539 37.3333 26.3331 42.5541 26.3331 48.9999C26.3331 55.4458 31.5539 60.6666 37.9998 60.6666C44.4456 60.6666 49.6664 55.4458 49.6664 48.9999C49.6664 42.5541 44.4456 37.3333 37.9998 37.3333ZM37.9998 54.8333C34.7914 54.8333 32.1664 52.2083 32.1664 48.9999C32.1664 45.7916 34.7914 43.1666 37.9998 43.1666C41.2081 43.1666 43.8331 45.7916 43.8331 48.9999C43.8331 52.2083 41.2081 54.8333 37.9998 54.8333Z"/>
</mask>
<path d="M59.6706 51.8583C59.7873 50.9249 59.8748 49.9916 59.8748 48.9999C59.8748 48.0083 59.7873 47.0749 59.6706 46.1416L65.8248 41.3291C66.3789 40.8916 66.5248 40.1041 66.1748 39.4624L60.3414 29.3708C60.0789 28.9041 59.5831 28.6416 59.0581 28.6416C58.8831 28.6416 58.7081 28.6708 58.5623 28.7291L51.2998 31.6458C49.7831 30.4791 48.1498 29.5166 46.3706 28.7874L45.2623 21.0583C45.1748 20.3583 44.5623 19.8333 43.8331 19.8333H32.1664C31.4373 19.8333 30.8248 20.3583 30.7373 21.0583L29.6289 28.7874C27.8498 29.5166 26.2164 30.5083 24.6998 31.6458L17.4373 28.7291C17.2623 28.6708 17.0873 28.6416 16.9123 28.6416C16.4164 28.6416 15.9206 28.9041 15.6581 29.3708L9.82478 39.4624C9.44561 40.1041 9.62061 40.8916 10.1748 41.3291L16.3289 46.1416C16.2123 47.0749 16.1248 48.0374 16.1248 48.9999C16.1248 49.9624 16.2123 50.9249 16.3289 51.8583L10.1748 56.6708C9.62061 57.1083 9.47478 57.8958 9.82478 58.5374L15.6581 68.6291C15.9206 69.0958 16.4164 69.3583 16.9414 69.3583C17.1164 69.3583 17.2914 69.3291 17.4373 69.2708L24.6998 66.3541C26.2164 67.5208 27.8498 68.4833 29.6289 69.2124L30.7373 76.9416C30.8248 77.6416 31.4373 78.1666 32.1664 78.1666H43.8331C44.5623 78.1666 45.1748 77.6416 45.2623 76.9416L46.3706 69.2124C48.1498 68.4833 49.7831 67.4916 51.2998 66.3541L58.5623 69.2708C58.7373 69.3291 58.9123 69.3583 59.0873 69.3583C59.5831 69.3583 60.0789 69.0958 60.3414 68.6291L66.1748 58.5374C66.5248 57.8958 66.3789 57.1083 65.8248 56.6708L59.6706 51.8583ZM53.8956 46.8708C54.0123 47.7749 54.0414 48.3874 54.0414 48.9999C54.0414 49.6124 53.9831 50.2541 53.8956 51.1291L53.4873 54.4249L56.0831 56.4666L59.2331 58.9166L57.1914 62.4458L53.4873 60.9583L50.4539 59.7333L47.8289 61.7166C46.5748 62.6499 45.3789 63.3499 44.1831 63.8458L41.0914 65.0999L40.6248 68.3958L40.0414 72.3333H35.9581L35.4039 68.3958L34.9373 65.0999L31.8456 63.8458C30.5914 63.3208 29.4248 62.6499 28.2581 61.7749L25.6039 59.7333L22.5123 60.9874L18.8081 62.4749L16.7664 58.9458L19.9164 56.4958L22.5123 54.4541L22.1039 51.1583C22.0164 50.2541 21.9581 49.5833 21.9581 48.9999C21.9581 48.4166 22.0164 47.7458 22.1039 46.8708L22.5123 43.5749L19.9164 41.5333L16.7664 39.0833L18.8081 35.5541L22.5123 37.0416L25.5456 38.2666L28.1706 36.2833C29.4248 35.3499 30.6206 34.6499 31.8164 34.1541L34.9081 32.8999L35.3748 29.6041L35.9581 25.6666H40.0123L40.5664 29.6041L41.0331 32.8999L44.1248 34.1541C45.3789 34.6791 46.5456 35.3499 47.7123 36.2249L50.3664 38.2666L53.4581 37.0124L57.1623 35.5249L59.2039 39.0541L56.0831 41.5333L53.4873 43.5749L53.8956 46.8708ZM37.9998 37.3333C31.5539 37.3333 26.3331 42.5541 26.3331 48.9999C26.3331 55.4458 31.5539 60.6666 37.9998 60.6666C44.4456 60.6666 49.6664 55.4458 49.6664 48.9999C49.6664 42.5541 44.4456 37.3333 37.9998 37.3333ZM37.9998 54.8333C34.7914 54.8333 32.1664 52.2083 32.1664 48.9999C32.1664 45.7916 34.7914 43.1666 37.9998 43.1666C41.2081 43.1666 43.8331 45.7916 43.8331 48.9999C43.8331 52.2083 41.2081 54.8333 37.9998 54.8333Z" stroke="white" stroke-width="4" mask="url(#path-4-outside-1)"/>
<path fill-rule="evenodd" clip-rule="evenodd" d="M89.5246 42.6111V47.8966C89.5246 48.1627 89.3089 48.3784 89.0429 48.3784C88.7768 48.3784 88.5611 48.1627 88.5611 47.8966V42.6111H85.9427C85.7925 42.6111 85.671 42.7326 85.671 42.8837V49.3416H92.1424L92.1506 49.3417C92.2969 49.3372 92.4149 49.2165 92.4149 49.0691V33.2361C92.4149 33.0859 92.2924 32.9634 92.1422 32.9634H89.7972C89.6471 32.9634 89.5246 33.0859 89.5246 33.2361V41.6476H90.0065C90.2725 41.6476 90.4882 41.8633 90.4882 42.1293C90.4882 42.3954 90.2725 42.6111 90.0065 42.6111H89.5246ZM88.5611 41.6476H85.9427C85.8492 41.6476 85.7581 41.658 85.6705 41.6777V39.0417C85.6705 38.3587 85.117 37.8046 84.4345 37.8046H82.0895C81.407 37.8046 80.8534 38.3587 80.8534 39.0417V45.4751H78.2361C77.5541 45.4751 77 46.0287 77 46.7102V49.0561C77 49.7384 77.5538 50.2922 78.2361 50.2922H81.2238C81.2595 50.3007 81.2968 50.3051 81.3351 50.3051C81.3734 50.3051 81.4107 50.3007 81.4464 50.2922H83.2623C83.5284 50.2922 83.744 50.0766 83.744 49.8105C83.744 49.5445 83.5284 49.3288 83.2623 49.3288H81.8168V39.0417C81.8168 38.8906 81.9393 38.768 82.0895 38.768H84.4345C84.5847 38.768 84.7071 38.8906 84.7071 39.0417V50.7869C84.7071 51.0529 84.9228 51.2686 85.1888 51.2686C85.4549 51.2686 85.6705 51.0529 85.6705 50.7869V50.305H92.1284L92.1422 50.3052C92.8245 50.3052 93.3783 49.7514 93.3783 49.0691V33.2361C93.3783 32.5538 92.8245 32 92.1422 32H89.7972C89.115 32 88.5611 32.5538 88.5611 33.2361V41.6476ZM80.8534 49.3288V46.4385H78.2361C78.086 46.4385 77.9634 46.5609 77.9634 46.7102V49.0561C77.9634 49.2063 78.0859 49.3288 78.2361 49.3288H80.8534Z" fill="white"/>
<path fill-rule="evenodd" clip-rule="evenodd" d="M77.4444 55.8333C77.4444 55.3376 77.9496 54.8889 78.625 54.8889H91.375C92.0504 54.8889 92.5556 55.3376 92.5556 55.8333V58.6657H74.7685C73.1335 58.6657 71.7778 59.9172 71.7778 61.4991V64.3333H70.9514C69.3338 64.3333 68 65.5878 68 67.1667V84.1667C68 85.7456 69.3338 87 70.9514 87H99.0486C100.666 87 102 85.7456 102 84.1667V67.1667C102 65.5878 100.666 64.3333 99.0486 64.3333H98.2222V61.4991C98.2222 59.9172 96.8665 58.6657 95.2315 58.6657H94.4444V55.8333C94.4444 54.2413 93.0471 53 91.375 53H78.625C76.9529 53 75.5556 54.2413 75.5556 55.8333C75.5556 56.3549 75.9784 56.7778 76.5 56.7778C77.0216 56.7778 77.4444 56.3549 77.4444 55.8333ZM74.7685 60.5546H92.5556V61.4736C92.5556 61.9952 92.9784 62.418 93.5 62.418C94.0216 62.418 94.4444 61.9952 94.4444 61.4736V60.5546H95.2315C95.8556 60.5546 96.3333 60.9956 96.3333 61.4991V64.3333H73.6667V61.4991C73.6667 60.9956 74.1444 60.5546 74.7685 60.5546ZM73.6667 66.2223V68.148C73.6667 68.6696 73.2438 69.0924 72.7222 69.0924C72.2006 69.0924 71.7778 68.6696 71.7778 68.148V66.2223H70.9514C70.352 66.2223 69.8889 66.6578 69.8889 67.1667V84.1667C69.8889 84.6757 70.352 85.1112 70.9514 85.1112H99.0486C99.648 85.1112 100.111 84.6757 100.111 84.1667V67.1667C100.111 66.6578 99.648 66.2223 99.0486 66.2223H73.6667ZM90.6667 75.6672V73.7575C90.6667 73.2359 91.0895 72.813 91.6111 72.813C92.1327 72.813 92.5556 73.2359 92.5556 73.7575V75.6672C92.5556 76.7452 91.6095 77.556 90.5093 77.556H79.4907C78.3905 77.556 77.4444 76.7452 77.4444 75.6672V73.7575C77.4444 73.2359 77.8673 72.813 78.3889 72.813C78.9105 72.813 79.3333 73.2359 79.3333 73.7575V75.6672C79.3333 75.6473 79.3463 75.6497 79.3782 75.6557C79.4032 75.6603 79.4397 75.6672 79.4907 75.6672H90.5093C90.5603 75.6672 90.5968 75.6603 90.6218 75.6557C90.6537 75.6497 90.6667 75.6473 90.6667 75.6672Z" fill="white"/>
<path fill-rule="evenodd" clip-rule="evenodd" d="M74.3009 29.0041L69.608 22.7048C68.4544 21.1555 69.561 18.9526 71.4937 18.951L75.4158 18.951C75.4008 18.7034 75.3846 18.4829 75.3729 18.3368C74.5811 12.1195 69.2667 7.40558 62.9411 7.40558C56.0189 7.40454 50.4062 13.0172 50.4073 19.9395C50.4073 26.8607 56.019 32.4724 62.9413 32.4735C63.374 32.4735 63.7246 32.8243 63.7246 33.2569C63.7245 33.6896 63.3737 34.0403 62.9411 34.0402C55.1536 34.039 48.8406 27.726 48.8406 19.9396C48.8394 12.152 55.1537 5.83769 62.9412 5.83886C70.0578 5.83886 76.0359 11.1415 76.9306 18.1726C76.9475 18.3741 76.9678 18.6504 76.9852 18.951L80.8778 18.951C82.8098 18.9526 83.9164 21.1555 82.7627 22.7049L78.0703 29.0036C77.1324 30.2665 75.2401 30.2657 74.3009 29.0041ZM77.0038 20.5181L80.8768 20.5181C81.5207 20.5187 81.89 21.2537 81.5058 21.7695L76.8123 28.0697C76.5009 28.4893 75.8701 28.4891 75.5572 28.0688L70.8642 21.7694C70.4802 21.2537 70.8494 20.5187 71.4941 20.5181H75.4367L75.3851 22.2353C75.3721 22.6678 75.7122 23.0288 76.1446 23.0418C76.5771 23.0547 76.9381 22.7146 76.9511 22.2822L77.0038 20.5181Z" fill="white"/>
</svg>
