<svg width="69" height="76" viewBox="0 0 69 76" fill="none" xmlns="http://www.w3.org/2000/svg">
<path d="M3.12815 57.1426C7.88812 52.807 7.46971 49.2523 11.9552 46.8691C16.4453 44.6475 21.6237 44.0281 26.4556 42.4437C36.7629 39.1 45.9454 29.9486 57.4179 34.0284C71.023 38.8622 72.8766 53.8797 61.7325 62.4342C50.7504 70.9797 33.834 76.2803 20.022 75.9885C14.1688 75.818 6.50242 74.3952 2.48029 69.6377C-0.547559 65.6612 -1.32139 60.8229 3.12815 57.1426Z" fill="#1F445F"/>
<circle cx="42" cy="20" r="11" fill="#1F445F"/>
<circle cx="27.5" cy="4.5" r="4.5" fill="#1F445F"/>
<path fill-rule="evenodd" clip-rule="evenodd" d="M44.8944 10.8C44.8944 8.14909 42.5161 6 39.5789 6H7.63973C4.70766 6 2.32422 8.1508 2.32422 10.8V65.2C2.32422 67.8492 4.70766 70 7.63973 70H39.5789C42.5161 70 44.8944 67.8509 44.8944 65.2V58.8891C44.8944 58.8849 44.8944 58.8807 44.8944 58.8765C44.8944 58.8723 44.8944 58.8682 44.8944 58.864V10.8ZM41.3519 57.2765V10.8001C41.3519 9.91605 40.5597 9.20015 39.5801 9.20015H7.64098C6.66547 9.20015 5.86914 9.91876 5.86914 10.8001V15.6766H36.0357C37.0142 15.6766 37.8075 16.3929 37.8075 17.2766C37.8075 18.1602 37.0142 18.8766 36.0357 18.8766H5.86914V65.2001C5.86914 66.0815 6.66547 66.8001 7.64098 66.8001H39.5801C40.5597 66.8001 41.3519 66.0842 41.3519 65.2001V60.4765H11.1835C10.2049 60.4765 9.41162 59.7602 9.41162 58.8765C9.41162 57.9929 10.2049 57.2765 11.1835 57.2765H41.3519Z" fill="white"/>
<path d="M37.1465 49.6583L37.1466 49.6583L37.1376 49.6486C37.0385 49.5428 36.9891 49.3997 37.002 49.2551C37.002 49.255 37.002 49.2549 37.0021 49.2548L37.3433 45.5012L53.6639 29.182L57.651 33.1691L41.335 49.4867L37.5815 49.8282L37.5815 49.8282L37.5758 49.8287C37.5695 49.8293 37.5561 49.8302 37.534 49.8302C37.3866 49.8297 37.246 49.7674 37.1465 49.6583ZM58.6897 24.155L58.6901 24.1546C58.789 24.0556 58.9231 24 59.0629 24C59.2027 24 59.3369 24.0556 59.4357 24.1546L59.4361 24.155L62.6751 27.3949L62.6755 27.3953C62.7745 27.4942 62.8302 27.6285 62.8302 27.7686C62.8302 27.9087 62.7745 28.043 62.6755 28.1419L62.6751 28.1423L60.1433 30.6747L56.1576 26.6879L58.6897 24.155Z" stroke="white" stroke-width="2"/>
<line x1="12" y1="49.5" x2="33" y2="49.5" stroke="white"/>
<path d="M11.4043 47.3671C11.4469 46.2806 12.0301 45.5642 12.8753 44.9303C13.3087 44.6052 14.0148 44.0458 14.5841 44.0239C15.7977 43.9772 16.4275 44.6578 17.489 45.1606C18.4348 45.6086 19.4273 46.0834 20.498 46.0298C21.0633 46.0016 21.2862 45.569 21.7313 45.3909C22.2797 45.1715 22.808 44.7647 23.3063 44.4325C25.0065 43.2991 27.5504 43.4784 29.0567 44.8263C30.1889 45.8393 31.3411 45.8961 32.8012 45.8961" stroke="white" stroke-width="0.5" stroke-linecap="round" stroke-linejoin="round"/>
</svg>
