<svg width="99" height="87" viewBox="0 0 99 87" fill="none" xmlns="http://www.w3.org/2000/svg">
<path d="M25.2642 67.2655C30.2311 62.7282 29.7945 59.0083 34.475 56.5142C39.1603 54.1892 44.5638 53.541 49.6059 51.883C60.3613 48.3838 69.943 38.8067 81.9144 43.0762C96.111 48.1348 98.0452 63.8508 86.4166 72.8032C74.9569 81.7462 57.3051 87.2933 42.8925 86.988C36.7848 86.8095 28.7851 85.3206 24.5881 80.3418C21.4286 76.1803 20.6212 71.117 25.2642 67.2655Z" fill="#1F445F"/>
<path fill-rule="evenodd" clip-rule="evenodd" d="M88.149 31.6166C88.0482 30.33 88.8811 29.1392 90.1427 28.8012C91.5834 28.4151 93.0635 29.2695 93.4495 30.7104C93.8355 32.1508 92.9807 33.6313 91.5403 34.0172C91.1492 34.122 90.7472 34.1372 90.357 34.0661C90.1125 34.0214 89.8782 34.1835 89.8336 34.428C89.789 34.6725 89.951 34.9068 90.1955 34.9514C90.7159 35.0464 91.2526 35.0261 91.7733 34.8866C93.6938 34.372 94.8335 32.3979 94.3189 30.4774C93.8041 28.5564 91.8305 27.4172 89.9098 27.9318C88.2274 28.3826 87.1172 29.9698 87.2517 31.6869C87.2711 31.9347 87.4877 32.1198 87.7355 32.1004C87.9832 32.081 88.1684 31.8644 88.149 31.6166ZM82.7384 42.8976C84.6589 42.3831 85.7987 40.409 85.2841 38.4885C85.1756 38.0839 85.0024 37.7139 84.7786 37.3867L91.1401 31.7456C91.3261 31.5807 91.3431 31.2963 91.1782 31.1104C91.0133 30.9244 90.7289 30.9073 90.543 31.0722L84.181 36.7137C83.3075 35.9488 82.0807 35.6198 80.8749 35.9429C78.9544 36.4575 77.8147 38.4315 78.3293 40.352C78.8439 42.2725 80.8179 43.4122 82.7384 42.8976ZM83.5005 37.3171L81.5085 39.0836C81.3225 39.2485 81.3055 39.5329 81.4704 39.7188C81.6353 39.9048 81.9197 39.9219 82.1056 39.757L84.098 37.9902C84.236 38.2114 84.344 38.4565 84.415 38.7214C84.8009 40.1618 83.9461 41.6423 82.5057 42.0282C81.0654 42.4142 79.5848 41.5594 79.1989 40.119C78.8129 38.6786 79.6677 37.1981 81.1081 36.8122C81.973 36.5804 82.8524 36.796 83.5005 37.3171ZM92.9382 39.2331C92.4932 39.3524 92.0947 39.5784 91.7701 39.8893C91.5907 40.0612 91.3058 40.0551 91.1339 39.8756C90.9619 39.6962 90.968 39.4113 91.1475 39.2394C91.5808 38.8243 92.1131 38.5225 92.7053 38.3638C94.6252 37.8494 96.5999 38.9892 97.1144 40.9094C97.6289 42.8296 96.4887 44.8041 94.5688 45.3186C92.6483 45.8332 90.6743 44.6934 90.1597 42.7729C90.0527 42.3736 90.0152 41.9664 90.0461 41.5656L86.6143 40.8633C86.3708 40.8135 86.2138 40.5757 86.2636 40.3322C86.3135 40.0887 86.5512 39.9317 86.7947 39.9815L93.727 41.4001C93.9705 41.45 94.1274 41.6877 94.0776 41.9312C94.0278 42.1747 93.79 42.3317 93.5465 42.2819L90.9372 41.7479C90.9283 42.011 90.9586 42.2772 91.029 42.54C91.415 43.9804 92.8955 44.8352 94.3359 44.4492C95.7757 44.0634 96.6309 42.5824 96.2451 41.1424C95.8592 39.7023 94.3781 38.8473 92.9382 39.2331Z" fill="white"/>
<path d="M94.1153 59.0498C94.801 58.6398 95.314 57.9942 95.5587 57.2335C94.9144 57.6159 94.2094 57.8853 93.4743 58.03C92.4552 56.9516 90.8404 56.6892 89.5324 57.3893C88.2243 58.0895 87.5468 59.5789 87.8784 61.0253C85.2392 60.8928 82.7804 59.6458 81.1137 57.5946C80.2439 59.0953 80.6884 61.0136 82.1295 61.9786C81.6083 61.9618 81.0988 61.8207 80.6433 61.567C80.6433 61.5807 80.6433 61.5945 80.6433 61.6083C80.6436 63.1715 81.745 64.518 83.2768 64.8278C82.7934 64.9593 82.2864 64.9787 81.7944 64.8844C82.2252 66.2212 83.457 67.137 84.8609 67.1644C83.6981 68.0772 82.2621 68.5723 80.784 68.5698C80.522 68.5702 80.2602 68.5551 80 68.5247C81.501 69.4895 83.248 70.0016 85.0322 69.9998C87.5145 70.0168 89.9 69.038 91.6552 67.2822C93.4104 65.5264 94.3888 63.1402 94.3715 60.6573C94.3715 60.515 94.3682 60.3734 94.3616 60.2327C95.0045 59.7679 95.5593 59.1922 96 58.5326C95.4011 58.7982 94.7658 58.9725 94.1153 59.0498Z" fill="white"/>
<circle cx="45" cy="24" r="11" fill="#1F445F"/>
<path fill-rule="evenodd" clip-rule="evenodd" d="M12.2591 66.9628L54.413 64.2368L54.3218 71.0601C54.3098 71.9612 53.5403 72.6971 52.5975 72.7092L32.1667 72.9699C31.224 72.982 30.4738 72.2654 30.4859 71.3644L30.5297 68.0805C30.5417 67.1818 29.7892 66.463 28.8489 66.475C27.9086 66.487 27.1366 67.2253 27.1246 68.124L27.0807 71.4078C27.0447 74.1064 29.2999 76.2606 32.1232 76.2245L52.5541 75.9637C55.3774 75.9277 57.6909 73.7152 57.727 71.0167L57.8205 64.0164L71.3709 63.1401C74.6137 62.9306 76.9087 59.9256 76.109 56.9411L67.2667 23.9409C66.4676 20.9588 62.977 19.505 60.0647 20.9446L6.96262 47.1891C6.7579 47.2906 6.56248 47.4034 6.37692 47.5265L6.04318 46.281C5.81141 45.416 4.88471 44.9127 3.97334 45.1569C3.06197 45.4011 2.51105 46.3003 2.74282 47.1653L8.61814 69.0923C8.84992 69.9573 9.77662 70.4605 10.688 70.2163C11.5994 69.9721 12.1503 69.073 11.9185 68.208L11.5851 66.9636C11.8067 66.9773 12.0317 66.9773 12.2591 66.9628ZM72.8088 57.8258C73.0756 58.8215 72.3105 59.8233 71.2297 59.8931L12.1196 63.7157C11.3146 63.7669 10.597 63.274 10.3983 62.5328L7.56391 51.9546C7.36607 51.2162 7.74139 50.4306 8.46563 50.0718L61.5661 23.828C62.5367 23.3482 63.7004 23.8329 63.9664 24.8257L72.8088 57.8258Z" fill="white"/>
<path d="M54.413 64.2368L54.9129 64.2434L54.9201 63.7029L54.3807 63.7378L54.413 64.2368ZM12.2591 66.9628L12.2908 67.4618L12.2914 67.4618L12.2591 66.9628ZM54.3218 71.0601L54.8218 71.0668L54.8218 71.0668L54.3218 71.0601ZM52.5975 72.7092L52.5911 72.2092L52.5975 72.7092ZM32.1667 72.9699L32.1731 73.4699L32.1731 73.4699L32.1667 72.9699ZM30.4859 71.3644L29.9859 71.3577L29.9859 71.3577L30.4859 71.3644ZM30.5297 68.0805L30.0298 68.0738L30.5297 68.0805ZM28.8489 66.475L28.8553 66.9749L28.8553 66.9749L28.8489 66.475ZM27.1246 68.124L27.6245 68.1307L27.1246 68.124ZM27.0807 71.4078L26.5808 71.4012L27.0807 71.4078ZM32.1232 76.2245L32.1296 76.7245L32.1296 76.7245L32.1232 76.2245ZM52.5541 75.9637L52.5604 76.4637L52.5541 75.9637ZM57.727 71.0167L57.227 71.01L57.727 71.0167ZM57.8205 64.0164L57.7882 63.5174L57.3267 63.5473L57.3205 64.0097L57.8205 64.0164ZM71.3709 63.1401L71.3387 62.6411L71.3386 62.6411L71.3709 63.1401ZM60.0647 20.9446L60.2862 21.3929L60.2862 21.3929L60.0647 20.9446ZM6.96262 47.1891L6.74109 46.7409L6.74062 46.7411L6.96262 47.1891ZM6.37692 47.5265L5.89396 47.6559L6.07391 48.3275L6.65331 47.9432L6.37692 47.5265ZM11.9185 68.208L11.4355 68.3374L11.9185 68.208ZM11.5851 66.9636L11.616 66.4645L10.9222 66.4215L11.1021 67.093L11.5851 66.9636ZM71.2297 59.8931L71.1975 59.3941L71.1975 59.3941L71.2297 59.8931ZM72.8088 57.8258L72.3258 57.9552L72.8088 57.8258ZM12.1196 63.7157L12.1514 64.2147L12.1519 64.2147L12.1196 63.7157ZM8.46563 50.0718L8.2441 49.6235L8.24363 49.6238L8.46563 50.0718ZM61.5661 23.828L61.7877 24.2763L61.7877 24.2763L61.5661 23.828ZM63.9664 24.8257L64.4494 24.6963L63.9664 24.8257ZM54.3807 63.7378L12.2268 66.4639L12.2914 67.4618L54.4452 64.7357L54.3807 63.7378ZM54.8218 71.0668L54.9129 64.2434L53.913 64.2301L53.8219 71.0535L54.8218 71.0668ZM52.6039 73.2091C53.797 73.1939 54.8059 72.2592 54.8218 71.0668L53.8219 71.0535C53.8137 71.6632 53.2836 72.2004 52.5911 72.2092L52.6039 73.2091ZM32.1731 73.4699L52.6039 73.2091L52.5911 72.2092L32.1603 72.47L32.1731 73.4699ZM29.9859 71.3577C29.9698 72.5619 30.9715 73.4852 32.1731 73.4699L32.1603 72.47C31.4764 72.4787 30.9778 71.969 30.9858 71.3711L29.9859 71.3577ZM30.0298 68.0738L29.9859 71.3577L30.9858 71.3711L31.0297 68.0872L30.0298 68.0738ZM28.8553 66.9749C29.5367 66.9662 30.0377 67.4783 30.0298 68.0738L31.0297 68.0872C31.0457 66.8853 30.0416 65.9597 28.8425 65.975L28.8553 66.9749ZM27.6245 68.1307C27.6326 67.5232 28.1653 66.9837 28.8553 66.9749L28.8425 65.975C27.6519 65.9902 26.6405 66.9273 26.6246 68.1173L27.6245 68.1307ZM27.5807 71.4145L27.6245 68.1307L26.6246 68.1173L26.5808 71.4012L27.5807 71.4145ZM32.1168 75.7246C29.5523 75.7573 27.5487 73.8099 27.5807 71.4145L26.5808 71.4012C26.5407 74.4028 29.0474 76.7638 32.1296 76.7245L32.1168 75.7246ZM52.5477 75.4638L32.1168 75.7246L32.1296 76.7245L52.5604 76.4637L52.5477 75.4638ZM57.227 71.01C57.1949 73.4172 55.1207 75.4309 52.5477 75.4638L52.5604 76.4637C55.6341 76.4245 58.187 74.0131 58.2269 71.0233L57.227 71.01ZM57.3205 64.0097L57.227 71.01L58.2269 71.0233L58.3204 64.0231L57.3205 64.0097ZM71.3386 62.6411L57.7882 63.5174L57.8527 64.5154L71.4032 63.6391L71.3386 62.6411ZM75.6261 57.0705C76.336 59.7199 74.2988 62.4499 71.3387 62.6411L71.4031 63.6391C74.9287 63.4113 77.4815 60.1312 76.592 56.8117L75.6261 57.0705ZM66.7837 24.0704L75.6261 57.0705L76.592 56.8117L67.7497 23.8115L66.7837 24.0704ZM60.2862 21.3929C62.9449 20.0786 66.0745 21.4236 66.7837 24.0704L67.7497 23.8115C66.8607 20.494 63.0091 18.9314 59.8431 20.4964L60.2862 21.3929ZM7.18416 47.6374L60.2862 21.3929L59.8431 20.4964L6.74109 46.7409L7.18416 47.6374ZM6.65331 47.9432C6.82142 47.8317 6.99868 47.7293 7.18462 47.6371L6.74062 46.7411C6.51712 46.8519 6.30353 46.9752 6.10053 47.1098L6.65331 47.9432ZM6.85989 47.3971L6.52614 46.1516L5.56022 46.4104L5.89396 47.6559L6.85989 47.3971ZM6.52614 46.1516C6.21661 44.9964 4.99795 44.3647 3.84393 44.674L4.10275 45.6399C4.77146 45.4607 5.4062 45.8356 5.56022 46.4104L6.52614 46.1516ZM3.84393 44.674C2.6899 44.9832 1.95033 46.1395 2.25986 47.2947L3.22578 47.0359C3.07176 46.4611 3.43403 45.8191 4.10275 45.6399L3.84393 44.674ZM2.25986 47.2947L8.13518 69.2217L9.1011 68.9629L3.22578 47.0359L2.25986 47.2947ZM8.13518 69.2217C8.44471 70.3769 9.66337 71.0085 10.8174 70.6993L10.5586 69.7334C9.88986 69.9126 9.25512 69.5377 9.1011 68.9629L8.13518 69.2217ZM10.8174 70.6993C11.9714 70.3901 12.711 69.2337 12.4015 68.0786L11.4355 68.3374C11.5896 68.9122 11.2273 69.5542 10.5586 69.7334L10.8174 70.6993ZM12.4015 68.0786L12.068 66.8342L11.1021 67.093L11.4355 68.3374L12.4015 68.0786ZM12.2273 66.4639C12.0209 66.477 11.8168 66.477 11.616 66.4645L11.5541 67.4626C11.7966 67.4776 12.0426 67.4776 12.2908 67.4618L12.2273 66.4639ZM71.262 60.392C72.6257 60.304 73.6483 59.0269 73.2918 57.6964L72.3258 57.9552C72.5029 58.616 71.9953 59.3426 71.1975 59.3941L71.262 60.392ZM12.1519 64.2147L71.262 60.392L71.1975 59.3941L12.0874 63.2168L12.1519 64.2147ZM9.91537 62.6622C10.1802 63.6505 11.1267 64.2799 12.1514 64.2147L12.0879 63.2167C11.5025 63.254 11.0137 62.8976 10.8813 62.4034L9.91537 62.6622ZM7.08095 52.084L9.91537 62.6622L10.8813 62.4034L8.04687 51.8252L7.08095 52.084ZM8.24363 49.6238C7.32311 50.0799 6.81664 51.0976 7.08095 52.084L8.04687 51.8252C7.91549 51.3349 8.15967 50.7814 8.68763 50.5198L8.24363 49.6238ZM61.3446 23.3798L8.2441 49.6235L8.68716 50.52L61.7877 24.2763L61.3446 23.3798ZM64.4494 24.6963C64.0935 23.3679 62.5686 22.7747 61.3446 23.3798L61.7877 24.2763C62.5049 23.9218 63.3074 24.298 63.4835 24.9551L64.4494 24.6963ZM73.2918 57.6964L64.4494 24.6963L63.4835 24.9551L72.3258 57.9552L73.2918 57.6964Z" fill="white"/>
<g clip-path="url(#clip0)">
<path d="M67.5719 15.6798C68.7279 19.9897 72.8454 22.8198 77.2833 22.3546L75.6425 16.2312L73.4197 16.8268L72.7413 14.2947L74.9667 13.6984L74.4502 11.7708C74.106 10.8841 74.1741 9.89026 74.636 9.05876C75.0978 8.22726 75.9057 7.64433 76.8404 7.46805C77.5008 7.30247 78.1724 7.18528 78.8499 7.11741L79.4272 9.27188L78.3197 9.56862C77.9251 9.62084 77.5755 9.84947 77.3695 10.1901C77.1635 10.5307 77.1233 10.9465 77.2603 11.3203L77.7012 12.9657L80.129 12.3151L80.4196 14.9521L78.3799 15.4986L80.0204 21.6212C84.4292 19.6601 86.5309 14.5906 84.803 10.0853C83.075 5.57998 78.1222 3.21613 73.5328 4.70623C68.9433 6.19632 66.3238 11.0187 67.5719 15.6798Z" fill="white"/>
</g>
<defs>
<clipPath id="clip0">
<rect width="21.7695" height="21.7695" fill="white" transform="translate(63 5.63428) rotate(-15)"/>
</clipPath>
</defs>
</svg>
