<svg width="69" height="77" viewBox="0 0 69 77" fill="none" xmlns="http://www.w3.org/2000/svg">
<path d="M3.12815 58.1426C7.88812 53.807 7.46971 50.2523 11.9552 47.8691C16.4453 45.6475 21.6237 45.0281 26.4556 43.4437C36.7629 40.1 45.9454 30.9486 57.4179 35.0284C71.023 39.8622 72.8766 54.8797 61.7325 63.4342C50.7504 71.9797 33.834 77.2803 20.022 76.9885C14.1688 76.818 6.50242 75.3952 2.48029 70.6377C-0.547559 66.6612 -1.32139 61.8229 3.12815 58.1426Z" fill="#1F445F"/>
<circle cx="52" cy="20" r="11" fill="#1F445F"/>
<circle cx="37.5" cy="4.5" r="4.5" fill="#1F445F"/>
<path d="M62.2875 64.9545C62.2875 65.0527 62.271 65.1673 62.2545 65.2818L61.017 73.9055C60.8355 75.1 59.8785 76 58.641 76H47.4375C46.761 76 46.134 75.7218 45.6885 75.28L37.5375 67.1964L38.841 65.8873C39.171 65.56 39.633 65.3473 40.1445 65.3473C40.293 65.3473 40.4085 65.38 40.5405 65.3964L46.2 66.5745V49C46.2 47.6418 47.3055 46.5455 48.675 46.5455C50.0445 46.5455 51.15 47.6418 51.15 49V58.8182H52.404C52.7175 58.8182 53.0145 58.8836 53.295 58.9982L60.786 62.6964C61.6605 63.0564 62.2875 63.94 62.2875 64.9545ZM62.9145 44.6964C60.5385 41.9145 55.44 40 49.5 40C43.56 40 38.4615 41.9145 36.0855 44.6964L33 41.6364V49.8182H41.25L37.8345 46.4309C39.4845 44.32 43.9395 42.4545 49.5 42.4545C55.0605 42.4545 59.5155 44.32 61.1655 46.4309L57.75 49.8182H66V41.6364L62.9145 44.6964Z" fill="#F5F5F5"/>
<path fill-rule="evenodd" clip-rule="evenodd" d="M44.4599 7.575C44.4599 5.04835 42.1572 3 39.3132 3H8.38797C5.54898 3 3.24121 5.04998 3.24121 7.575V59.425C3.24121 61.95 5.54898 64 8.38797 64H39.3132C42.1572 64 44.4599 61.9517 44.4599 59.425V53.4146C44.46 53.409 44.46 53.4035 44.46 53.398C44.46 53.3925 44.46 53.3869 44.4599 53.3814V7.575ZM41.0298 51.873V7.57505C41.0298 6.7324 40.2627 6.05005 39.3142 6.05005H8.38905C7.44452 6.05005 6.67347 6.73498 6.67347 7.57505V12.2229H35.8823C36.8298 12.2229 37.5979 12.9057 37.5979 13.7479C37.5979 14.5902 36.8298 15.2729 35.8823 15.2729H6.67347V59.4251C6.67347 60.2651 7.44452 60.9501 8.38905 60.9501H39.3142C40.2627 60.9501 41.0298 60.2677 41.0298 59.4251V54.923H11.8193C10.8718 54.923 10.1037 54.2402 10.1037 53.398C10.1037 52.5558 10.8718 51.873 11.8193 51.873H41.0298Z" fill="white"/>
</svg>
