<svg width="86" height="83" viewBox="0 0 86 83" fill="none" xmlns="http://www.w3.org/2000/svg">
<path d="M20.1282 64.1426C24.8881 59.807 24.4697 56.2523 28.9552 53.8691C33.4453 51.6475 38.6237 51.0281 43.4556 49.4437C53.7629 46.1 62.9454 36.9486 74.4179 41.0284C88.023 45.8622 89.8766 60.8797 78.7325 69.4342C67.7504 77.9797 50.834 83.2803 37.022 82.9885C31.1688 82.818 23.5024 81.3952 19.4803 76.6377C16.4524 72.6612 15.6786 67.8229 20.1282 64.1426Z" fill="#1F445F"/>
<circle cx="59" cy="27" r="11" fill="#1F445F"/>
<circle cx="44.5" cy="11.5" r="4.5" fill="#1F445F"/>
<path d="M35.5357 0.059517C39.6978 0.059517 43.831 -0.10056 47.9674 0.104338C51.7069 0.290027 55.0878 1.77234 58.0748 4.06143C59.6669 5.27869 61.0892 6.70316 62.3041 8.29706C63.4855 9.8402 64.2827 11.5946 65.0767 13.3427C65.3104 13.8549 65.5281 14.0726 66.0563 14.1142C66.5846 14.1559 67.036 14.3576 67.5227 14.364C69.6389 14.364 70.3145 15.8911 70.5642 17.5655C70.9324 19.9058 71.0188 22.2782 69.9655 24.5288C69.8872 24.7605 69.7487 24.9671 69.5642 25.1274C69.3796 25.2878 69.1557 25.3961 68.9154 25.4413C67.8428 25.6558 66.5526 25.723 65.7906 26.3729C65.0286 27.0228 64.9742 28.2938 64.51 29.2543C61.3084 35.8687 56.1507 39.9058 48.9119 41.1192C45.8288 41.6346 42.7073 41.2504 39.6081 41.3369C38.2507 41.3721 36.8932 41.3369 35.5293 41.3369C35.3161 41.0926 35.2019 40.7774 35.2092 40.4532C35.1772 38.4587 35.1579 36.4609 35.2092 34.4632C35.2125 34.2119 35.2917 33.9675 35.4365 33.762C35.8687 33.3971 36.3809 33.4803 36.8708 33.4803H45.7456C46.2068 33.5163 46.6709 33.4828 47.1222 33.3811C49.8549 33.0913 52.4192 31.9204 54.4279 30.0451C56.4366 28.1699 57.7807 25.692 58.2573 22.9857C59.4739 15.4237 54.6972 9.26713 47.6633 8.01533C47.1328 7.94496 46.597 7.92245 46.0625 7.94809C39.1962 7.94809 32.3384 7.94169 25.4892 7.92888C24.9577 7.92888 24.2534 8.24903 23.9204 7.46146C24.3494 7.00044 24.9001 7.09648 25.4219 7.09328C28.0568 7.07728 30.695 7.09328 33.333 7.09328C35.1772 7.09328 35.1772 7.09328 35.1772 5.28442V1.50021C35.2156 0.987961 35.1804 0.475716 35.5357 0.059517Z" fill="white"/>
<path d="M35.5512 33.7811V41.3176C31.975 41.3176 28.3988 41.3976 24.8195 41.3176C19.7662 41.2521 14.9203 39.298 11.2352 35.8397C10.1499 34.8441 9.09017 33.8164 8.37302 32.5998C7.18203 30.5604 5.81176 28.5723 5.2739 26.1967C4.47351 25.0121 4.41587 23.6355 4.34544 22.2908C4.23018 19.9633 4.27501 17.6358 4.95695 15.3787C5.06602 14.9612 5.1007 14.5277 5.0594 14.0981C6.34003 13.8836 6.34003 12.6798 6.6794 11.8346C7.43237 10.0235 8.51833 8.36958 9.88097 6.95871C11.9281 4.66875 14.4467 2.84915 17.2638 1.62495C19.444 0.640402 21.8032 0.114085 24.1952 0.0786133H35.5704C35.5704 2.20123 35.5256 4.32384 35.5704 6.44326C35.5896 7.27566 35.3078 7.47095 34.5235 7.46134C31.3795 7.41972 28.2356 7.43574 25.0916 7.44534C24.7106 7.44534 24.3008 7.32368 23.9583 7.62142C23.6381 8.05363 23.1643 8.05363 22.7193 8.15608C16.8668 9.43669 12.9353 13.9637 12.4582 19.9857C12.3749 21.4969 12.5926 23.0095 13.0985 24.4359C13.904 27.0692 15.5369 29.3728 17.7549 31.0049C19.973 32.637 22.658 33.5106 25.4118 33.4962C27.7073 33.4962 27.7553 33.5698 27.6721 35.8493C27.6529 36.3488 27.2751 37.0467 27.909 37.3028C28.4245 37.5205 28.7318 36.8514 29.0808 36.5217C29.7819 35.8557 30.4447 35.1514 31.133 34.4727C32.2087 33.3874 34.1009 33.1024 35.5512 33.7811Z" fill="white"/>
<path d="M23.5389 46.3025C25.3734 45.5629 27.3103 45.2748 29.2473 45.0218C32.1085 44.6046 35.0038 44.4685 37.8915 44.6152C41.2244 44.8329 44.5892 45.1115 47.7299 46.3057C51.7415 47.836 54.6677 50.7462 56.7648 54.476C58.3079 57.2229 59.7582 60.021 60.3377 63.1713C60.3633 63.2386 60.3857 63.309 60.4049 63.3762C60.517 65.2972 60.7443 66.296 58.0678 65.7646C55.5152 65.2601 53.0645 64.334 50.8163 63.0241C50.2624 62.7039 50.176 62.9056 50.0255 63.3442C49.1771 65.7742 47.9605 67.9769 46.0619 69.7473C43.0941 72.5102 39.6588 74.1238 35.5448 73.9605C35.1158 73.4355 35.2246 72.8016 35.2246 72.1997C35.2246 65.3569 35.2246 58.5142 35.2246 51.6714V50.3748C35.1446 48.774 34.421 47.9993 32.8106 47.9576C30.4863 47.8968 28.162 47.9576 25.8376 47.9384C25.3017 47.9753 24.7633 47.9398 24.2368 47.8328C23.382 47.5991 23.2187 47.2085 23.5389 46.3025Z" fill="white"/>
<path d="M23.539 46.3025C23.3693 47.3462 23.9232 47.6183 24.8196 47.5991C27.3809 47.5799 29.971 47.5991 32.5322 47.5991C34.6773 47.5991 35.5353 48.4283 35.5353 50.5637V73.9541C33.3721 74.1481 31.1983 73.724 29.2666 72.7312C26.6605 71.3897 24.2785 69.5904 22.7034 66.9492C22.1271 65.9887 21.5092 65.0731 21.3747 63.8981C21.3459 63.6684 21.2472 63.4532 21.092 63.2814C20.9368 63.1096 20.7327 62.9896 20.5071 62.9377C20.0365 60.1907 19.5754 57.4438 19.076 54.5913C17.3119 57.2421 17.1774 60.0755 17.5392 63.0017C17.5936 63.4179 17.8434 63.8277 17.5392 64.2375C15.9384 65.1307 14.1455 65.4637 12.4167 65.9375C11.2609 66.2576 10.7807 65.6718 10.6462 64.468C10.4541 62.7264 11.2417 61.2441 11.7764 59.7137C12.1856 58.4538 12.6886 57.2264 13.2811 56.0416C13.8368 54.9553 14.4792 53.9157 15.2021 52.9329C17.2927 50.1795 19.7995 47.8488 23.0299 46.453C23.1961 46.3915 23.3661 46.3412 23.539 46.3025Z" fill="white"/>
<path d="M5.06007 14.0759C5.58834 14.1688 5.5339 14.5241 5.41224 14.8891C4.65347 17.2294 4.59264 19.6402 4.63105 22.0798C4.65667 23.4852 5.11769 24.8043 5.27137 26.1841C4.13801 25.928 2.99506 25.7103 1.8617 25.435C1.72122 25.4065 1.58952 25.3451 1.47751 25.2557C1.36442 25.1657 1.27534 25.0491 1.21818 24.9163C-0.23854 21.7852 -0.228941 18.6509 1.11252 15.4814C1.16326 15.3123 1.25683 15.1592 1.38416 15.0369C1.51149 14.9146 1.66828 14.8273 1.83929 14.7835C2.91502 14.537 3.98755 14.3096 5.06007 14.0759Z" fill="white"/>
<path d="M17.5308 64.2308C16.8361 62.1306 17.0378 60.0016 17.3163 57.8662C17.4924 56.4799 18.4177 55.4106 18.8499 54.1332C18.8665 54.062 18.9101 54 18.9715 53.9603C19.0009 53.9395 19.0342 53.9248 19.0694 53.9171C19.1046 53.9094 19.141 53.9089 19.1764 53.9155C19.3909 53.9475 19.4358 54.1332 19.4518 54.3125C19.6951 56.9794 20.3098 59.5822 20.7132 62.2203C20.6942 62.4665 20.6278 62.7067 20.5179 62.9278C19.5702 63.4648 18.5691 63.9015 17.5308 64.2308Z" fill="white"/>
<path d="M12.8397 24.4585C11.3382 19.7074 12.4299 15.4942 15.6443 11.8188C17.831 9.31523 20.69 8.02821 23.946 7.59921H45.8064C48.8731 7.57013 51.8484 8.64255 54.1913 10.6215C56.5436 12.6086 58.1129 15.3671 58.6191 18.4044C59.7012 24.7146 56.378 30.4646 50.6151 32.8113C49.6002 33.2275 48.5437 33.6021 47.4136 33.5572C45.3902 33.7557 43.3636 33.6085 41.3306 33.6405C39.6914 33.6693 38.0522 33.6405 36.4129 33.6565C35.7726 33.6565 35.3404 33.4644 35.2924 32.7921C35.2872 31.9247 34.957 31.0908 34.3671 30.4549C34.2344 30.3311 34.1466 30.1667 34.1174 29.9875C34.0863 29.8078 34.1167 29.6228 34.2039 29.4625C34.6073 29.0495 35.1355 29.1903 35.6222 29.1423C37.4342 28.9374 38.7885 28.0794 39.5313 26.3634C39.733 25.8992 39.9059 25.4029 39.5313 24.9355C38.5964 24.5577 37.6264 24.8235 36.6755 24.769C35.4621 24.6986 35.2412 24.5321 35.2316 23.2899C35.2092 19.8771 35.2316 16.4642 35.2316 13.045C35.2316 11.7036 35.2027 11.6139 33.9029 11.4859C31.6586 11.2666 29.3983 11.2666 27.154 11.4859C25.3867 11.6588 23.6066 11.5147 21.8394 11.9821C19.435 12.6224 17.3347 13.807 15.862 15.6959C14.9714 16.8044 14.2189 18.0171 13.6209 19.3072C13.0965 20.6175 12.9565 22.0502 13.2175 23.4372C13.2847 23.847 13.4544 24.2984 12.8397 24.4585Z" fill="white"/>
<path d="M12.8402 24.4585C12.9395 24.384 13.0143 24.2814 13.0547 24.164C13.0907 24.0439 13.0907 23.9159 13.0547 23.7958C12.7659 22.8721 12.6807 21.8967 12.805 20.9368C12.9243 19.9779 13.2522 19.0567 13.7655 18.2379C14.2361 17.4664 14.8508 16.8805 15.1517 15.9104C15.3248 15.4632 15.5962 15.0606 15.9457 14.7323C16.2962 14.4058 16.7167 14.1637 17.1751 14.0247C17.4207 13.9635 17.6431 13.8322 17.8154 13.647C19.285 11.9341 21.4204 11.566 23.3958 11.3739C26.693 11.0411 30.0097 10.9449 33.3207 11.0857C33.8842 11.1113 34.4444 11.2458 35.0079 11.3002C35.6963 11.3611 35.5234 11.8797 35.5234 12.2607C35.5234 15.7824 35.5234 19.3041 35.5234 22.8257C35.5234 24.6922 35.3089 24.4265 37.2042 24.4841C38.1487 24.5194 39.1251 24.2152 40.0312 24.673C39.6182 25.0604 39.0995 24.9932 38.6065 24.9932H32.3186C31.2077 24.9932 31.038 25.2589 31.4606 26.2898C31.8847 27.3292 32.672 28.1792 33.6761 28.6813C33.9962 28.8606 34.4412 28.9375 34.5501 29.3985C33.9706 29.8563 34.4348 30.1797 34.7358 30.423C35.0512 30.6583 35.2951 30.9765 35.4404 31.3422C35.5857 31.7079 35.6266 32.1068 35.5586 32.4944C35.4529 33.3012 35.8499 33.5509 36.6215 33.5477C40.2169 33.5285 43.8155 33.5477 47.414 33.5477C46.985 33.8166 46.5144 33.7302 46.0566 33.7334C42.5583 33.7504 39.059 33.7622 35.5586 33.7686L35.3441 33.7302C32.261 32.9234 30.7178 35.1677 28.9665 36.9957C28.8637 37.1424 28.748 37.2795 28.6208 37.4055C28.3454 37.6008 28.1213 37.9786 27.6955 37.7865C27.2697 37.5944 27.2825 37.2326 27.2825 36.8677C27.2825 36.1089 27.2569 35.3533 27.3209 34.601C27.385 33.8486 27.1512 33.6661 26.4277 33.7014C23.78 33.8262 21.2315 33.4004 18.8976 32.0462C15.8817 30.3205 13.7815 27.8714 12.8402 24.4585Z" fill="white"/>
<path d="M34.5403 29.4079C32.6898 28.7676 31.3388 27.6151 30.8938 25.5949C30.7497 24.9546 30.8361 24.6344 31.6333 24.6536C34.4411 24.7049 37.2488 24.6793 40.0566 24.6793C40.0885 25.2745 40.0012 25.8701 39.8001 26.4313C39.5989 26.9924 39.2878 27.5077 38.8851 27.9472C38.4823 28.3866 37.9959 28.7413 37.4544 28.9905C36.9129 29.2397 36.3271 29.3783 35.7313 29.3983C35.3215 29.4111 34.9309 29.4047 34.5403 29.4079Z" fill="white"/>
</svg>
