<svg width="113" height="76" viewBox="0 0 113 76" fill="none" xmlns="http://www.w3.org/2000/svg">
<path d="M26.1282 57.1426C30.8881 52.807 30.4697 49.2523 34.9552 46.8691C39.4453 44.6475 44.6237 44.0281 49.4556 42.4437C59.7629 39.1 68.9454 29.9486 80.4179 34.0284C94.023 38.8622 95.8766 53.8797 84.7325 62.4342C73.7504 70.9797 56.834 76.2803 43.022 75.9885C37.1688 75.818 29.5024 74.3952 25.4803 69.6377C22.4524 65.6612 21.6786 60.8229 26.1282 57.1426Z" fill="#1F445F"/>
<circle cx="65" cy="20" r="11" fill="#1F445F"/>
<circle cx="50.5" cy="4.5" r="4.5" fill="#1F445F"/>
<path fill-rule="evenodd" clip-rule="evenodd" d="M71.225 52.1279H49.9807C48.9176 52.1279 48.0557 51.3164 48.0557 50.3153C48.0557 49.3143 48.9176 48.5027 49.9807 48.5027H71.225C72.287 48.5027 73.15 47.6902 73.15 46.6901V10.4378C73.15 9.4357 72.2887 8.62523 71.225 8.62523H5.775C4.7091 8.62523 3.85 9.43417 3.85 10.4378V46.6901C3.85 47.6917 4.71073 48.5027 5.775 48.5027H34.3863C34.4652 48.4934 34.5456 48.4887 34.6271 48.4887C34.7087 48.4887 34.7891 48.4934 34.868 48.5027H42.2306C42.3159 48.5027 42.3999 48.5079 42.4822 48.5181C43.4729 48.5923 44.2523 49.3729 44.2523 50.3249V59.3748H55.825C56.8881 59.3748 57.75 60.1863 57.75 61.1874C57.75 62.1885 56.8881 63 55.825 63H21.175C20.1119 63 19.25 62.1885 19.25 61.1874C19.25 60.1863 20.1119 59.3748 21.175 59.3748H32.7021V52.1279H5.775C2.58383 52.1279 0 49.6933 0 46.6901V10.4378C0 7.43201 2.5828 5 5.775 5H71.225C74.4144 5 77 7.43298 77 10.4378V46.6901C77 49.6923 74.4133 52.1279 71.225 52.1279ZM40.4023 59.3748V52.1279H36.5521V59.3748H40.4023Z" fill="white"/>
<path d="M103.75 25.9583C103.75 26.9912 103.75 28.0087 103.75 29.0416C105.6 29.0416 108.005 29.0416 109.917 29.0416C109.917 28.0087 109.917 26.9912 109.917 25.9583C108.005 25.9583 105.6 25.9583 103.75 25.9583Z" fill="white"/>
<path d="M100.667 36.1488C102.147 37.2434 104.074 38.6926 105.6 39.8334C106.217 39.0163 106.833 38.1838 107.45 37.3667C105.924 36.2259 103.997 34.7767 102.517 33.6667C101.9 34.4992 101.283 35.3317 100.667 36.1488Z" fill="white"/>
<path d="M107.45 17.6334C106.833 16.8163 106.217 15.9838 105.6 15.1667C104.074 16.3076 102.147 17.7567 100.667 18.8667C101.283 19.6838 101.9 20.5163 102.517 21.3334C103.997 20.2234 105.924 18.7897 107.45 17.6334Z" fill="white"/>
<path d="M82.1668 22.875C80.471 22.875 79.0835 24.2625 79.0835 25.9583V29.0417C79.0835 30.7375 80.471 32.125 82.1668 32.125H83.7085V38.2917H86.7918V32.125H88.3335L96.0418 36.75V18.25L88.3335 22.875H82.1668ZM89.9214 25.5113L92.9585 23.6921V31.3079L89.9214 29.4888L89.1814 29.0417H88.3335H82.1668V25.9583H88.3335H89.1814L89.9214 25.5113Z" fill="white"/>
<path d="M99.896 27.5C99.896 25.4496 99.0018 23.5996 97.5835 22.3354V32.6492C99.0018 31.4004 99.896 29.5504 99.896 27.5Z" fill="white"/>
<path d="M35.616 33.942H31.192L30.31 36H27.678L32.34 26.032H34.412L39.088 36H36.498L35.616 33.942ZM34.762 31.968L33.404 28.818L32.046 31.968H34.762ZM39.6558 26.032H43.7298C44.8311 26.032 45.7784 26.2327 46.5718 26.634C47.3744 27.026 47.9858 27.5953 48.4058 28.342C48.8351 29.0887 49.0498 29.9753 49.0498 31.002C49.0498 32.038 48.8398 32.934 48.4198 33.69C47.9998 34.4367 47.3884 35.0107 46.5858 35.412C45.7924 35.804 44.8404 36 43.7298 36H39.6558V26.032ZM43.5478 33.9C44.5184 33.9 45.2418 33.662 45.7178 33.186C46.2031 32.7007 46.4458 31.9727 46.4458 31.002C46.4458 29.0887 45.4798 28.132 43.5478 28.132H42.2878V33.9H43.5478Z" fill="white"/>
</svg>
