<svg width="29" height="28" viewBox="0 0 29 28" fill="none" xmlns="http://www.w3.org/2000/svg">
<path d="M14.4919 28C10.5308 28 10.0639 27.9798 8.51805 27.9146C7.31259 27.8764 6.12274 27.6401 4.99972 27.216C3.05669 26.487 1.52027 25.0051 0.764853 23.1315C0.341859 22.0449 0.11371 20.8967 0.0901721 19.7363C0 18.2491 0 17.7616 0 13.9721C0 10.1422 0.0209328 9.69505 0.0901721 8.21246C0.114225 7.05359 0.342366 5.90709 0.764853 4.82191C1.51945 2.94582 3.05837 1.46268 5.00455 0.735862C6.12952 0.326329 7.31899 0.105791 8.52127 0.0838323C10.059 0 10.5646 0 14.4919 0C18.4853 0 18.9442 0.0201819 20.4659 0.0838323C21.6712 0.105981 22.8639 0.326495 23.9922 0.735862C25.9379 1.4635 27.4765 2.94636 28.2319 4.82191C28.6621 5.9229 28.8914 7.08733 28.9098 8.26369C29 9.75094 29 10.2369 29 14.0248C29 17.8128 28.9775 18.3096 28.9098 19.7798C28.8859 20.9413 28.6572 22.0905 28.2335 23.1781C27.4762 25.053 25.9375 26.5354 23.9922 27.2641C22.8655 27.6712 21.6753 27.8911 20.4723 27.9146C18.9345 28 18.4305 28 14.4919 28ZM14.4372 2.45753C10.4986 2.45753 10.0896 2.47616 8.55186 2.54291C7.63401 2.55464 6.72504 2.71794 5.86441 3.02573C4.59355 3.49458 3.58793 4.46018 3.09645 5.68352C2.77475 6.52231 2.60534 7.40826 2.59567 8.30251C2.51033 9.80683 2.51033 10.2012 2.51033 13.9721C2.51033 17.6979 2.52482 18.1497 2.59567 19.6447C2.61008 20.5299 2.77939 21.4064 3.09645 22.2373C3.58865 23.4598 4.5941 24.4247 5.86441 24.8935C6.72445 25.2034 7.6338 25.3667 8.55186 25.3764C10.1105 25.4633 10.5212 25.4633 14.4372 25.4633C18.3871 25.4633 18.7961 25.4447 20.3209 25.3764C21.2394 25.3656 22.1491 25.2023 23.01 24.8935C24.2732 24.4206 25.2722 23.458 25.7635 22.2404C26.0845 21.4009 26.2539 20.5146 26.2642 19.6199H26.282C26.3512 18.1357 26.3512 17.7399 26.3512 13.9472C26.3512 10.1546 26.3335 9.7556 26.2642 8.27301C26.2498 7.38881 26.0805 6.51332 25.7635 5.68352C25.2734 4.46418 24.2741 3.49968 23.01 3.02573C22.1493 2.71639 21.2395 2.55304 20.3209 2.54291C18.7639 2.45753 18.3565 2.45753 14.4372 2.45753ZM14.4919 21.1428C11.4808 21.1447 8.76508 19.3975 7.61127 16.7159C6.45746 14.0344 7.09285 10.9468 9.22112 8.89315C11.3494 6.83946 14.5513 6.22419 17.3336 7.33429C20.1159 8.44439 21.9305 11.0612 21.9311 13.9643C21.9267 17.9247 18.5997 21.1351 14.4919 21.1428ZM14.4919 9.30384C11.8241 9.30384 9.6613 11.389 9.6613 13.9612C9.6613 16.5334 11.8241 18.6185 14.4919 18.6185C17.1598 18.6185 19.3226 16.5334 19.3226 13.9612C19.3164 11.3915 17.1573 9.30981 14.4919 9.30384ZM22.221 8.19695C21.2636 8.19351 20.4898 7.44336 20.4916 6.52031C20.4934 5.59725 21.27 4.84987 22.2274 4.84987C23.1848 4.84987 23.9615 5.59724 23.9632 6.52029C23.9637 6.96563 23.7801 7.39281 23.4532 7.70742C23.1263 8.02203 22.6829 8.19818 22.221 8.19695Z" fill="white"/>
</svg>
