<svg width="28" height="28" viewBox="0 0 28 28" fill="none" xmlns="http://www.w3.org/2000/svg">
<path d="M15.5555 28H9.33331V9.33333H15.5555V12.4444C16.8818 10.7571 18.8932 9.75111 21.0388 9.702C24.8975 9.72342 28.0111 12.8635 28 16.7222V28H21.7777V17.5C21.5289 15.7619 20.0383 14.4722 18.2824 14.476C17.5144 14.5003 16.7895 14.8365 16.2749 15.4072C15.7603 15.9778 15.5005 16.7336 15.5555 17.5V28ZM6.22221 28H0V9.33333H6.22221V28ZM3.1111 6.22222C1.39289 6.22222 0 4.82933 0 3.11111C0 1.39289 1.39289 0 3.1111 0C4.82932 0 6.22221 1.39289 6.22221 3.11111C6.22221 3.93623 5.89443 4.72755 5.31099 5.311C4.72754 5.89445 3.93622 6.22222 3.1111 6.22222Z" fill="white"/>
</svg>
