<svg width="26" height="20" viewBox="0 0 26 20" fill="none" xmlns="http://www.w3.org/2000/svg">
<path fill-rule="evenodd" clip-rule="evenodd" d="M24.05 0C25.1266 0 26 0.959797 26 2.14286V17.8571C26 19.0402 25.1266 20 24.05 20H1.95C0.873415 20 0 19.0402 0 17.8571V2.14286C0 0.959797 0.873415 0 1.95 0H24.05ZM23.3737 1.42857H1.94968C1.59107 1.42857 1.29968 1.74878 1.29968 2.14286V17.6917L8.85622 9.34758L3.75374 4.09695C3.4917 3.82731 3.4782 3.37529 3.72357 3.08734C3.96894 2.79939 4.38028 2.78455 4.64231 3.05419L12.6264 11.28C12.8512 11.4526 13.1488 11.4526 13.3115 11.3335L23.3737 1.42857ZM23.4593 18.5714H2.33702L9.80557 10.3245L11.8098 12.387C12.5541 12.9671 13.4472 12.9671 14.1182 12.4506L24.6938 2.04679C24.6977 2.07821 24.6997 2.11028 24.6997 2.14286V17.8571C24.6997 17.8761 24.699 17.8949 24.6977 17.9135L18.6543 11.2446C18.401 10.965 17.9894 10.9641 17.7351 11.2424C17.4807 11.5208 17.4798 11.9731 17.7331 12.2526L23.4593 18.5714Z" fill="white"/>
</svg>
