<svg width="19" height="26" viewBox="0 0 19 26" fill="none" xmlns="http://www.w3.org/2000/svg">
<path fill-rule="evenodd" clip-rule="evenodd" d="M18.0128 1.95C18.0128 0.873066 17.0065 0 15.7637 0H2.24917C1.00851 0 0 0.873763 0 1.95V24.05C0 25.1262 1.00851 26 2.24917 26H15.7637C17.0065 26 18.0128 25.1269 18.0128 24.05V21.5077C18.0133 21.4989 18.0135 21.49 18.0135 21.4811C18.0135 21.4721 18.0133 21.4632 18.0128 21.4544V1.95ZM16.5135 20.8311V1.95C16.5135 1.59084 16.1782 1.3 15.7637 1.3H2.24923C1.83647 1.3 1.49951 1.59193 1.49951 1.95V3.93107H14.2647C14.6788 3.93107 15.0144 4.22208 15.0144 4.58107C15.0144 4.94005 14.6788 5.23107 14.2647 5.23107H1.49951V24.05C1.49951 24.4081 1.83647 24.7 2.24923 24.7H15.7637C16.1782 24.7 16.5135 24.4092 16.5135 24.05V22.1311H3.74923C3.33517 22.1311 2.99951 21.8401 2.99951 21.4811C2.99951 21.1221 3.33517 20.8311 3.74923 20.8311H16.5135Z" fill="white"/>
</svg>
