<svg width="27" height="26" viewBox="0 0 27 26" fill="none" xmlns="http://www.w3.org/2000/svg">
<path fill-rule="evenodd" clip-rule="evenodd" d="M21.8437 11.1243C22.0162 10.4253 22.1054 9.74329 22.1054 9.08053C22.1054 4.06479 18.0406 0 13.0249 0C8.00891 0 3.94304 4.06501 3.94304 9.08053C3.94304 9.8038 4.05077 10.551 4.25838 11.3194C4.86677 13.571 6.30187 15.9371 8.31133 18.3278L8.39076 18.422C3.46299 18.9254 0 20.2519 0 22.0989C0 24.4822 5.76653 26 13.0038 26C20.241 26 26.0075 24.4822 26.0075 22.0989C26.0075 20.5147 23.6966 19.4062 19.9441 18.7497C19.5904 18.6878 19.2535 18.9244 19.1916 19.2781C19.1297 19.6319 19.3663 19.9688 19.72 20.0306C22.8189 20.5727 24.7072 21.4786 24.7072 22.0989C24.7072 22.5453 23.597 23.2359 21.5737 23.7685C19.3299 24.3591 16.272 24.6996 13.0038 24.6996C9.73553 24.6996 6.67762 24.3591 4.43383 23.7685C2.41052 23.2359 1.30038 22.5453 1.30038 22.0989C1.30038 21.6525 2.4104 20.9622 4.43374 20.4299C5.84101 20.0597 7.56864 19.7878 9.46767 19.6366C10.0557 20.271 10.6578 20.8769 11.26 21.448C11.6119 21.7818 11.939 22.08 12.2332 22.3387C12.4111 22.4952 12.5395 22.6046 12.6102 22.6632L13.0235 23.0053L13.4378 22.6645C13.5086 22.6063 13.6371 22.4975 13.8151 22.3419C14.1093 22.0847 14.4364 21.7881 14.7884 21.4559C15.7933 20.5074 16.798 19.4613 17.7373 18.3464C19.8104 15.8855 21.2706 13.4465 21.8437 11.1243ZM9.30658 17.4911C9.53391 17.7615 9.76543 18.0281 10.0001 18.2903C10.9628 18.2301 11.9682 18.199 13.0038 18.199C13.3629 18.199 13.654 18.4901 13.654 18.8492C13.654 19.2083 13.3629 19.4994 13.0038 19.4994C12.383 19.4994 11.7699 19.5117 11.1685 19.5356C11.4955 19.8686 11.8251 20.192 12.1547 20.5046C12.4682 20.802 12.7608 21.0695 13.026 21.3042C13.2907 21.0713 13.5827 20.8056 13.8956 20.5102C14.8666 19.5937 15.8377 18.5827 16.7426 17.5086C18.6987 15.1866 20.0647 12.905 20.581 10.8128C20.7292 10.2121 20.8048 9.63405 20.8048 9.08053C20.8048 4.78297 17.3222 1.30038 13.0247 1.30038C8.72684 1.30038 5.24323 4.78325 5.24323 9.08053C5.24323 9.68394 5.33466 10.3181 5.51356 10.9802C6.06351 13.0156 7.4081 15.2325 9.30658 17.4911ZM15.6248 9.09003C15.6248 7.65411 14.4603 6.48927 13.0241 6.48927C12.665 6.48927 12.3739 6.19817 12.3739 5.83908C12.3739 5.47999 12.665 5.1889 13.0241 5.1889C15.1786 5.1889 16.9252 6.93601 16.9252 9.09003C16.9252 11.2449 15.179 12.9912 13.0241 12.9912C10.8692 12.9912 9.12296 11.2449 9.12296 9.09003C9.12296 8.73094 9.41406 8.43984 9.77315 8.43984C10.1322 8.43984 10.4233 8.73094 10.4233 9.09003C10.4233 10.5268 11.5874 11.6908 13.0241 11.6908C14.4608 11.6908 15.6248 10.5268 15.6248 9.09003Z" fill="white"/>
</svg>
