<svg width="62" height="62" viewBox="0 0 62 62" fill="none" xmlns="http://www.w3.org/2000/svg">
<path fill-rule="evenodd" clip-rule="evenodd" d="M28.4672 19.7139L14.313 5.56259C13.2532 4.48139 13.5801 2.63257 14.9934 2.02845C19.7085 -0.00762898 24.896 -0.551504 30.1175 0.581405C39.7585 2.67454 47.3944 10.5574 49.1131 20.233C50.2448 26.6093 48.928 32.6487 45.9462 37.568L61.4391 53.0609C62.0433 53.6651 62.0433 54.6448 61.4391 55.2491C60.8348 55.8534 59.8551 55.8534 59.2509 55.2491L44.1495 40.1478C38.7574 46.9311 29.8819 50.823 20.2355 49.111C10.5593 47.3961 2.67731 39.7591 0.583771 30.1162C-0.552511 24.8937 -0.00855738 19.7055 2.02838 14.9964C2.63645 13.574 4.49602 13.2482 5.57255 14.3247L19.7046 28.4538L26.6206 26.638L28.4672 19.7139ZM46.066 20.7739C47.0081 26.0823 46.0184 31.1208 43.6822 35.304L41.3241 32.9459C40.7198 32.3416 39.7401 32.3416 39.1359 32.9459C38.5316 33.5501 38.5316 34.5299 39.1359 35.1341L41.9446 37.9428C37.2487 44.0546 29.3656 47.5883 20.7757 46.0638C12.3396 44.5686 5.43576 37.8794 3.60759 29.4588C2.71224 25.3437 3.00385 21.2716 4.36574 17.4942L17.8981 31.0237C18.5119 31.6483 19.4602 31.8342 20.277 31.4857L28.0282 29.4509C28.7517 29.1603 29.1624 28.7496 29.381 28.236L31.5604 20.0668C31.8337 19.4565 31.6502 18.5204 31.0257 17.8959L17.4929 4.36599C21.2746 3.00463 25.3468 2.71283 29.4609 3.60547C37.8788 5.43305 44.5675 12.338 46.066 20.7739ZM53.1699 61.5466L40.6832 49.0599C40.0789 48.4556 40.0789 47.4759 40.6832 46.8717C41.2874 46.2674 42.2671 46.2674 42.8714 46.8717L55.3582 59.3584C55.9624 59.9627 55.9624 60.9424 55.3582 61.5466C54.7539 62.1509 53.7742 62.1509 53.1699 61.5466Z" fill="#3CF9FF"/>
</svg>
