<?xml version="1.0" standalone="no"?>
<!DOCTYPE svg PUBLIC "-//W3C//DTD SVG 20010904//EN"
 "http://www.w3.org/TR/2001/REC-SVG-20010904/DTD/svg10.dtd">
<svg version="1.0" xmlns="http://www.w3.org/2000/svg"
 width="1280.000000pt" height="783.000000pt" viewBox="0 0 1280.000000 783.000000"
 preserveAspectRatio="xMidYMid meet">
<metadata>
Created by potrace 1.15, written by Peter Selinger 2001-2017
</metadata>
<g transform="translate(0.000000,783.000000) scale(0.100000,-0.100000)"
fill="#f44336" stroke="none">
<path d="M11920 7320 c-69 -10 -327 -46 -575 -79 -247 -34 -463 -66 -480 -70
-24 -6 -29 -12 -27 -32 2 -13 75 -164 163 -335 87 -171 159 -318 159 -326 0
-23 -668 -843 -690 -846 -19 -3 -20 2 -20 97 l0 100 27 3 c39 4 42 28 4 28
l-31 0 0 105 0 105 31 0 c20 0 29 4 27 13 -4 9 -750 13 -3676 15 l-3672 2 0
-736 c0 -604 -2 -735 -13 -726 -7 6 -31 43 -53 81 -30 54 -44 71 -61 71 -27 0
-128 -43 -137 -59 -4 -6 2 -40 14 -77 25 -81 26 -123 3 -140 -32 -24 -55 -15
-119 51 -35 36 -69 65 -76 65 -19 0 -128 -88 -128 -103 0 -6 13 -32 29 -56 16
-24 37 -61 47 -82 17 -39 17 -40 -6 -64 -13 -14 -28 -25 -34 -25 -6 0 -46 20
-88 45 -43 25 -82 45 -87 45 -12 0 -101 -110 -101 -125 0 -6 32 -43 70 -83
l71 -72 -16 -30 c-19 -37 -48 -39 -147 -10 -37 12 -73 18 -79 14 -16 -9 -59
-110 -59 -137 0 -17 10 -28 36 -41 59 -28 134 -80 134 -93 0 -6 -4 -14 -9 -17
-5 -4 -94 23 -198 59 -251 88 -256 89 -285 58 -13 -13 -275 -416 -583 -895
-308 -479 -565 -873 -572 -875 -6 -2 -13 4 -16 14 -3 10 -5 -360 -5 -822 0
-462 4 -825 8 -807 4 18 21 54 37 80 25 40 1481 2270 1490 2281 1 2 9 -2 17
-8 12 -10 29 -8 81 8 97 30 131 28 150 -9 l16 -30 -71 -70 c-38 -39 -70 -76
-70 -83 0 -18 88 -127 103 -127 6 0 32 13 56 29 24 16 61 37 83 47 l39 18 26
-27 27 -26 -18 -39 c-10 -22 -31 -59 -47 -83 -16 -24 -29 -50 -29 -56 0 -14
109 -103 126 -103 6 0 44 32 83 70 l71 70 30 -15 c37 -19 39 -53 10 -149 -12
-37 -18 -71 -14 -77 9 -16 110 -59 137 -59 17 0 31 16 59 69 73 133 68 177 68
-628 0 -416 4 -721 9 -721 5 0 11 7 15 15 4 12 26 15 105 15 85 0 100 -2 106
-17 6 -17 7 -17 19 0 19 25 201 26 210 1 6 -16 8 -16 24 0 26 23 188 23 214 0
16 -16 18 -16 24 0 5 13 23 16 104 16 81 0 99 -3 104 -16 6 -16 8 -16 24 0 26
23 188 23 214 0 16 -16 18 -16 24 0 5 13 23 16 104 16 84 0 99 -2 105 -18 6
-16 7 -16 19 1 11 14 29 17 109 17 81 0 98 -3 107 -17 10 -17 10 -17 20 0 9
14 26 17 109 17 85 0 100 -2 106 -17 6 -17 7 -17 19 0 19 25 200 25 216 -1 10
-16 10 -16 20 0 9 15 26 18 109 18 85 0 100 -2 106 -17 6 -17 7 -17 19 0 19
25 192 25 212 0 13 -17 15 -17 25 0 8 14 25 17 108 17 85 0 100 -2 106 -17 6
-17 7 -17 19 0 19 25 192 25 212 0 13 -17 15 -17 25 0 8 14 25 17 104 17 79 0
96 -3 105 -17 10 -17 10 -17 20 0 9 14 26 17 109 17 85 0 100 -2 106 -18 6
-16 7 -16 19 1 11 14 29 17 109 17 81 0 98 -3 107 -17 10 -17 10 -17 20 0 9
14 26 17 109 17 85 0 100 -2 106 -17 6 -17 7 -17 19 0 11 14 29 17 109 17 81
0 98 -3 107 -17 10 -17 10 -17 20 -1 9 15 26 18 109 18 85 0 100 -2 106 -18 6
-16 7 -16 19 0 19 26 200 26 216 1 10 -17 10 -17 20 0 9 14 26 17 105 17 79 0
96 -3 104 -17 10 -17 12 -17 25 -1 11 15 30 18 109 18 81 0 96 -3 102 -18 6
-16 7 -16 19 0 19 26 200 26 215 1 10 -17 12 -17 25 -1 11 15 30 18 109 18 81
0 96 -3 102 -17 6 -17 7 -17 19 -1 19 26 200 26 216 1 10 -17 10 -17 20 0 9
14 26 17 109 17 85 0 100 -2 106 -18 6 -16 7 -16 19 0 19 26 200 26 216 1 10
-17 10 -17 20 -1 9 15 26 18 109 18 85 0 100 -2 106 -18 6 -16 7 -16 19 1 11
14 29 17 109 17 81 0 96 -3 102 -17 6 -17 7 -17 19 0 19 24 190 25 218 1 16
-16 18 -16 24 0 9 24 199 24 208 0 6 -16 8 -16 24 0 10 9 28 16 40 16 32 0 27
18 -5 22 l-28 3 -3 103 -3 102 31 0 c20 0 30 5 30 15 0 10 -10 15 -30 15 l-30
0 0 99 0 100 27 3 c39 4 42 28 4 28 l-31 0 0 105 0 105 31 0 c38 0 35 24 -4
28 l-27 3 0 99 0 99 27 3 c39 4 42 28 4 28 l-31 0 0 105 0 105 31 0 c38 0 35
24 -4 28 -26 3 -27 6 -27 58 0 30 2 54 5 54 2 0 11 -13 20 -30 19 -36 38 -38
108 -8 74 31 79 39 57 103 -10 30 -21 74 -25 97 -6 41 -4 44 25 61 l32 17 74
-72 75 -72 32 17 c18 10 50 33 71 53 l38 35 -23 37 c-13 20 -36 61 -51 91
l-28 54 22 24 c28 30 51 26 136 -28 35 -21 69 -39 76 -39 12 0 73 73 100 118
5 9 -15 37 -63 87 -39 40 -71 77 -71 82 0 5 7 19 16 31 19 28 52 28 136 2 34
-11 69 -20 76 -20 14 0 72 118 72 145 0 9 -14 24 -31 33 -137 76 -154 95 -129
143 10 17 22 19 110 19 54 0 101 4 104 9 9 14 25 142 20 156 -3 7 -38 21 -77
30 -104 25 -124 37 -124 75 0 38 21 50 124 75 39 10 74 23 77 30 5 14 -11 142
-20 156 -3 5 -50 9 -104 9 -90 0 -100 2 -110 21 -23 41 -9 62 75 110 44 25 81
53 83 61 5 23 -54 148 -70 148 -7 0 -42 -9 -76 -20 -86 -27 -116 -26 -136 5
-21 32 -15 43 63 120 34 33 61 62 61 66 0 16 -93 129 -105 129 -8 0 -42 -18
-77 -39 -85 -54 -108 -58 -136 -28 l-22 24 28 54 c15 30 38 71 51 91 l23 37
-38 35 c-21 20 -53 43 -71 53 l-33 18 -68 -68 c-37 -37 -73 -67 -79 -67 -7 0
-24 5 -38 12 -25 11 -26 15 -20 55 3 24 15 68 25 98 22 65 17 75 -58 104 -72
29 -88 27 -109 -11 l-18 -33 -3 33 c-2 18 1 39 6 45 5 7 219 270 477 585 303
371 474 572 484 570 8 -2 88 -119 177 -260 145 -231 204 -318 217 -318 2 0 9
19 16 43 12 47 269 1756 278 1855 l6 62 -34 -1 c-19 -1 -90 -9 -159 -19z m170
-15 c0 -9 -270 -1816 -276 -1852 -4 -18 -10 -31 -14 -28 -5 3 -77 114 -161
248 -194 308 -194 309 -227 305 -21 -2 -119 -116 -507 -590 -264 -322 -493
-601 -508 -618 -21 -23 -35 -30 -55 -28 -25 3 -27 7 -30 55 -3 57 1 54 -105
69 -51 7 -77 -5 -77 -37 0 -10 -4 -20 -9 -24 -14 -8 -151 32 -171 50 -9 8 -33
15 -56 14 -21 -1 -113 19 -204 44 -228 61 -219 60 -244 44 -12 -8 -53 -82 -95
-171 -41 -86 -79 -156 -86 -156 -21 0 -124 -84 -125 -102 0 -9 9 -33 21 -52
17 -28 19 -41 11 -63 l-10 -28 -11 29 c-48 120 -75 178 -86 183 -7 2 -55 -9
-107 -25 -114 -37 -202 -55 -247 -50 -26 2 -38 11 -54 39 l-21 36 49 107 c43
94 57 114 118 171 l69 64 -21 34 -21 34 106 219 c59 121 131 271 160 333 60
128 78 152 102 144 10 -3 231 -102 493 -219 262 -118 487 -214 501 -214 14 0
36 13 55 33 28 29 843 1035 906 1118 15 20 27 46 27 59 0 13 -69 158 -154 324
-84 166 -157 311 -160 323 -6 20 -2 22 41 29 26 4 280 40 563 80 477 66 620
82 620 69z m-8700 -1340 l0 -106 -102 3 -103 3 -3 89 c-2 49 -1 95 2 103 4 10
31 13 106 13 l100 0 0 -105z m230 0 l0 -105 -100 0 -100 0 0 105 0 105 100 0
100 0 0 -105z m240 0 l0 -105 -105 0 -105 0 0 105 0 105 105 0 105 0 0 -105z
m230 0 l0 -105 -100 0 -100 0 0 105 0 105 100 0 100 0 0 -105z m240 0 l0 -105
-105 0 -105 0 0 105 0 105 105 0 105 0 0 -105z m230 0 l0 -105 -100 0 -100 0
0 105 0 105 100 0 100 0 0 -105z m235 0 l0 -100 -102 -3 -103 -3 0 106 0 106
103 -3 102 -3 0 -100z m235 0 l0 -106 -102 3 -103 3 -3 89 c-2 49 -1 95 2 103
4 10 31 13 106 13 l100 0 0 -105z m238 3 l-3 -103 -102 -3 -103 -3 0 106 0
105 105 0 106 0 -3 -102z m232 -3 l0 -106 -101 3 -101 3 1 98 c0 53 0 99 1
102 0 3 45 5 100 5 l100 0 0 -105z m230 0 l0 -105 -100 0 -100 0 0 105 0 105
100 0 100 0 0 -105z m240 0 c0 -92 -2 -105 -17 -105 -10 0 -27 12 -39 28 l-22
27 -54 -19 c-29 -10 -59 -21 -65 -23 -10 -4 -13 19 -13 96 l0 101 105 0 105 0
0 -105z m230 0 l0 -105 -100 0 -100 0 0 105 0 105 100 0 100 0 0 -105z m238
93 c-3 -7 -36 -17 -74 -23 -98 -15 -98 -15 -90 -101 6 -74 6 -74 -19 -74 l-25
0 0 105 0 105 106 0 c79 0 105 -3 102 -12z m232 -93 l0 -105 -35 0 c-37 0 -43
11 -61 115 -11 64 -20 75 -64 75 -22 0 -40 5 -40 10 0 6 40 10 100 10 l100 0
0 -105z m240 31 c0 -40 -3 -88 -6 -105 l-6 -31 -99 0 -99 0 0 105 0 105 105 0
105 0 0 -74z m230 58 c0 -15 -9 -16 -61 -10 -34 3 -79 6 -100 6 -22 0 -39 5
-39 10 0 6 40 10 100 10 86 0 100 -2 100 -16z m230 -89 l0 -105 -76 0 -77 0 5
69 c6 77 3 85 -29 95 -14 4 -23 15 -23 27 0 17 8 19 100 19 l100 0 0 -105z
m240 25 c0 -44 -4 -80 -8 -80 -5 0 -14 -11 -20 -25 -11 -24 -16 -25 -97 -25
l-85 0 0 105 0 105 105 0 105 0 0 -80z m230 -25 l0 -105 -42 0 c-23 0 -68 10
-100 22 l-58 23 0 82 0 83 100 0 100 0 0 -105z m240 0 l0 -105 -105 0 -105 0
0 105 0 105 105 0 105 0 0 -105z m230 0 l0 -105 -100 0 -100 0 0 105 0 105
100 0 100 0 0 -105z m240 0 l0 -105 -105 0 -105 0 0 105 0 105 105 0 105 0 0
-105z m230 0 l0 -105 -100 0 -100 0 0 105 0 105 100 0 100 0 0 -105z m232 0
l0 -100 -101 -3 -101 -3 0 106 0 106 101 -3 101 -3 0 -100z m238 0 l0 -105
-105 0 -105 0 0 105 0 105 105 0 105 0 0 -105z m235 0 l0 -100 -102 -3 -103
-3 0 106 0 106 103 -3 102 -3 0 -100z m235 0 l0 -106 -102 3 -103 3 -3 103 -3
102 106 0 105 0 0 -105z m230 0 l0 -105 -100 0 -100 0 0 105 0 105 100 0 100
0 0 -105z m240 0 l0 -105 -105 0 -105 0 0 105 0 105 105 0 105 0 0 -105z m230
0 l0 -105 -100 0 -100 0 0 105 0 105 100 0 100 0 0 -105z m-3872 -84 c7 -4 28
-57 46 -117 39 -128 65 -184 102 -213 22 -18 41 -21 112 -21 83 0 85 1 117 34
33 36 63 107 91 220 10 38 26 78 36 88 20 20 71 24 112 8 25 -9 26 -12 26
-104 0 -75 5 -112 27 -178 31 -97 52 -121 124 -142 131 -39 156 -21 314 236
23 37 60 47 106 28 34 -15 34 -11 10 -108 -31 -123 -35 -177 -17 -209 8 -15
20 -47 26 -71 10 -37 19 -48 71 -82 33 -21 73 -42 90 -45 45 -10 105 25 213
125 102 96 122 104 166 70 l25 -19 -23 -38 c-43 -72 -102 -196 -108 -230 -5
-27 -2 -39 15 -57 12 -12 21 -35 21 -52 0 -36 30 -79 89 -128 64 -54 94 -50
247 29 69 36 136 65 148 65 12 0 32 -10 44 -23 l22 -23 -88 -89 c-49 -50 -101
-112 -117 -138 l-28 -49 22 -38 c11 -21 21 -48 21 -61 0 -33 52 -121 90 -153
41 -34 105 -35 234 -1 131 34 151 33 176 -7 20 -33 20 -33 0 -42 -15 -7 -30
-2 -60 18 -22 14 -46 26 -54 26 -7 0 -31 -24 -53 -53 -54 -72 -56 -76 -44 -90
7 -10 -3 -24 -40 -56 -43 -37 -50 -48 -47 -72 3 -20 0 -29 -9 -29 -15 0 -73
-117 -73 -145 0 -9 14 -24 31 -33 137 -76 154 -95 129 -143 -10 -17 -22 -19
-110 -19 -54 0 -101 -4 -104 -8 -10 -16 -26 -140 -20 -155 3 -9 35 -22 77 -32
103 -25 127 -39 127 -75 0 -36 -24 -50 -127 -75 -42 -10 -74 -23 -77 -32 -6
-15 10 -139 20 -155 3 -4 50 -8 104 -8 88 0 100 -2 110 -19 25 -48 8 -67 -129
-143 -17 -9 -31 -24 -31 -33 0 -24 58 -145 69 -145 6 0 11 -6 11 -13 0 -7 8
-24 17 -37 10 -13 18 -38 19 -54 2 -16 11 -39 21 -52 10 -12 40 -49 67 -83 46
-57 77 -74 91 -52 6 11 75 -26 75 -40 0 -5 -11 -34 -25 -64 -19 -44 -28 -55
-42 -51 -120 37 -159 47 -221 61 -40 8 -91 15 -112 15 -37 0 -39 -2 -86 -82
l-47 -82 22 -40 c11 -23 21 -49 21 -59 0 -34 39 -94 109 -169 39 -42 71 -79
71 -83 0 -6 -35 -51 -91 -118 -3 -5 -37 12 -75 36 -96 62 -205 115 -251 123
-36 5 -41 3 -101 -57 -34 -34 -62 -70 -62 -80 0 -9 9 -41 19 -71 10 -29 25
-73 32 -97 7 -24 32 -77 55 -118 l43 -74 -57 -45 c-97 -77 -84 -80 -203 38
-57 57 -125 114 -150 127 l-46 24 -76 -43 c-51 -29 -78 -51 -81 -66 -9 -33 11
-148 45 -267 16 -55 25 -104 21 -108 -9 -9 -151 -69 -162 -69 -5 0 -24 29 -44
64 -33 59 -120 166 -186 228 l-28 26 -74 -20 c-40 -11 -80 -23 -88 -27 -27
-14 -38 -83 -39 -243 l-1 -157 -47 -7 c-27 -4 -63 -8 -81 -8 l-34 -1 -24 85
c-29 99 -70 179 -99 192 -11 5 -29 26 -40 46 l-20 37 -97 3 -96 3 -32 -64
c-17 -34 -45 -120 -62 -189 l-31 -126 -36 4 c-20 3 -50 7 -67 10 l-31 4 -5
128 c-5 140 -16 175 -68 212 -16 12 -30 27 -30 33 0 27 -20 38 -102 61 l-86
24 -40 -42 c-46 -47 -95 -122 -142 -216 -18 -36 -34 -67 -36 -69 -7 -8 -104
34 -104 45 0 7 12 61 26 120 18 75 25 125 22 163 -4 48 -9 58 -41 85 -21 17
-37 38 -37 46 -1 16 -139 100 -164 100 -24 0 -128 -84 -213 -172 l-81 -86 -31
22 c-41 28 -39 53 10 137 52 87 88 175 89 214 0 40 -16 63 -114 163 -54 55
-88 82 -103 82 -37 0 -130 -42 -231 -103 -51 -31 -97 -57 -101 -57 -10 0 -31
46 -31 69 0 10 34 53 76 97 102 105 137 157 137 205 0 44 -39 115 -92 170 -20
20 -45 49 -55 64 -18 27 -21 27 -85 21 -37 -3 -114 -19 -171 -35 -114 -32
-120 -31 -120 26 0 25 8 38 33 57 19 15 37 26 41 26 13 0 147 93 176 122 38
37 46 69 33 130 -6 31 -6 51 0 55 16 10 69 134 63 149 -3 7 -30 25 -60 40 -30
15 -68 39 -85 53 -26 23 -28 29 -20 59 l10 32 98 0 c72 0 102 4 110 14 7 8 13
47 14 87 2 83 17 70 -120 109 l-73 21 0 39 0 39 73 21 c137 39 122 26 120 109
-1 40 -7 79 -14 87 -8 10 -38 14 -110 14 l-99 0 -6 30 c-4 16 -6 32 -6 35 1 8
55 47 120 85 28 17 52 36 52 40 0 5 -11 34 -24 64 -16 35 -50 80 -101 131 -73
73 -75 78 -59 96 23 26 13 55 -40 114 l-44 50 -33 -18 c-40 -22 -45 -17 -18
16 26 34 47 34 173 2 54 -14 122 -25 152 -25 67 0 102 27 145 116 32 64 32 64
15 108 -10 26 -53 83 -111 147 -52 57 -95 112 -95 123 0 25 37 84 60 96 33 18
62 11 139 -34 94 -55 171 -86 215 -86 26 0 46 11 85 46 57 51 81 89 81 128 0
36 -33 114 -85 205 -60 105 -60 128 5 176 55 41 71 35 180 -69 66 -62 115
-100 145 -111 l45 -18 64 32 c89 43 116 78 116 145 0 30 -11 98 -25 152 -32
126 -32 147 1 173 30 23 83 36 112 27 11 -4 43 -46 73 -98 29 -51 73 -113 99
-140 53 -55 81 -60 174 -33 100 29 125 83 126 268 0 115 8 143 43 157 28 11
98 12 115 1z m-3158 -151 l0 -100 -105 0 -105 0 0 100 0 100 105 0 105 0 0
-100z m230 0 l0 -100 -100 0 -100 0 0 100 0 100 100 0 100 0 0 -100z m240 0
l0 -100 -105 0 -105 0 0 100 0 100 105 0 105 0 0 -100z m230 0 l0 -100 -100 0
-100 0 0 100 0 100 100 0 100 0 0 -100z m240 0 l0 -100 -105 0 -105 0 0 100 0
100 105 0 105 0 0 -100z m230 0 l0 -100 -100 0 -100 0 0 100 0 100 100 0 100
0 0 -100z m240 0 l0 -100 -105 0 -105 0 0 100 0 100 105 0 105 0 0 -100z m230
0 l0 -101 -102 3 -103 3 -3 98 -3 97 106 0 105 0 0 -100z m240 0 l0 -100 -105
0 -105 0 0 100 0 100 105 0 105 0 0 -100z m230 0 l0 -101 -101 3 -101 3 -1 98
-2 97 103 0 102 0 0 -100z m155 86 c-19 -14 -19 -16 7 -100 l25 -86 -78 0 -79
0 0 100 0 100 72 0 c64 0 70 -2 53 -14z m315 -8 c0 -19 -2 -20 -10 -8 -13 19
-13 30 0 30 6 0 10 -10 10 -22z m230 -78 l0 -100 -69 0 -69 0 -31 48 c-24 39
-31 60 -31 100 l0 52 100 0 100 0 0 -100z m76 23 c-9 -100 -15 -123 -32 -123
-11 0 -14 21 -14 100 l0 100 26 0 27 0 -7 -77z m393 5 l-1 -73 -23 50 c-40 88
-41 95 -6 95 l31 0 -1 -72z m207 35 c-8 -21 -22 -55 -32 -75 -18 -38 -18 -38
-81 -38 l-63 0 0 75 0 75 95 0 94 0 -13 -37z m494 -63 l0 -100 -64 0 c-76 0
-75 -1 -83 118 l-6 82 77 0 76 0 0 -100z m145 33 c-47 -87 -82 -133 -101 -133
-11 0 -14 19 -14 100 l0 100 76 0 76 0 -37 -67z m565 -33 l0 -100 -105 0 -105
0 0 100 0 100 105 0 105 0 0 -100z m230 0 l0 -100 -100 0 -100 0 0 100 0 100
100 0 100 0 0 -100z m240 0 l0 -100 -105 0 -105 0 0 100 0 100 105 0 105 0 0
-100z m230 0 l0 -100 -100 0 -100 0 0 100 0 100 100 0 100 0 0 -100z m232 0
l-3 -100 -100 0 -99 0 0 100 0 100 103 0 102 0 -3 -100z m238 39 c0 -54 -2
-60 -17 -54 -61 23 -71 20 -100 -34 -25 -45 -32 -51 -60 -51 l-33 0 0 100 0
100 105 0 105 0 0 -61z m237 -36 l-2 -98 -29 -3 c-17 -2 -59 10 -102 29 l-74
32 0 68 0 69 104 0 104 0 -1 -97z m233 -3 l0 -100 -105 0 -105 0 0 100 0 100
105 0 105 0 0 -100z m230 0 l0 -100 -100 0 -100 0 0 100 0 100 100 0 100 0 0
-100z m240 0 l0 -100 -105 0 -105 0 0 100 0 100 105 0 105 0 0 -100z m230 0
l0 -100 -100 0 -100 0 0 100 0 100 100 0 100 0 0 -100z m-2578 -55 c-3 -32 -8
-45 -19 -45 -10 0 -13 6 -8 18 3 9 9 29 12 45 9 43 18 31 15 -18z m-4452 -180
l0 -106 -102 3 -103 3 -3 103 -3 102 106 0 105 0 0 -105z m230 0 l0 -106 -97
3 -98 3 -3 103 -3 102 101 0 100 0 0 -105z m238 3 l-3 -103 -100 0 -100 0 -3
103 -3 102 106 0 106 0 -3 -102z m232 -3 l0 -105 -100 0 -100 0 0 105 0 105
100 0 100 0 0 -105z m238 3 l-3 -103 -100 0 -100 0 -3 103 -3 102 106 0 106 0
-3 -102z m232 -3 l0 -105 -100 0 -100 0 0 105 0 105 100 0 100 0 0 -105z m238
3 l-3 -103 -100 0 -100 0 -3 103 -3 102 106 0 106 0 -3 -102z m232 -3 l0 -106
-102 3 -103 3 -3 103 -3 102 106 0 105 0 0 -105z m230 102 c0 -2 -41 -35 -90
-73 -88 -67 -90 -70 -85 -103 5 -25 3 -32 -7 -29 -9 3 -14 33 -16 106 l-3 102
101 0 c55 0 100 -1 100 -3z m240 -94 l0 -97 -61 59 c-33 33 -74 77 -91 98
l-30 37 91 0 91 0 0 -97z m209 40 c19 -95 15 -120 -19 -138 -17 -9 -55 -15
-95 -15 l-65 0 0 105 0 105 84 0 83 0 12 -57z m441 53 c0 -9 -40 -13 -46 -5
-3 5 6 9 20 9 14 0 26 -2 26 -4z m1690 -101 l0 -106 -31 17 -32 16 6 71 c7 88
14 107 38 107 17 0 19 -9 19 -105z m240 46 c0 -59 0 -60 -52 -106 -50 -43 -56
-45 -103 -43 l-50 3 -3 103 -3 102 106 0 105 0 0 -59z m69 22 c-18 -21 -35
-40 -36 -42 -2 -2 -3 14 -3 37 0 42 0 42 37 42 l37 0 -35 -37z m161 7 l0 -30
-40 26 c-22 15 -40 28 -40 30 0 2 18 4 40 4 38 0 40 -2 40 -30z m238 -72 l-3
-103 -72 -3 c-40 -2 -73 0 -73 3 0 3 6 15 13 26 11 19 8 24 -30 58 -38 32 -43
42 -43 79 l0 42 105 0 106 0 -3 -102z m232 -3 l0 -105 -100 0 -100 0 0 105 0
105 100 0 100 0 0 -105z m230 17 c0 -120 -3 -124 -110 -120 l-85 3 -3 103 -3
102 101 0 100 0 0 -88z m64 51 c-25 -59 -34 -62 -34 -10 0 43 2 47 24 47 25 0
25 0 10 -37z m646 -13 c0 -27 -2 -50 -4 -50 -9 0 -192 83 -200 91 -6 5 35 9
97 9 l107 0 0 -50z m230 -50 c0 -57 -4 -100 -10 -100 -5 0 -50 19 -100 41
l-90 42 0 58 0 59 100 0 100 0 0 -100z m238 -2 l-3 -103 -100 0 -100 0 -3 103
-3 102 106 0 106 0 -3 -102z m232 75 c0 -20 -20 -51 -66 -105 -58 -70 -69 -78
-99 -78 l-35 0 0 105 0 105 100 0 100 0 0 -27z m-7030 -308 l0 -105 -105 0
-105 0 0 98 c0 54 3 102 7 105 3 4 51 7 105 7 l98 0 0 -105z m230 0 l0 -105
-100 0 -100 0 0 105 0 105 100 0 100 0 0 -105z m240 0 l0 -105 -105 0 -105 0
0 98 c0 54 3 102 7 105 3 4 51 7 105 7 l98 0 0 -105z m230 0 l0 -105 -100 0
-100 0 0 105 0 105 100 0 100 0 0 -105z m240 0 l0 -105 -105 0 -105 0 0 98 c0
54 3 102 7 105 3 4 51 7 105 7 l98 0 0 -105z m230 0 l0 -105 -100 0 -100 0 0
105 0 105 100 0 100 0 0 -105z m238 -2 l3 -103 -106 0 -105 0 0 105 0 106 103
-3 102 -3 3 -102z m232 2 l0 -106 -102 3 -103 3 -3 89 c-2 49 -1 95 2 103 4
10 31 13 106 13 l100 0 0 -105z m146 5 c30 -52 54 -98 54 -102 0 -4 -38 -8
-85 -8 l-85 0 0 106 0 105 31 -3 c27 -3 37 -13 85 -98z m429 90 c-3 -5 -13
-10 -21 -10 -8 0 -14 5 -14 10 0 6 9 10 21 10 11 0 17 -4 14 -10z m2320 0 c-3
-5 -12 -10 -20 -10 -8 0 -17 5 -20 10 -4 6 5 10 20 10 15 0 24 -4 20 -10z
m623 -97 l3 -103 -106 0 -105 0 0 71 c0 55 5 79 21 106 l21 34 82 -3 81 -3 3
-102z m232 2 l0 -105 -100 0 -100 0 0 105 0 105 100 0 100 0 0 -105z m190 96
c0 -5 -20 -53 -44 -105 -44 -95 -45 -96 -80 -96 l-36 0 0 105 0 105 80 0 c44
0 80 -4 80 -9z m1218 -34 c3 -36 2 -38 -18 -32 -33 10 -150 66 -150 71 0 3 37
4 83 2 l82 -3 3 -38z m73 25 c-5 -10 -17 -24 -25 -32 -14 -11 -16 -8 -16 19 0
27 4 31 25 31 22 0 24 -3 16 -18z m-1951 -152 c0 -33 -3 -40 -20 -40 -24 0
-25 11 -5 50 21 40 25 38 25 -10z m-4920 -170 l0 -100 -105 0 -105 0 0 100 0
100 105 0 105 0 0 -100z m230 0 l0 -100 -100 0 -100 0 0 100 0 100 100 0 100
0 0 -100z m240 0 l0 -100 -105 0 -105 0 0 100 0 100 105 0 105 0 0 -100z m230
0 l0 -100 -100 0 -100 0 0 100 0 100 100 0 100 0 0 -100z m240 0 l0 -100 -105
0 -105 0 0 100 0 100 105 0 105 0 0 -100z m230 0 l0 -100 -100 0 -100 0 0 100
0 100 100 0 100 0 0 -100z m192 88 c-52 -65 -122 -165 -122 -175 0 -7 -9 -13
-20 -13 -19 0 -20 7 -20 100 l0 100 86 0 c68 0 84 -3 76 -12z m278 -39 l0 -50
-59 32 c-33 18 -70 41 -83 51 -23 17 -22 18 60 18 l82 0 0 -51z m220 29 c0
-26 -86 -118 -111 -118 -9 0 -30 5 -48 11 -30 11 -31 13 -31 70 l0 59 95 0
c91 0 95 -1 95 -22z m3060 -30 l0 -52 -34 33 c-41 40 -39 71 5 71 28 0 29 -1
29 -52z m240 22 c0 -27 -7 -33 -83 -70 -46 -22 -93 -40 -105 -40 -21 0 -22 5
-22 70 l0 70 105 0 105 0 0 -30z m64 15 c-25 -19 -34 -19 -34 0 0 10 10 15 27
15 26 0 26 -1 7 -15z m166 -11 c0 -27 -14 -25 -30 7 -9 16 -7 19 10 19 15 0
20 -7 20 -26z m80 19 c-1 -5 -12 -28 -25 -53 l-24 -45 -1 53 c0 49 1 52 25 52
14 0 25 -3 25 -7z m630 -187 c0 -2 -9 -6 -20 -9 -11 -3 -20 -1 -20 4 0 5 9 9
20 9 11 0 20 -2 20 -4z m-6100 -50 c0 -9 -20 -16 -62 -20 -95 -11 -98 -14 -98
-102 0 -72 -1 -75 -22 -72 -22 3 -23 8 -26 92 -2 49 -1 95 2 103 8 19 206 19
206 -1z m230 0 c0 -8 -6 -16 -14 -19 -7 -3 -19 -27 -25 -54 -33 -133 -27 -123
-77 -123 -43 0 -46 2 -61 38 -9 20 -18 67 -21 105 l-5 67 102 0 c80 0 101 -3
101 -14z m240 -91 l0 -105 -45 0 -45 0 0 75 c0 84 -3 87 -82 100 -24 4 -38 11
-38 20 0 12 20 15 105 15 l105 0 0 -105z m230 30 c0 -41 -2 -75 -4 -75 -2 0
-25 9 -51 20 -71 30 -89 27 -110 -20 -10 -23 -22 -43 -27 -46 -4 -3 -8 40 -8
95 l0 101 100 0 100 0 0 -75z m240 -30 l0 -105 -105 0 -105 0 0 98 c0 54 3
102 7 105 3 4 51 7 105 7 l98 0 0 -105z m230 0 l0 -105 -100 0 -100 0 0 105 0
105 100 0 100 0 0 -105z m174 44 c47 -44 66 -68 66 -86 0 -19 -4 -23 -18 -19
-13 5 -22 -1 -30 -19 -11 -23 -16 -25 -87 -25 l-75 0 0 105 0 105 39 0 c33 0
47 -8 105 -61z m4754 -11 c2 -44 0 -68 -7 -68 -19 0 -51 -39 -45 -55 5 -12 -3
-15 -45 -15 -28 0 -51 4 -51 9 0 5 20 52 45 105 42 91 47 97 72 94 27 -3 28
-5 31 -70z m220 58 c8 -5 12 -38 12 -102 l0 -94 -35 0 c-32 0 -37 4 -61 51
l-25 51 -45 -7 -44 -6 0 54 c0 29 3 57 8 61 9 10 173 3 190 -8z m77 -22 c13
-5 14 -9 4 -15 -10 -6 -12 -30 -10 -83 2 -64 0 -76 -13 -76 -13 0 -16 15 -16
90 0 89 3 96 35 84z m265 -71 c64 -17 71 -28 48 -78 -9 -21 -18 -25 -55 -25
-37 0 -45 4 -53 26 -10 26 -14 94 -5 94 3 0 32 -7 65 -17z m-1386 -77 c-9 -15
-19 -24 -22 -22 -2 3 3 17 12 32 10 14 20 23 23 21 2 -3 -3 -17 -13 -31z
m1756 4 c0 -30 -1 -30 -55 -30 -42 0 -55 3 -55 15 0 10 10 15 33 15 18 0 42 7
53 15 25 19 24 20 24 -15z m-5563 -26 c-10 -10 -37 16 -37 34 0 13 4 12 22 -5
12 -13 19 -25 15 -29z m-1412 -56 c41 -83 66 -107 113 -108 42 0 86 42 101 96
26 95 81 114 81 28 0 -13 9 -33 19 -43 10 -10 22 -33 26 -50 9 -40 49 -71 93
-71 27 0 42 8 71 38 20 21 44 51 54 65 31 46 46 35 34 -25 -10 -49 -9 -52 16
-73 15 -11 27 -30 27 -42 0 -28 44 -79 74 -87 33 -8 70 7 119 49 52 45 61 44
38 -2 -34 -67 -34 -77 -1 -108 18 -17 30 -39 30 -54 0 -14 12 -38 27 -53 33
-34 81 -37 138 -8 57 29 62 25 21 -17 -20 -21 -39 -45 -42 -55 -5 -16 16 -67
39 -96 6 -8 12 -24 14 -35 4 -32 58 -77 91 -77 15 0 43 4 61 10 45 13 51 6 12
-14 -17 -9 -46 -30 -65 -46 l-34 -30 14 -48 c8 -26 21 -52 29 -58 8 -6 15 -19
15 -28 0 -50 53 -86 124 -86 58 0 68 -16 14 -24 -22 -4 -63 -16 -89 -28 l-49
-20 0 -59 c0 -49 3 -59 20 -64 11 -4 20 -15 20 -26 0 -44 28 -76 91 -103 34
-15 59 -29 57 -32 -3 -2 -49 -6 -101 -7 -53 -2 -101 -7 -107 -13 -5 -5 -16
-31 -24 -57 -14 -47 -14 -47 15 -71 19 -16 29 -34 29 -52 0 -20 13 -39 45 -70
74 -68 60 -82 -50 -54 -111 28 -120 27 -150 -20 -31 -49 -31 -61 -2 -97 13
-15 27 -41 31 -58 4 -16 19 -45 33 -64 l26 -33 -25 -24 -24 -25 -70 40 c-102
59 -112 59 -158 13 l-38 -40 41 -91 c23 -50 41 -95 41 -100 0 -7 -63 -61 -72
-61 -2 0 -34 29 -71 65 -37 36 -77 65 -88 65 -30 0 -99 -48 -99 -69 0 -10 9
-53 20 -96 11 -43 20 -81 20 -85 0 -4 -18 -15 -40 -25 -47 -21 -56 -16 -106
60 -17 28 -43 60 -56 72 -22 21 -27 21 -66 10 -63 -19 -66 -26 -67 -132 0 -85
-2 -94 -20 -99 -38 -11 -53 -6 -59 18 -3 14 -18 39 -33 57 -16 18 -37 51 -48
73 -19 39 -22 41 -72 44 -52 3 -52 3 -73 -37 -11 -22 -27 -68 -34 -102 -17
-70 -18 -72 -39 -64 -16 7 -27 35 -27 72 0 11 -16 40 -35 63 -19 23 -35 50
-35 60 0 22 -15 33 -65 48 -38 11 -42 10 -67 -16 -15 -15 -42 -54 -60 -87 -19
-33 -38 -58 -43 -55 -6 3 -8 10 -6 15 1 6 5 36 8 67 5 55 4 59 -26 87 -17 16
-31 39 -31 53 0 30 -70 73 -106 64 -13 -4 -48 -31 -79 -60 -30 -30 -55 -53
-55 -51 0 1 9 22 20 46 29 64 26 114 -7 147 -15 15 -26 31 -25 36 4 12 -68 86
-84 86 -6 0 -38 -13 -70 -30 -32 -16 -61 -30 -63 -30 -2 0 13 18 33 40 19 22
38 51 42 65 7 29 -11 80 -35 98 -9 7 -28 34 -41 60 l-25 49 -52 -6 c-28 -3
-60 -8 -70 -12 -12 -3 -10 1 7 13 97 69 116 128 60 185 -17 16 -33 42 -36 56
-10 42 -22 50 -80 58 -29 3 -52 10 -49 14 2 4 25 13 50 20 103 29 137 110 73
173 -17 18 -32 42 -32 55 -1 24 -26 43 -80 62 -43 16 -22 29 65 39 61 8 78 14
96 36 34 39 31 94 -6 129 -16 16 -27 34 -25 41 3 7 -14 29 -38 49 -42 36 -42
38 -23 52 14 11 31 13 55 9 104 -19 115 -18 147 9 58 49 54 79 -22 191 -31 44
-33 51 -21 70 20 29 39 30 102 1 73 -34 110 -33 146 1 36 35 37 86 3 153 -30
60 -31 72 -5 95 19 17 22 18 53 2 17 -9 49 -31 70 -49 50 -42 95 -43 138 -2
29 27 31 32 25 84 -3 30 -8 67 -12 82 -4 19 0 32 15 47 29 29 39 27 75 -15 83
-96 93 -104 131 -104 59 0 91 40 100 126 8 78 17 94 51 94 20 0 30 -13 59 -72z
m6542 3 c18 -38 44 -78 59 -90 60 -47 122 -13 164 90 18 47 31 65 46 67 18 3
22 -3 27 -44 3 -28 11 -51 21 -56 9 -5 16 -14 16 -19 0 -26 33 -77 56 -88 61
-27 104 -7 159 77 42 64 54 62 48 -9 -5 -53 -3 -62 14 -74 12 -8 24 -30 27
-48 7 -35 24 -55 64 -77 33 -16 62 -7 121 40 28 22 53 40 55 40 3 0 -4 -19
-14 -42 -26 -57 -25 -80 5 -108 14 -13 25 -34 25 -48 0 -13 13 -37 29 -53 36
-35 83 -38 141 -9 54 28 59 25 23 -12 -56 -60 -58 -72 -24 -129 17 -27 31 -56
31 -65 0 -9 14 -29 31 -46 28 -29 33 -30 84 -24 29 3 62 9 72 12 10 4 -10 -11
-43 -34 -34 -22 -65 -45 -69 -51 -10 -17 14 -109 31 -115 8 -3 14 -15 14 -27
0 -11 15 -36 34 -55 29 -29 41 -34 83 -34 73 0 72 -11 -2 -31 -99 -25 -115
-39 -115 -99 0 -42 4 -52 25 -66 17 -11 25 -25 25 -44 0 -35 45 -75 100 -90
62 -17 47 -30 -32 -30 -40 0 -89 -5 -110 -10 -33 -10 -37 -15 -48 -62 -13 -50
-12 -52 14 -73 14 -11 26 -28 26 -37 0 -32 23 -67 61 -94 33 -23 37 -29 28
-46 -8 -14 -17 -18 -32 -14 -170 49 -178 48 -212 -10 l-27 -46 31 -44 c17 -25
31 -53 31 -64 0 -10 11 -32 25 -48 30 -35 30 -40 6 -71 l-18 -23 -74 40 c-109
59 -115 60 -155 21 -19 -18 -34 -42 -34 -52 0 -11 18 -58 41 -104 22 -47 39
-86 37 -87 -2 -2 -20 -15 -41 -31 l-38 -28 -57 55 c-92 89 -95 90 -148 61 -41
-23 -44 -27 -44 -68 0 -24 9 -72 20 -107 11 -34 20 -64 20 -64 0 -1 -21 -9
-46 -19 l-47 -18 -19 24 c-10 13 -34 47 -54 76 -49 72 -51 73 -108 60 -59 -13
-66 -28 -66 -142 0 -66 -3 -84 -16 -89 -35 -13 -54 -6 -68 28 -8 19 -26 45
-39 57 -14 11 -28 33 -32 48 -4 14 -14 34 -22 44 -22 23 -94 23 -115 0 -18
-20 -42 -88 -53 -146 -8 -41 -16 -50 -38 -41 -9 3 -17 25 -21 56 -5 35 -15 58
-34 76 -15 15 -32 42 -37 61 -9 31 -16 36 -60 47 -61 16 -69 10 -129 -94 -23
-40 -45 -70 -48 -66 -4 3 -4 38 -1 78 6 71 5 72 -26 98 -20 17 -31 36 -31 52
0 20 -9 30 -40 46 -21 11 -47 20 -55 20 -9 0 -46 -28 -81 -62 -35 -33 -64 -58
-64 -54 0 4 11 29 25 56 33 64 32 92 -5 133 -16 19 -30 41 -30 49 0 8 -15 29
-34 47 -38 37 -45 36 -129 -6 l-49 -24 36 47 c46 60 47 97 5 150 -17 22 -40
56 -51 78 -20 38 -20 39 -66 33 -26 -4 -58 -10 -72 -13 -19 -6 -15 1 19 27 24
19 53 46 64 61 18 24 19 32 9 67 -7 21 -23 46 -37 55 -14 10 -27 30 -31 51 -5
30 -12 36 -43 44 -20 6 -49 11 -66 13 -27 3 -25 5 30 26 83 32 105 55 105 108
0 34 -5 47 -29 67 -17 14 -31 37 -33 53 -3 29 -20 42 -83 65 l-30 11 30 14
c17 7 51 13 77 14 85 0 138 72 103 140 -9 17 -23 34 -31 37 -7 3 -14 16 -14
28 0 16 -13 33 -40 52 -46 32 -48 38 -18 54 16 9 34 9 76 -1 71 -16 116 -7
142 29 31 45 25 79 -25 151 -52 73 -55 96 -19 112 21 10 33 8 80 -15 69 -34
117 -35 149 -3 37 37 41 71 15 130 -33 75 -37 112 -12 125 26 14 46 6 102 -40
57 -47 80 -53 123 -35 51 21 61 45 53 140 -6 83 -2 102 24 106 36 5 50 -3 80
-50 38 -59 64 -80 102 -80 68 0 98 35 105 124 7 78 17 96 51 96 25 0 32 -8 59
-69z m-5149 21 l42 -37 -31 -52 c-30 -52 -32 -53 -77 -53 -71 0 -77 7 -52 69
30 78 49 111 63 111 6 0 31 -17 55 -38z m-1610 -14 c-7 -20 -48 -23 -48 -4 0
11 9 16 26 16 16 0 24 -5 22 -12z m632 5 c-1 -25 -19 -34 -50 -26 -52 14 -50
33 4 33 25 0 46 -3 46 -7z m470 -18 c0 -28 -3 -30 -30 -13 -17 11 -27 5 -89
-55 -38 -37 -74 -67 -80 -67 -7 0 -11 29 -11 80 l0 80 105 0 105 0 0 -25z
m230 -20 c0 -25 -3 -45 -7 -45 -3 0 -31 8 -61 17 l-54 17 -22 -27 c-22 -27
-23 -27 -39 -9 -10 10 -17 35 -17 55 l0 37 100 0 100 0 0 -45z m160 41 c0 -2
-10 -29 -21 -60 -23 -59 -34 -65 -83 -46 -23 8 -26 15 -26 60 l0 50 65 0 c36
0 65 -2 65 -4z m3914 -11 c-4 -8 -10 -15 -15 -15 -5 0 -9 7 -9 15 0 8 7 15 15
15 9 0 12 -6 9 -15z m835 -53 c16 -69 14 -75 -37 -88 -19 -5 -35 4 -82 51 -53
53 -57 60 -47 82 10 22 15 24 81 21 l71 -3 14 -63z m251 48 c0 -11 -4 -20 -8
-20 -5 0 -17 9 -27 20 -18 20 -17 20 8 20 20 0 27 -5 27 -20z m50 11 c0 -6 -4
-13 -10 -16 -5 -3 -10 1 -10 9 0 9 5 16 10 16 6 0 10 -4 10 -9z m640 0 c0 -20
-30 -33 -57 -24 -46 16 -40 33 11 33 25 0 46 -4 46 -9z m-6320 -76 c0 -30 -4
-55 -10 -55 -11 0 -13 33 -4 79 9 46 14 38 14 -24z m5128 -204 c9 -25 7 -32
-13 -51 -14 -13 -31 -20 -40 -17 -13 6 -12 12 7 52 12 25 25 45 29 45 4 0 12
-13 17 -29z m-4843 -61 c3 -5 1 -10 -4 -10 -6 0 -11 5 -11 10 0 6 2 10 4 10 3
0 8 -4 11 -10z m4641 -234 c-15 -35 -18 -37 -48 -31 -92 19 -109 26 -119 53
-10 25 -7 30 37 70 l47 43 50 -49 49 -49 -16 -37z m-4390 83 c29 -28 31 -34
22 -63 -14 -40 -16 -42 -60 -49 -31 -5 -39 -2 -53 19 -9 14 -13 33 -10 45 7
21 53 79 63 79 3 0 20 -14 38 -31z m-2493 -320 c114 -40 207 -75 207 -79 0
-12 -89 -20 -146 -14 -52 6 -54 6 -64 -21 -6 -15 -11 -55 -13 -88 -2 -68 -16
-57 121 -96 l72 -22 0 -38 c0 -44 -11 -51 -127 -80 l-68 -16 3 -70 c5 -105 5
-105 123 -105 99 0 100 0 110 -27 16 -42 8 -53 -61 -94 -114 -67 -108 -59 -87
-118 l18 -51 -753 -1152 -753 -1151 -3 744 c-2 634 0 746 12 754 8 6 267 404
576 885 309 481 569 883 578 893 8 9 22 17 31 17 9 0 109 -32 224 -71z m2508
-939 c4 0 9 -11 12 -25 3 -21 -4 -33 -37 -61 l-41 -35 -27 32 c-32 38 -34 51
-13 83 14 21 20 22 58 15 23 -4 45 -8 48 -9z m4367 -6 c4 -8 6 -28 4 -45 -4
-29 -5 -29 -72 -29 -55 0 -70 4 -85 20 -16 18 -17 22 -4 35 32 32 142 45 157
19z m-45 -115 c-8 -8 -16 -8 -30 0 -16 9 -14 10 12 11 21 0 26 -3 18 -11z
m243 -140 c18 -17 21 -26 13 -40 -5 -11 -20 -19 -33 -19 -22 0 -24 4 -23 40 2
45 11 49 43 19z m-6 -83 c0 -3 -16 -31 -35 -62 -19 -32 -31 -63 -27 -70 4 -7
24 -26 46 -43 l39 -31 -92 0 c-72 0 -91 3 -91 14 0 8 9 17 19 21 11 3 26 22
34 43 50 122 56 132 82 132 14 0 25 -2 25 -4z m278 -122 c2 -2 1 -21 -3 -43
l-7 -41 -86 0 -87 0 62 61 62 60 28 -17 c15 -10 30 -19 31 -20z m-5280 -29
l57 -55 -67 0 -68 0 0 55 c0 33 4 55 11 55 6 0 36 -25 67 -55z m602 0 l0 -55
-105 0 -105 0 0 39 0 39 58 15 c31 8 78 15 105 16 l47 1 0 -55z m3980 0 l0
-55 -81 0 c-44 0 -79 3 -77 8 2 4 14 28 28 55 l24 47 53 0 53 0 0 -55z m135
19 c108 -31 104 -29 98 -54 -5 -18 -14 -20 -104 -20 l-99 0 0 50 c0 28 4 50 8
50 4 0 48 -12 97 -26z m-4825 -31 c0 -35 -3 -44 -10 -33 -13 20 -13 80 0 80 6
0 10 -21 10 -47z m776 -15 c14 -28 14 -28 -16 -28 -29 0 -30 1 -30 48 1 44 2
46 16 27 9 -11 22 -32 30 -47z m-306 7 l0 -35 -101 0 c-88 0 -100 2 -97 16 5
28 35 41 58 26 29 -18 79 -15 107 8 14 11 27 20 29 20 2 0 4 -16 4 -35z
m-1330 -165 l0 -100 -25 0 -25 0 0 100 0 100 25 0 25 0 0 -100z m630 0 l0
-100 -45 0 -45 0 0 100 0 100 45 0 45 0 0 -100z m470 0 l0 -100 -105 0 -105 0
0 100 0 100 105 0 105 0 0 -100z m230 0 l0 -100 -100 0 -100 0 0 100 0 100
100 0 100 0 0 -100z m240 48 c0 -49 -3 -55 -47 -100 -46 -46 -49 -48 -105 -48
l-58 0 0 100 0 100 105 0 105 0 0 -52z m61 20 c-26 -42 -36 -45 -39 -12 -3 35
4 44 35 44 l25 0 -21 -32z m3919 -65 l0 -97 -41 39 c-42 42 -119 137 -119 148
0 4 36 7 80 7 l80 0 0 -97z m232 -3 l3 -100 -102 0 -103 0 0 100 0 100 99 0
100 0 3 -100z m238 0 l0 -100 -105 0 -105 0 0 100 0 100 105 0 105 0 0 -100z
m196 63 c-16 -46 -11 -61 20 -74 21 -7 24 -15 22 -49 l-2 -40 -103 0 -103 0 0
100 0 100 90 0 89 0 -13 -37z m274 -63 l0 -100 -105 0 -105 0 0 31 c0 30 0 30
44 24 43 -7 45 -6 61 26 37 73 71 119 88 119 15 0 17 -11 17 -100z m55 70 c11
-50 2 -170 -12 -170 -10 0 -13 25 -13 100 0 97 12 130 25 70z m639 14 c3 -9 6
-54 6 -100 l0 -84 -55 0 -55 0 0 78 c0 114 4 122 55 122 30 0 45 -5 49 -16z
m-6866 -41 c6 -16 18 -54 26 -85 l14 -58 -84 0 c-98 0 -96 -2 -64 104 l21 66
38 0 c33 0 40 -4 49 -27z m6553 -28 c9 -27 20 -65 24 -82 l7 -33 -76 0 -76 0
0 50 c0 28 7 67 15 86 13 33 17 35 52 32 36 -3 39 -6 54 -53z m-6135 -65 c12
0 43 9 69 20 26 11 49 20 51 20 2 0 4 -20 4 -45 l0 -45 -100 0 -100 0 1 78 0
77 27 -52 c20 -40 32 -53 48 -53z m-576 -185 l0 -106 -102 3 -103 3 -3 89 c-2
49 -1 95 2 103 4 10 31 13 106 13 l100 0 0 -105z m230 0 l0 -105 -100 0 -100
0 0 105 0 105 100 0 100 0 0 -105z m240 0 l0 -105 -105 0 -105 0 0 105 0 105
105 0 105 0 0 -105z m230 0 l0 -105 -100 0 -100 0 0 105 0 105 100 0 100 0 0
-105z m240 0 l0 -105 -105 0 -105 0 0 105 0 105 105 0 105 0 0 -105z m230 0
l0 -105 -100 0 -100 0 0 105 0 105 100 0 100 0 0 -105z m100 95 c0 -5 -4 -10
-9 -10 -5 0 -12 -9 -16 -20 -4 -14 9 -41 49 -95 l56 -75 -75 0 -75 0 0 105 0
105 35 0 c19 0 35 -4 35 -10z m4352 -95 l0 -100 -101 -3 -101 -3 0 37 c0 24
10 50 32 80 l31 44 -23 25 -24 26 93 -3 93 -3 0 -100z m238 0 l0 -105 -105 0
-105 0 0 105 0 105 105 0 105 0 0 -105z m235 0 l0 -100 -102 -3 -103 -3 0 106
0 106 103 -3 102 -3 0 -100z m235 0 l0 -106 -102 3 -103 3 -3 89 c-2 49 -1 95
2 103 4 10 31 13 106 13 l100 0 0 -105z m230 0 l0 -105 -100 0 -100 0 0 105 0
105 100 0 100 0 0 -105z m240 0 l0 -105 -105 0 -105 0 0 105 0 105 105 0 105
0 0 -105z m230 0 l0 -105 -100 0 -100 0 0 105 0 105 100 0 100 0 0 -105z
m-5223 -37 c29 -29 53 -56 53 -60 0 -4 -43 -8 -96 -8 l-95 0 3 47 c3 43 6 47
38 59 19 7 37 13 40 13 2 1 28 -22 57 -51z m3273 4 c42 -22 76 -45 78 -55 3
-15 -8 -17 -102 -17 l-106 0 0 61 0 61 28 -6 c15 -4 61 -24 102 -44z m-160
-32 c0 -37 -2 -40 -28 -40 -43 0 -45 10 -10 47 17 18 33 33 35 33 2 0 3 -18 3
-40z m-3280 -5 l0 -35 -60 0 c-33 0 -60 2 -60 4 0 6 103 65 113 66 4 0 7 -16
7 -35z m3750 -20 c0 -8 -4 -15 -10 -15 -5 0 -7 7 -4 15 4 8 8 15 10 15 2 0 4
-7 4 -15z m-5390 -145 l0 -100 -105 0 -105 0 0 100 0 100 105 0 105 0 0 -100z
m230 0 l0 -100 -100 0 -100 0 0 100 0 100 100 0 100 0 0 -100z m240 0 l0 -100
-105 0 -105 0 0 100 0 100 105 0 105 0 0 -100z m230 0 l0 -100 -100 0 -100 0
0 100 0 100 100 0 100 0 0 -100z m240 0 l0 -100 -105 0 -105 0 0 100 0 100
105 0 105 0 0 -100z m230 0 l0 -100 -100 0 -100 0 0 100 0 100 100 0 100 0 0
-100z m222 83 c15 -13 18 -31 18 -100 l0 -83 -105 0 -105 0 0 100 0 100 87 0
c66 0 91 -4 105 -17z m248 -83 l0 -100 -105 0 -105 0 0 90 c0 108 1 109 123
110 l87 0 0 -100z m210 96 c0 -11 -34 -82 -65 -135 -34 -58 -38 -61 -75 -61
l-40 0 0 100 0 100 90 0 c50 0 90 -2 90 -4z m3070 -53 l-1 -58 -24 45 c-31 58
-31 70 0 70 24 0 25 -3 25 -57z m240 -43 l0 -100 -93 0 c-59 0 -97 4 -105 12
-8 8 -12 45 -12 100 l0 88 105 0 105 0 0 -100z m119 85 c25 -12 31 -12 47 0
11 8 29 15 42 15 21 0 22 -3 22 -100 l0 -100 -100 0 -100 0 0 100 0 100 30 0
c17 0 44 -7 59 -15z m346 -85 l0 -100 -102 0 -103 0 0 100 0 100 103 0 102 0
0 -100z m235 0 l0 -100 -105 0 -105 0 0 100 0 100 105 0 105 0 0 -100z m238 0
l0 -100 -104 0 -104 0 0 100 0 100 104 0 104 0 0 -100z m232 0 l0 -100 -105 0
-105 0 0 100 0 100 105 0 105 0 0 -100z m230 0 l0 -100 -100 0 -100 0 0 100 0
100 100 0 100 0 0 -100z m240 0 l0 -100 -105 0 -105 0 0 100 0 100 105 0 105
0 0 -100z m230 0 l0 -100 -100 0 -100 0 0 100 0 100 100 0 100 0 0 -100z
m-7030 -235 l0 -106 -102 3 -103 3 -3 89 c-2 49 -1 95 2 103 4 10 31 13 106
13 l100 0 0 -105z m230 0 l0 -105 -100 0 -100 0 0 105 0 105 100 0 100 0 0
-105z m240 0 l0 -105 -105 0 -105 0 0 105 0 105 105 0 105 0 0 -105z m230 0
l0 -105 -100 0 -100 0 0 105 0 105 100 0 100 0 0 -105z m240 0 l0 -105 -105 0
-105 0 0 105 0 105 105 0 105 0 0 -105z m230 0 l0 -105 -100 0 -100 0 0 105 0
105 100 0 100 0 0 -105z m235 0 l0 -100 -102 -3 -103 -3 0 106 0 106 103 -3
102 -3 0 -100z m235 0 l0 -106 -102 3 -103 3 -3 89 c-2 49 -1 95 2 103 4 10
31 13 106 13 l100 0 0 -105z m80 97 c0 -5 -7 -17 -15 -28 -25 -33 -17 -51 53
-105 37 -29 71 -56 77 -61 5 -4 -30 -8 -78 -8 l-87 0 0 105 0 105 25 0 c14 0
25 -4 25 -8z m560 -21 l45 -28 -2 -62 c-2 -93 0 -91 -98 -91 l-85 0 0 93 c0
59 4 97 12 105 20 20 80 12 128 -17z m2296 7 c16 -12 48 -39 72 -62 37 -35 42
-46 42 -83 l0 -43 -105 0 -105 0 0 105 0 105 34 0 c19 0 46 -9 62 -22z m584
-83 l0 -105 -105 0 -105 0 0 29 c0 20 10 38 33 58 49 43 51 50 27 88 l-22 35
86 0 86 0 0 -105z m230 0 l0 -105 -100 0 -100 0 0 105 0 105 100 0 100 0 0
-105z m232 0 l0 -100 -101 -3 -101 -3 0 106 0 106 101 -3 101 -3 0 -100z m238
0 l0 -105 -105 0 -105 0 0 105 0 105 105 0 105 0 0 -105z m235 0 l0 -100 -102
-3 -103 -3 0 106 0 106 103 -3 102 -3 0 -100z m235 0 l0 -106 -102 3 -103 3
-3 89 c-2 49 -1 95 2 103 4 10 31 13 106 13 l100 0 0 -105z m230 0 l0 -105
-100 0 -100 0 0 105 0 105 100 0 100 0 0 -105z m240 0 l0 -105 -105 0 -105 0
0 105 0 105 105 0 105 0 0 -105z m230 0 l0 -105 -100 0 -100 0 0 105 0 105
100 0 100 0 0 -105z m-2580 -15 c0 -88 -1 -90 -24 -90 -19 0 -24 6 -30 38 -13
78 -8 118 17 130 12 6 25 11 30 11 4 1 7 -39 7 -89z m-2340 -10 l0 -80 -82 0
-83 0 80 80 c44 44 81 80 82 80 2 0 3 -36 3 -80z m2650 -72 c0 -4 -9 -8 -20
-8 -15 0 -20 7 -20 27 0 25 0 26 20 8 11 -10 20 -22 20 -27z m160 7 c0 -9 -9
-15 -21 -15 -18 0 -19 2 -9 15 7 8 16 15 21 15 5 0 9 -7 9 -15z m-4920 -145
l0 -100 -105 0 -105 0 0 100 0 100 105 0 105 0 0 -100z m230 0 l0 -100 -100 0
-100 0 0 100 0 100 100 0 100 0 0 -100z m240 0 l0 -100 -105 0 -105 0 0 100 0
100 105 0 105 0 0 -100z m230 0 l0 -100 -100 0 -100 0 0 100 0 100 100 0 100
0 0 -100z m240 0 l0 -100 -105 0 -105 0 0 100 0 100 105 0 105 0 0 -100z m230
0 l0 -100 -100 0 -100 0 0 100 0 100 100 0 100 0 0 -100z m240 0 l0 -100 -105
0 -105 0 0 100 0 100 105 0 105 0 0 -100z m230 0 l0 -101 -102 3 -103 3 -3 98
-3 97 106 0 105 0 0 -100z m240 0 l0 -100 -105 0 -105 0 0 100 0 100 105 0
105 0 0 -100z m230 0 l0 -101 -101 3 -101 3 1 93 c0 50 0 94 1 97 0 3 45 5
100 5 l100 0 0 -100z m190 93 c1 -5 -12 -50 -27 -100 l-28 -93 -52 0 -53 0 0
100 0 100 80 0 c44 0 80 -3 80 -7z m510 -93 l0 -100 -100 0 -100 0 0 38 c0 34
22 79 75 149 6 8 31 13 67 13 l58 0 0 -100z m1170 0 l0 -100 -76 0 -77 0 6 75
c10 112 17 120 110 124 l37 1 0 -100z m89 36 c15 -23 40 -62 55 -88 l27 -48
-71 0 -70 0 0 101 c0 113 4 116 59 35z m381 20 c0 -24 3 -53 6 -63 5 -12 4
-15 -4 -8 -5 6 -17 34 -26 63 -14 50 -14 52 5 52 16 0 19 -7 19 -44z m240 -56
l0 -100 -105 0 -105 0 0 100 0 100 105 0 105 0 0 -100z m230 0 l0 -100 -100 0
-100 0 0 100 0 100 100 0 100 0 0 -100z m240 0 l0 -100 -105 0 -105 0 0 100 0
100 105 0 105 0 0 -100z m230 0 l0 -100 -100 0 -100 0 0 100 0 100 100 0 100
0 0 -100z m232 0 l-3 -100 -100 0 -99 0 0 100 0 100 103 0 102 0 -3 -100z
m238 0 l0 -100 -105 0 -105 0 0 100 0 100 105 0 105 0 0 -100z m237 3 l-2 -98
-102 -3 -103 -3 0 101 0 100 104 0 104 0 -1 -97z m233 -3 l0 -100 -105 0 -105
0 0 100 0 100 105 0 105 0 0 -100z m230 0 l0 -100 -100 0 -100 0 0 100 0 100
100 0 100 0 0 -100z m240 0 l0 -100 -105 0 -105 0 0 100 0 100 105 0 105 0 0
-100z m230 0 l0 -100 -100 0 -100 0 0 100 0 100 100 0 100 0 0 -100z m-4157
48 c3 -18 9 -59 13 -90 6 -58 6 -58 -20 -58 l-26 0 0 90 c0 70 3 90 14 90 8 0
16 -14 19 -32z m589 -78 c15 -30 28 -58 28 -62 0 -5 -40 -8 -90 -8 l-90 0 0
64 0 64 63 -1 62 -2 27 -55z m-182 -15 c0 -52 -1 -55 -25 -55 -14 0 -25 3 -25
6 0 9 42 104 46 104 2 0 4 -25 4 -55z m-3280 -190 l0 -106 -102 3 -103 3 -3
103 -3 102 106 0 105 0 0 -105z m230 0 l0 -105 -100 0 -100 0 0 105 0 105 100
0 100 0 0 -105z m238 3 l-3 -103 -100 0 -100 0 -3 103 -3 102 106 0 106 0 -3
-102z m232 -3 l0 -105 -100 0 -100 0 0 105 0 105 100 0 100 0 0 -105z m238 3
l-3 -103 -100 0 -100 0 -3 103 -3 102 106 0 106 0 -3 -102z m232 -3 l0 -105
-100 0 -100 0 0 105 0 105 100 0 100 0 0 -105z m238 3 l-3 -103 -100 0 -100 0
-3 103 -3 102 106 0 106 0 -3 -102z m232 -3 l0 -106 -102 3 -103 3 -3 103 -3
102 106 0 105 0 0 -105z m238 3 l-3 -103 -100 0 -100 0 -3 103 -3 102 106 0
106 0 -3 -102z m230 0 l-3 -103 -98 0 -99 0 1 98 c0 53 0 99 1 102 0 3 45 5
100 5 l101 0 -3 -102z m213 92 c17 -9 19 -22 19 -105 l0 -95 -100 0 -100 0 0
105 0 105 81 0 c44 0 89 -5 100 -10z m257 -92 l-3 -103 -100 0 -100 0 -3 83
c-2 45 1 82 5 82 4 0 32 -9 61 -20 29 -11 57 -20 62 -20 5 0 19 18 30 40 11
22 27 40 36 40 12 0 14 -16 12 -102z m232 -3 l0 -105 -100 0 -100 0 0 105 0
105 100 0 100 0 0 -105z m75 31 c-8 -88 -2 -116 28 -116 12 0 29 -5 37 -10 11
-7 -2 -10 -45 -8 l-60 3 -3 103 -3 102 27 0 26 0 -7 -74z m395 -31 l0 -105
-49 0 c-28 0 -52 4 -55 8 -4 8 25 151 39 190 2 6 18 12 35 12 l30 0 0 -105z
m230 65 c6 -22 10 -69 8 -103 l-3 -62 -100 0 -100 0 -3 103 -3 102 95 0 95 0
11 -40z m470 -65 l0 -105 -100 0 c-60 0 -100 4 -100 10 0 6 8 10 18 10 34 0
40 18 34 106 l-5 84 77 0 76 0 0 -105z m190 96 c0 -4 11 -25 25 -46 22 -31 25
-47 23 -94 l-3 -56 -100 0 -100 0 -3 103 -3 102 81 0 c44 0 80 -4 80 -9z m280
-96 l0 -105 -100 0 -100 0 0 69 0 68 83 36 c123 52 117 56 117 -68z m238 3
l-3 -103 -100 0 -100 0 -3 103 -3 102 106 0 106 0 -3 -102z m232 -3 l0 -105
-100 0 -100 0 0 105 0 105 100 0 100 0 0 -105z m238 3 l-3 -103 -100 0 -100 0
-3 103 -3 102 106 0 106 0 -3 -102z m232 -3 l0 -105 -100 0 -100 0 0 105 0
105 100 0 100 0 0 -105z m230 10 c0 -52 0 -98 0 -102 0 -5 -44 -8 -97 -8 l-98
0 -3 103 -3 102 101 0 100 0 0 -95z m238 -7 l-3 -103 -100 0 -100 0 -3 103 -3
102 106 0 106 0 -3 -102z m240 0 l-3 -103 -102 -3 -103 -3 0 106 0 105 106 0
105 0 -3 -102z m230 0 l-3 -103 -100 0 -100 0 -3 103 -3 102 106 0 106 0 -3
-102z m232 -3 l0 -105 -100 0 -100 0 0 105 0 105 100 0 100 0 0 -105z m238 3
l-3 -103 -100 0 -100 0 -3 103 -3 102 106 0 106 0 -3 -102z m232 -3 l0 -105
-100 0 -100 0 0 105 0 105 100 0 100 0 0 -105z"/>
<path d="M6618 4873 c7 -3 16 -2 19 1 4 3 -2 6 -13 5 -11 0 -14 -3 -6 -6z"/>
<path d="M6683 4873 c15 -2 39 -2 55 0 15 2 2 4 -28 4 -30 0 -43 -2 -27 -4z"/>
<path d="M6788 4873 c7 -3 16 -2 19 1 4 3 -2 6 -13 5 -11 0 -14 -3 -6 -6z"/>
<path d="M6455 4855 c-33 -8 -66 -14 -74 -14 -8 -1 -12 -3 -9 -7 3 -3 41 2 84
10 44 9 95 17 114 19 29 3 27 4 -10 5 -25 0 -72 -6 -105 -13z"/>
<path d="M6885 4859 c137 -18 345 -84 454 -145 24 -13 46 -22 49 -20 2 3 -28
21 -68 41 -133 67 -377 137 -467 134 -26 -1 -15 -4 32 -10z"/>
<path d="M6245 4796 c-49 -18 -115 -45 -145 -61 -139 -70 -331 -217 -400 -306
-21 -27 5 -6 71 56 158 151 294 236 489 306 58 21 98 38 90 38 -8 0 -55 -15
-105 -33z"/>
<path d="M5525 4790 c-48 -21 -70 -47 -83 -92 -12 -43 2 -144 22 -167 17 -18
20 -48 10 -75 -3 -9 -41 -34 -84 -57 -43 -22 -86 -49 -96 -60 -17 -19 -48
-154 -39 -170 12 -18 37 -168 45 -264 7 -83 12 -102 29 -116 23 -19 28 -58 10
-76 -22 -22 -29 -98 -13 -154 22 -80 57 -335 55 -404 -1 -33 -9 -103 -17 -155
-17 -106 -35 -517 -24 -564 3 -17 3 -42 -1 -56 -14 -48 -10 -70 14 -79 13 -5
29 -17 37 -26 12 -14 25 -16 90 -10 134 12 141 18 90 75 -16 18 -30 37 -30 41
0 15 63 18 97 4 45 -19 99 -19 153 0 23 8 46 15 50 15 4 0 36 -23 71 -50 201
-161 459 -263 734 -290 349 -35 728 84 1008 317 l57 48 76 -3 75 -4 -6 -40
c-8 -48 2 -58 58 -58 30 0 45 7 66 29 30 32 44 100 61 301 14 173 31 302 45
355 15 53 40 190 49 265 4 25 8 122 11 215 3 94 7 177 8 185 1 8 -7 50 -17 93
-18 73 -18 80 -2 130 9 28 22 100 27 158 9 88 8 121 -6 195 -22 120 -22 120
-58 142 -30 17 -34 27 -61 138 -15 65 -37 136 -47 156 -48 94 -178 89 -224 -8
-12 -26 -19 -71 -23 -146 -3 -59 -7 -108 -10 -108 -3 0 -17 10 -31 22 -24 21
-24 21 2 -8 32 -35 36 -86 10 -109 -10 -7 -28 -22 -41 -32 -18 -15 -25 -38
-41 -138 -11 -66 -19 -117 -20 -114 -1 3 -6 32 -12 65 -19 112 -25 122 -101
170 -64 42 -69 47 -63 72 4 15 18 42 33 61 16 22 26 49 28 75 2 52 14 116 22
116 3 0 33 -23 66 -52 34 -29 52 -42 41 -29 -28 34 -151 133 -189 153 -33 17
-59 15 -112 -9 -36 -16 -54 -49 -54 -97 0 -22 -6 -36 -16 -40 -19 -7 -12 -50
12 -77 15 -17 19 -66 6 -85 -9 -15 -139 -84 -157 -84 -30 0 -85 -101 -85 -157
0 -14 -4 -21 -10 -18 -5 3 -10 29 -10 57 0 84 -17 121 -86 189 -35 34 -64 70
-64 80 0 10 -8 22 -17 27 -15 9 -15 12 -1 43 12 25 15 52 11 104 -6 80 -25
109 -82 125 -57 16 -78 12 -117 -22 l-36 -32 4 -102 c2 -85 7 -107 24 -131 16
-22 19 -32 10 -45 -8 -13 -6 -22 8 -37 23 -25 13 -40 -46 -73 -22 -13 -47 -36
-55 -52 -16 -31 -43 -145 -43 -182 0 -11 -9 -47 -21 -80 -33 -96 -37 -132 -27
-243 13 -144 14 -148 49 -167 l32 -16 -8 -252 -7 -253 27 -99 c15 -54 42 -139
60 -189 19 -49 38 -116 43 -147 12 -79 -1 -98 -69 -98 -46 0 -50 -2 -62 -32
-13 -31 -13 -34 12 -48 15 -8 51 -14 89 -14 34 0 62 0 62 -2 0 -1 -7 -18 -16
-39 -24 -59 -16 -66 73 -63 l78 3 7 49 c7 50 19 66 51 66 20 0 21 25 7 170 -6
70 -5 115 5 175 28 163 56 467 57 606 0 86 1 87 35 120 38 35 38 37 14 149 -6
25 -10 63 -9 85 0 24 2 30 5 15 2 -14 15 -84 28 -156 14 -72 25 -153 25 -180
1 -60 14 -79 68 -93 30 -9 43 -18 47 -34 2 -12 14 -75 25 -140 18 -105 19
-121 6 -146 -13 -25 -13 -45 0 -167 9 -89 12 -178 8 -250 -6 -107 -5 -113 15
-123 15 -9 20 -18 16 -34 -7 -30 29 -87 55 -87 97 0 -177 -106 -368 -142 -101
-19 -369 -16 -471 5 -274 58 -491 170 -675 348 l-90 86 27 99 c15 55 38 136
52 182 34 113 48 339 37 572 -5 96 -12 183 -16 192 -6 13 -3 15 11 12 28 -7
76 59 71 97 -3 16 -1 29 3 29 4 0 7 6 6 13 -2 59 5 96 19 101 13 5 15 -5 14
-67 -1 -39 1 -108 4 -152 14 -197 18 -223 32 -229 8 -3 14 -15 14 -26 0 -12
11 -66 25 -122 14 -56 25 -113 25 -127 0 -15 9 -59 20 -99 11 -39 20 -98 20
-131 0 -53 2 -59 23 -64 22 -6 22 -8 22 -169 -1 -142 -4 -171 -23 -223 -37
-100 -29 -125 39 -125 19 0 29 -5 29 -15 0 -9 10 -29 21 -45 24 -32 69 -45
124 -34 29 5 35 11 35 31 0 13 -5 33 -10 44 -9 16 -7 19 12 19 46 0 68 12 68
35 0 25 -17 35 -59 35 -79 0 -121 92 -95 213 8 37 14 94 15 125 0 31 3 75 7
97 7 40 7 40 55 40 l47 0 4 110 c2 61 7 140 11 176 7 64 9 67 38 76 40 11 53
52 33 108 -7 22 -14 49 -15 60 -2 55 -41 417 -50 475 -6 36 -13 90 -15 120 -1
30 -17 89 -33 130 -17 41 -38 120 -48 175 -22 119 -35 149 -78 175 -49 30 -99
26 -142 -11 -37 -33 -51 -70 -80 -209 -9 -41 -27 -111 -42 -155 -15 -44 -29
-109 -32 -145 l-6 -65 -29 135 c-35 165 -52 194 -137 239 -92 48 -102 59 -94
100 4 18 14 45 22 58 9 14 18 39 19 56 18 198 19 183 -10 212 -15 15 -33 24
-41 21 -7 -2 -19 2 -25 10 -16 18 -46 17 -95 -6z m2148 -1092 c23 -66 27 -98
37 -313 11 -249 21 -306 75 -464 14 -41 25 -96 25 -121 0 -41 -7 -56 -49 -111
-56 -75 -219 -231 -235 -226 -6 2 -13 12 -15 23 -4 24 -19 34 -52 34 -30 0
-45 25 -28 46 6 7 17 66 25 131 14 119 62 308 93 373 15 29 17 54 12 148 -5
99 -4 112 10 112 9 0 27 9 40 19 26 21 25 11 28 304 1 64 3 117 5 117 2 0 15
-33 29 -72z"/>
<path d="M7657 4479 c7 -7 15 -10 18 -7 3 3 -2 9 -12 12 -14 6 -15 5 -6 -5z"/>
<path d="M3463 4223 c9 -2 25 -2 35 0 9 3 1 5 -18 5 -19 0 -27 -2 -17 -5z"/>
<path d="M3358 4213 c7 -3 16 -2 19 1 4 3 -2 6 -13 5 -11 0 -14 -3 -6 -6z"/>
<path d="M3308 4203 c7 -3 16 -2 19 1 4 3 -2 6 -13 5 -11 0 -14 -3 -6 -6z"/>
<path d="M3229 4185 c-45 -16 -119 -54 -119 -60 0 -3 19 4 42 16 24 12 65 30
93 40 27 10 43 18 35 18 -8 0 -31 -6 -51 -14z"/>
<path d="M3716 4180 c28 -10 62 -23 74 -30 13 -7 20 -8 16 -2 -7 12 -110 52
-129 51 -7 0 11 -9 39 -19z"/>
<path d="M3069 4099 l-24 -20 28 17 c15 9 27 18 27 20 0 8 -8 4 -31 -17z"/>
<path d="M3011 4059 c-13 -11 -22 -22 -19 -24 2 -3 15 6 28 20 28 30 24 32 -9
4z"/>
<path d="M2896 3937 c-40 -55 -89 -145 -100 -187 -4 -14 13 16 37 65 25 50 62
109 82 133 20 23 33 42 28 42 -4 0 -25 -24 -47 -53z"/>
<path d="M4125 3825 c57 -114 78 -217 73 -354 -4 -87 -11 -135 -31 -194 -71
-217 -244 -391 -464 -465 -70 -24 -93 -26 -223 -26 -133 -1 -151 2 -225 27
-156 55 -278 145 -366 270 -53 76 -57 79 -33 21 71 -170 255 -338 435 -398
236 -79 470 -46 677 96 240 165 360 494 287 785 -19 73 -94 227 -134 273 l-30
35 34 -70z"/>
<path d="M2781 3704 c0 -11 3 -14 6 -6 3 7 2 16 -1 19 -3 4 -6 -2 -5 -13z"/>
<path d="M2752 3500 c0 -19 2 -27 5 -17 2 9 2 25 0 35 -3 9 -5 1 -5 -18z"/>
<path d="M9901 4219 c-142 -24 -265 -87 -378 -193 -123 -115 -210 -285 -218
-426 l-4 -65 8 55 c50 344 310 589 666 629 61 6 68 8 30 9 -27 0 -74 -4 -104
-9z"/>
<path d="M10068 4223 c7 -3 16 -2 19 1 4 3 -2 6 -13 5 -11 0 -14 -3 -6 -6z"/>
<path d="M10160 4205 c78 -16 129 -34 196 -68 49 -26 74 -43 156 -105 l43 -34
-49 46 c-27 26 -76 63 -109 82 -73 43 -222 94 -268 93 -25 -1 -17 -4 31 -14z"/>
<path d="M10560 3980 c0 -5 3 -10 8 -10 4 0 26 -28 49 -62 273 -405 93 -935
-370 -1095 -108 -38 -282 -43 -397 -14 -132 35 -230 91 -331 191 -68 66 -95
103 -126 165 -48 97 -70 161 -82 240 -6 44 -9 51 -10 25 -2 -52 22 -135 75
-259 73 -174 158 -283 291 -371 94 -62 183 -97 301 -117 119 -20 236 -9 360
35 112 40 183 85 271 172 156 154 228 342 218 560 -8 172 -52 283 -177 453
-71 96 -80 106 -80 87z"/>
<path d="M9292 3500 c0 -19 2 -27 5 -17 2 9 2 25 0 35 -3 9 -5 1 -5 -18z"/>
</g>
</svg>
