<svg width="21" height="16" viewBox="0 0 21 16" fill="none" xmlns="http://www.w3.org/2000/svg">
<path d="M20.0504 1.881C19.3217 2.2 18.5452 2.41144 17.7356 2.51411C18.5685 2.01789 19.2041 1.23811 19.5029 0.298222C18.7264 0.760222 17.8691 1.08656 16.9554 1.26867C16.2181 0.485222 15.1673 0 14.0209 0C11.7967 0 10.0061 1.80156 10.0061 4.01011C10.0061 4.32789 10.0331 4.63344 10.0992 4.92433C6.7593 4.76178 3.80395 3.16433 1.81861 0.730889C1.472 1.331 1.26869 2.01789 1.26869 2.75733C1.26869 4.14578 1.98518 5.37655 3.05317 6.08911C2.40772 6.07689 1.77452 5.88989 1.23807 5.59533C1.23807 5.60755 1.23807 5.62344 1.23807 5.63933C1.23807 7.58755 2.63063 9.20578 4.45675 9.57855C4.12973 9.66778 3.77333 9.71055 3.40345 9.71055C3.14625 9.71055 2.8866 9.69589 2.64287 9.64211C3.1634 11.2298 4.64046 12.397 6.39677 12.4349C5.02993 13.5019 3.29445 14.1448 1.41566 14.1448C1.0862 14.1448 0.770212 14.1301 0.454224 14.0898C2.2338 15.235 4.34284 15.8889 6.61723 15.8889C14.0099 15.8889 18.0516 9.77778 18.0516 4.48067C18.0516 4.30344 18.0455 4.13233 18.0369 3.96244C18.8342 3.39778 19.5042 2.69255 20.0504 1.881Z" fill="white"/>
</svg>
