<svg width="25" height="35" viewBox="0 0 25 35" fill="none" xmlns="http://www.w3.org/2000/svg">
<path d="M24.8332 12.875C24.7715 6.10708 19.2832 0.649582 12.4998 0.649582C5.7165 0.649582 0.228171 6.10708 0.166504 12.875V22.125C0.166504 28.9392 5.68567 34.4583 12.4998 34.4583C19.314 34.4583 24.8332 28.9392 24.8332 22.125V12.875ZM21.7498 12.875H14.0415V3.87167C18.3736 4.59625 21.6882 8.3425 21.7498 12.875ZM10.9582 3.87167V12.875H3.24984C3.3115 8.3425 6.62609 4.59625 10.9582 3.87167ZM21.7498 22.125C21.7498 27.2279 17.6028 31.375 12.4998 31.375C7.39692 31.375 3.24984 27.2279 3.24984 22.125V15.9583H21.7498V22.125Z" fill="white"/>
</svg>
