<svg width="49" height="45" viewBox="0 0 49 45" fill="none" xmlns="http://www.w3.org/2000/svg">
<path d="M10.1118 33.7348C12.9219 31.1752 12.6748 29.0767 15.3229 27.6697C17.9737 26.3581 21.0308 25.9925 23.8834 25.0572C29.9684 23.0832 35.3894 17.6805 42.1624 20.089C50.1943 22.9427 51.2886 31.8085 44.7095 36.8587C38.2261 41.9037 28.2393 45.0329 20.0852 44.8607C16.6297 44.76 12.1038 43.9201 9.72928 41.1114C7.94176 38.7638 7.48492 35.9075 10.1118 33.7348Z" fill="#1F445F"/>
<circle cx="33.0601" cy="11.8072" r="6.49398" fill="#1F445F"/>
<ellipse cx="24.5" cy="2.65663" rx="2.65663" ry="2.65663" fill="#1F445F"/>
<path fill-rule="evenodd" clip-rule="evenodd" d="M43.69 3.54224C44.6658 3.54224 45.4576 4.33852 45.4576 5.32004V20.5854C45.4576 20.8615 45.3942 21.133 45.2715 21.3817L43.7329 24.4719C43.5962 24.7508 43.3225 24.8819 43.0571 24.8667H27.1399C26.8144 24.8667 26.5507 24.6013 26.5507 24.2741C26.5507 23.9468 26.8144 23.6815 27.1399 23.6815H42.0738L40.9292 21.3799C40.8075 21.1332 40.744 20.8617 40.744 20.5866V5.32004C40.744 4.33852 41.5357 3.54224 42.5116 3.54224H43.69ZM43.1008 23.096L43.4516 23.8012C43.3528 23.7261 43.2297 23.6815 43.0963 23.6815H42.8093L43.1008 23.096ZM44.2665 20.7115H41.936C41.9463 20.76 41.9626 20.8071 41.9844 20.8513L43.1006 23.0959L44.2174 20.8529C44.2397 20.8078 44.2561 20.7604 44.2665 20.7115ZM44.2797 19.5263H41.9229V5.32006C41.9229 4.99311 42.187 4.72746 42.5121 4.72746H43.6905C44.0156 4.72746 44.2797 4.99311 44.2797 5.32006V19.5263Z" fill="white"/>
<path fill-rule="evenodd" clip-rule="evenodd" d="M37.7018 11.4498V26.1966C37.7018 26.7783 37.2329 27.2499 36.6545 27.2499C36.0761 27.2499 35.6072 26.7783 35.6072 26.1966V11.4498C35.6072 10.8678 35.139 10.3965 34.56 10.3965H7.33068C6.75167 10.3965 6.2834 10.8678 6.2834 11.4498V29.3564H16.8219H25.2001H31.4188V14.5934H10.4731V26.1043C10.4731 26.6861 10.0043 27.1577 9.42587 27.1577C8.84747 27.1577 8.37859 26.6861 8.37859 26.1043V13.9614C8.37859 13.1457 9.03606 12.4867 9.84478 12.4867H32.0471C32.8558 12.4867 33.5133 13.1457 33.5133 13.9614V29.3564H39.7967C40.9531 29.3564 41.8912 30.2999 41.8912 31.4631V33.5698C41.8912 35.8974 40.0154 37.7832 37.7021 37.7832H4.18912C1.87581 37.7832 0 35.8974 0 33.5698V31.4631C0 30.2999 0.938065 29.3564 2.09456 29.3564H4.18884V11.4498C4.18884 9.70462 5.59455 8.28979 7.33068 8.28979H34.56C36.2961 8.28979 37.7018 9.70462 37.7018 11.4498ZM16.8219 31.4633V32.5165C16.8219 33.0979 17.291 33.5698 17.8691 33.5698H24.1528C24.7309 33.5698 25.2001 33.0979 25.2001 32.5165V31.4633H39.7966V33.57C39.7966 34.7339 38.8588 35.6767 37.702 35.6767H4.18908C3.03235 35.6767 2.09452 34.7339 2.09452 33.57V31.4633H4.18884V32.5166C4.18884 33.0984 4.65772 33.57 5.23612 33.57C5.81451 33.57 6.2834 33.0984 6.2834 32.5166V31.4633H16.8219Z" fill="white"/>
</svg>
