<svg width="50" height="49" viewBox="0 0 50 49" fill="none" xmlns="http://www.w3.org/2000/svg">
<path d="M11.6509 37.3424C14.422 34.8183 14.1784 32.7489 16.7898 31.3614C19.4038 30.068 22.4186 29.7074 25.2316 28.7851C31.2323 26.8384 36.5782 21.5107 43.2572 23.8858C51.1778 26.6999 52.2569 35.4428 45.7691 40.4231C39.3755 45.3981 29.5272 48.484 21.4861 48.3141C18.0785 48.2148 13.6153 47.3865 11.2737 44.6168C9.51093 42.3018 9.06043 39.485 11.6509 37.3424Z" fill="#1F445F"/>
<circle cx="34.2812" cy="15.7187" r="6.40397" fill="#1F445F"/>
<circle cx="25.8397" cy="6.695" r="2.6198" fill="#1F445F"/>
<path d="M20.6206 0.0346495C23.0436 0.0346495 25.4499 -0.0585438 27.8581 0.0607435C30.0351 0.168848 32.0034 1.03182 33.7424 2.36448C34.6693 3.07314 35.4973 3.90244 36.2046 4.83037C36.8923 5.72875 37.3565 6.75015 37.8187 7.76782C37.9548 8.06604 38.0815 8.19278 38.389 8.21701C38.6966 8.24124 38.9594 8.35867 39.2427 8.36239C40.4747 8.36239 40.868 9.25146 41.0134 10.2263C41.2278 11.5887 41.2781 12.9699 40.6649 14.2802C40.6193 14.415 40.5387 14.5353 40.4312 14.6287C40.3238 14.722 40.1934 14.7851 40.0535 14.8114C39.4291 14.9362 38.678 14.9754 38.2343 15.3537C37.7907 15.7321 37.7591 16.4721 37.4888 17.0312C35.6249 20.882 32.6222 23.2323 28.4079 23.9387C26.613 24.2388 24.7957 24.0151 22.9915 24.0654C22.2012 24.0859 21.4109 24.0654 20.6169 24.0654C20.4927 23.9232 20.4263 23.7397 20.4305 23.551C20.4118 22.3898 20.4007 21.2268 20.4305 20.0637C20.4324 19.9174 20.4785 19.7751 20.5628 19.6555C20.8144 19.4431 21.1127 19.4915 21.3978 19.4915H26.5645C26.8331 19.5124 27.1032 19.493 27.366 19.4337C28.9569 19.265 30.4498 18.5834 31.6192 17.4916C32.7886 16.3999 33.5711 14.9573 33.8486 13.3818C34.5569 8.97933 31.776 5.39512 27.681 4.66635C27.3722 4.62538 27.0603 4.61228 26.7491 4.62721C22.7516 4.62721 18.7592 4.62348 14.7717 4.61603C14.4623 4.61603 14.0522 4.80241 13.8584 4.3439C14.1082 4.07551 14.4287 4.13142 14.7326 4.12956C16.2665 4.12024 17.8024 4.12956 19.3382 4.12956C20.4118 4.12956 20.4118 4.12956 20.4118 3.07648V0.873388C20.4342 0.57517 20.4137 0.276952 20.6206 0.0346495Z" fill="white"/>
<path d="M20.6297 19.6666V24.0541C18.5477 24.0541 16.4658 24.1007 14.382 24.0541C11.44 24.016 8.61887 22.8784 6.47348 20.865C5.84162 20.2854 5.22468 19.6871 4.80717 18.9788C4.1138 17.7915 3.31606 16.634 3.00293 15.2511C2.53695 14.5614 2.5034 13.76 2.46239 12.9771C2.39529 11.6221 2.42139 10.2671 2.8184 8.95306C2.8819 8.70998 2.90209 8.45761 2.87805 8.20752C3.6236 8.08264 3.6236 7.38182 3.82117 6.88976C4.25954 5.83534 4.89176 4.87248 5.68506 4.0511C6.87684 2.71794 8.34314 1.6586 9.98318 0.9459C11.2525 0.372716 12.6259 0.0663051 14.0185 0.0456543H20.6409C20.6409 1.2814 20.6148 2.51714 20.6409 3.75102C20.6521 4.23562 20.488 4.34931 20.0314 4.34372C18.2011 4.31949 16.3707 4.32881 14.5404 4.33441C14.3186 4.33441 14.08 4.26358 13.8806 4.43692C13.6942 4.68854 13.4183 4.68854 13.1592 4.74818C9.75206 5.49373 7.46321 8.12923 7.18549 11.6352C7.13699 12.5149 7.2637 13.3955 7.55827 14.2259C8.02718 15.759 8.97781 17.1001 10.2691 18.0503C11.5604 19.0004 13.1236 19.5091 14.7268 19.5007C16.0632 19.5007 16.0911 19.5435 16.0427 20.8706C16.0315 21.1614 15.8116 21.5677 16.1806 21.7168C16.4807 21.8435 16.6596 21.454 16.8628 21.262C17.271 20.8743 17.6568 20.4643 18.0575 20.0691C18.6838 19.4373 19.7854 19.2714 20.6297 19.6666Z" fill="white"/>
<path d="M13.6366 26.9562C14.7046 26.5256 15.8322 26.3579 16.9599 26.2106C18.6256 25.9678 20.3112 25.8885 21.9924 25.9739C23.9327 26.1007 25.8916 26.2628 27.7201 26.9581C30.0555 27.849 31.7591 29.5432 32.98 31.7146C33.8784 33.3138 34.7227 34.9429 35.0601 36.7769C35.075 36.816 35.088 36.857 35.0992 36.8962C35.1644 38.0145 35.2968 38.596 33.7386 38.2866C32.2525 37.993 30.8257 37.4538 29.5169 36.6912C29.1944 36.5048 29.1441 36.6222 29.0565 36.8776C28.5626 38.2922 27.8543 39.5746 26.749 40.6053C25.0212 42.2138 23.0212 43.1532 20.6261 43.0581C20.3764 42.7525 20.4397 42.3834 20.4397 42.033C20.4397 38.0493 20.4397 34.0656 20.4397 30.0819V29.327C20.3931 28.3951 19.9719 27.944 19.0344 27.9198C17.6812 27.8844 16.328 27.9198 14.9748 27.9086C14.6628 27.9301 14.3494 27.9094 14.0429 27.8471C13.5452 27.7111 13.4502 27.4837 13.6366 26.9562Z" fill="white"/>
<path d="M13.6366 26.9563C13.5378 27.5639 13.8603 27.7223 14.3822 27.7112C15.8733 27.7 17.3812 27.7112 18.8723 27.7112C20.1211 27.7112 20.6206 28.1939 20.6206 29.4371V43.0545C19.3612 43.1674 18.0957 42.9205 16.9711 42.3425C15.4539 41.5615 14.0672 40.5141 13.1501 38.9764C12.8146 38.4172 12.4549 37.8841 12.3766 37.2001C12.3598 37.0664 12.3024 36.9411 12.212 36.8411C12.1217 36.741 12.0028 36.6712 11.8715 36.6409C11.5975 35.0417 11.3291 33.4426 11.0383 31.7818C10.0113 33.3251 9.93305 34.9746 10.1437 36.6782C10.1754 36.9205 10.3207 37.1591 10.1437 37.3977C9.21173 37.9177 8.16795 38.1115 7.16145 38.3874C6.48858 38.5738 6.209 38.2327 6.13072 37.5319C6.01889 36.5179 6.4774 35.655 6.78867 34.764C7.02693 34.0306 7.31976 33.3159 7.6647 32.6262C7.98818 31.9938 8.36217 31.3886 8.78303 30.8164C10.0002 29.2134 11.4596 27.8565 13.3402 27.0439C13.437 27.0081 13.536 26.9789 13.6366 26.9563Z" fill="white"/>
<path d="M2.8785 8.19482C3.18604 8.24888 3.15435 8.45577 3.08352 8.66825C2.64178 10.0307 2.60636 11.4342 2.62873 12.8545C2.64364 13.6727 2.91204 14.4406 3.00151 15.244C2.34169 15.0949 1.67629 14.9681 1.01647 14.8078C0.934687 14.7913 0.858015 14.7555 0.792801 14.7034C0.726967 14.651 0.675106 14.5832 0.641826 14.5059C-0.206244 12.683 -0.200656 10.8583 0.580315 9.01306C0.609853 8.91462 0.664326 8.82548 0.738457 8.75429C0.812587 8.6831 0.903865 8.63227 1.00342 8.60674C1.62969 8.46322 2.25409 8.33089 2.8785 8.19482Z" fill="white"/>
<path d="M10.1387 37.3938C9.73424 36.1711 9.85166 34.9316 10.0138 33.6884C10.1163 32.8814 10.655 32.2588 10.9066 31.5152C10.9163 31.4737 10.9417 31.4376 10.9774 31.4145C10.9946 31.4024 11.0139 31.3938 11.0344 31.3894C11.0549 31.3849 11.0761 31.3846 11.0967 31.3884C11.2216 31.4071 11.2477 31.5152 11.257 31.6195C11.3987 33.1721 11.7565 34.6875 11.9914 36.2233C11.9803 36.3666 11.9417 36.5065 11.8777 36.6352C11.326 36.9478 10.7432 37.2021 10.1387 37.3938Z" fill="white"/>
<path d="M7.40778 14.2393C6.53361 11.4733 7.1692 9.02045 9.04055 6.88073C10.3136 5.42319 11.978 4.67392 13.8736 4.42416H26.6003C28.3856 4.40724 30.1178 5.03157 31.4818 6.18365C32.8512 7.34051 33.7648 8.94645 34.0595 10.7147C34.6895 14.3884 32.7548 17.7359 29.3998 19.1021C28.809 19.3444 28.1939 19.5625 27.5359 19.5364C26.358 19.6519 25.1781 19.5662 23.9945 19.5848C23.0402 19.6016 22.0859 19.5848 21.1316 19.5942C20.7588 19.5942 20.5072 19.4823 20.4792 19.0909C20.4762 18.586 20.284 18.1005 19.9406 17.7303C19.8633 17.6582 19.8122 17.5625 19.7952 17.4582C19.7771 17.3535 19.7948 17.2458 19.8455 17.1525C20.0804 16.912 20.3879 16.9941 20.6712 16.9661C21.7262 16.8468 22.5146 16.3473 22.947 15.3483C23.0645 15.078 23.1651 14.7891 22.947 14.517C22.4028 14.297 21.838 14.4518 21.2844 14.4201C20.578 14.3791 20.4494 14.2821 20.4438 13.559C20.4308 11.5721 20.4438 9.5852 20.4438 7.59459C20.4438 6.81364 20.427 6.76145 19.6703 6.68689C18.3637 6.55923 17.0478 6.55923 15.7412 6.68689C14.7124 6.78754 13.676 6.70367 12.6472 6.97579C11.2474 7.34857 10.0247 8.03819 9.16729 9.13787C8.64882 9.78325 8.2107 10.4892 7.86257 11.2403C7.55724 12.0031 7.47577 12.8372 7.62772 13.6447C7.66686 13.8833 7.76565 14.1461 7.40778 14.2393Z" fill="white"/>
<path d="M7.4079 14.2391C7.46573 14.1958 7.50923 14.136 7.53278 14.0677C7.55376 13.9978 7.55376 13.9232 7.53278 13.8533C7.36462 13.3155 7.31503 12.7477 7.3874 12.1889C7.45689 11.6306 7.64774 11.0943 7.94657 10.6177C8.22056 10.1685 8.57842 9.82738 8.75362 9.26263C8.85439 9.00226 9.01237 8.76785 9.21588 8.57672C9.41992 8.38664 9.66473 8.24574 9.9316 8.16481C10.0745 8.12915 10.204 8.05275 10.3044 7.94487C11.1599 6.94771 12.4031 6.73336 13.5531 6.62153C15.4727 6.42783 17.4036 6.37177 19.3312 6.45378C19.6592 6.46869 19.9854 6.54698 20.3135 6.57866C20.7142 6.61407 20.6136 6.91602 20.6136 7.13782C20.6136 9.18807 20.6136 11.2383 20.6136 13.2886C20.6136 14.3752 20.4887 14.2205 21.5921 14.2541C22.1419 14.2746 22.7104 14.0975 23.2379 14.364C22.9975 14.5896 22.6955 14.5504 22.4085 14.5504H18.7478C18.101 14.5504 18.0022 14.7051 18.2483 15.3053C18.4952 15.9104 18.9536 16.4052 19.5381 16.6976C19.7245 16.802 19.9836 16.8467 20.0469 17.1151C19.7096 17.3816 19.9798 17.5699 20.155 17.7115C20.3387 17.8485 20.4807 18.0338 20.5653 18.2467C20.6498 18.4596 20.6737 18.6918 20.6341 18.9174C20.5726 19.3871 20.8037 19.5325 21.2529 19.5307C23.346 19.5195 25.441 19.5307 27.536 19.5307C27.2863 19.6872 27.0123 19.6369 26.7458 19.6388C24.7091 19.6487 22.6719 19.6555 20.6341 19.6593L20.5092 19.6369C18.7143 19.1672 17.8159 20.4738 16.7963 21.538C16.7365 21.6234 16.6691 21.7032 16.595 21.7766C16.4347 21.8903 16.3043 22.1102 16.0564 21.9984C15.8085 21.8866 15.8159 21.676 15.8159 21.4635C15.8159 21.0217 15.801 20.5819 15.8383 20.1439C15.8755 19.7059 15.7395 19.5996 15.3182 19.6201C13.7768 19.6928 12.2932 19.4449 10.9344 18.6565C9.17859 17.6519 7.95588 16.226 7.4079 14.2391Z" fill="white"/>
<path d="M20.0415 17.1206C18.9641 16.7478 18.1776 16.0768 17.9185 14.9007C17.8346 14.528 17.885 14.3416 18.3491 14.3528C19.9837 14.3826 21.6183 14.3677 23.2529 14.3677C23.2715 14.7142 23.2207 15.061 23.1036 15.3877C22.9865 15.7143 22.8054 16.0144 22.5709 16.2702C22.3364 16.526 22.0532 16.7325 21.738 16.8776C21.4227 17.0226 21.0817 17.1034 20.7348 17.115C20.4962 17.1225 20.2689 17.1187 20.0415 17.1206Z" fill="white"/>
</svg>
