<svg width="29" height="78" viewBox="0 0 29 78" fill="none" xmlns="http://www.w3.org/2000/svg">
<path d="M4.76081 1.72569C5.10954 1.72569 5.39223 1.33937 5.39223 0.862836C5.39223 0.386304 5.10954 0 4.76081 0C4.41209 0 4.12939 0.386304 4.12939 0.862836C4.12939 1.33937 4.41209 1.72569 4.76081 1.72569Z" fill="white" fill-opacity="0.5"/>
<path d="M10.4498 1.72569C10.7985 1.72569 11.0812 1.33937 11.0812 0.862836C11.0812 0.386304 10.7985 0 10.4498 0C10.1011 0 9.81836 0.386304 9.81836 0.862836C9.81836 1.33937 10.1011 1.72569 10.4498 1.72569Z" fill="white" fill-opacity="0.5"/>
<path d="M16.1383 1.72569C16.487 1.72569 16.7697 1.33937 16.7697 0.862836C16.7697 0.386304 16.487 0 16.1383 0C15.7895 0 15.5068 0.386304 15.5068 0.862836C15.5068 1.33937 15.7895 1.72569 16.1383 1.72569Z" fill="white" fill-opacity="0.5"/>
<path d="M21.827 1.72569C22.1757 1.72569 22.4584 1.33937 22.4584 0.862836C22.4584 0.386304 22.1757 0 21.827 0C21.4783 0 21.1956 0.386304 21.1956 0.862836C21.1956 1.33937 21.4783 1.72569 21.827 1.72569Z" fill="white" fill-opacity="0.5"/>
<path d="M27.5158 1.72569C27.8645 1.72569 28.1473 1.33937 28.1473 0.862836C28.1473 0.386304 27.8645 0 27.5158 0C27.1671 0 26.8844 0.386304 26.8844 0.862836C26.8844 1.33937 27.1671 1.72569 27.5158 1.72569Z" fill="white" fill-opacity="0.5"/>
<path d="M4.76081 8.63633C5.10954 8.63633 5.39223 8.25002 5.39223 7.77349C5.39223 7.29695 5.10954 6.91064 4.76081 6.91064C4.41209 6.91064 4.12939 7.29695 4.12939 7.77349C4.12939 8.25002 4.41209 8.63633 4.76081 8.63633Z" fill="white" fill-opacity="0.5"/>
<path d="M10.4498 8.63633C10.7985 8.63633 11.0812 8.25002 11.0812 7.77349C11.0812 7.29695 10.7985 6.91064 10.4498 6.91064C10.1011 6.91064 9.81836 7.29695 9.81836 7.77349C9.81836 8.25002 10.1011 8.63633 10.4498 8.63633Z" fill="white" fill-opacity="0.5"/>
<path d="M16.1383 8.63633C16.487 8.63633 16.7697 8.25002 16.7697 7.77349C16.7697 7.29695 16.487 6.91064 16.1383 6.91064C15.7895 6.91064 15.5068 7.29695 15.5068 7.77349C15.5068 8.25002 15.7895 8.63633 16.1383 8.63633Z" fill="white" fill-opacity="0.5"/>
<path d="M21.827 8.63633C22.1757 8.63633 22.4584 8.25002 22.4584 7.77349C22.4584 7.29695 22.1757 6.91064 21.827 6.91064C21.4783 6.91064 21.1956 7.29695 21.1956 7.77349C21.1956 8.25002 21.4783 8.63633 21.827 8.63633Z" fill="white" fill-opacity="0.5"/>
<path d="M27.5158 8.63633C27.8645 8.63633 28.1473 8.25002 28.1473 7.77349C28.1473 7.29695 27.8645 6.91064 27.5158 6.91064C27.1671 6.91064 26.8844 7.29695 26.8844 7.77349C26.8844 8.25002 27.1671 8.63633 27.5158 8.63633Z" fill="white" fill-opacity="0.5"/>
<path d="M4.76081 15.543C5.10954 15.543 5.39223 15.1567 5.39223 14.6802C5.39223 14.2037 5.10954 13.8174 4.76081 13.8174C4.41209 13.8174 4.12939 14.2037 4.12939 14.6802C4.12939 15.1567 4.41209 15.543 4.76081 15.543Z" fill="white" fill-opacity="0.5"/>
<path d="M10.4498 15.543C10.7985 15.543 11.0812 15.1567 11.0812 14.6802C11.0812 14.2037 10.7985 13.8174 10.4498 13.8174C10.1011 13.8174 9.81836 14.2037 9.81836 14.6802C9.81836 15.1567 10.1011 15.543 10.4498 15.543Z" fill="white" fill-opacity="0.5"/>
<path d="M16.1383 15.543C16.487 15.543 16.7697 15.1567 16.7697 14.6802C16.7697 14.2037 16.487 13.8174 16.1383 13.8174C15.7895 13.8174 15.5068 14.2037 15.5068 14.6802C15.5068 15.1567 15.7895 15.543 16.1383 15.543Z" fill="white" fill-opacity="0.5"/>
<path d="M21.827 15.543C22.1757 15.543 22.4584 15.1567 22.4584 14.6802C22.4584 14.2037 22.1757 13.8174 21.827 13.8174C21.4783 13.8174 21.1956 14.2037 21.1956 14.6802C21.1956 15.1567 21.4783 15.543 21.827 15.543Z" fill="white" fill-opacity="0.5"/>
<path d="M27.5158 15.543C27.8645 15.543 28.1473 15.1567 28.1473 14.6802C28.1473 14.2037 27.8645 13.8174 27.5158 13.8174C27.1671 13.8174 26.8844 14.2037 26.8844 14.6802C26.8844 15.1567 27.1671 15.543 27.5158 15.543Z" fill="white" fill-opacity="0.5"/>
<path d="M5.39223 21.5908C5.39223 22.067 5.10928 22.4536 4.76081 22.4536C4.41234 22.4536 4.12939 22.067 4.12939 21.5908C4.12939 21.1147 4.41234 20.728 4.76081 20.728C5.10928 20.728 5.39223 21.1147 5.39223 21.5908Z" fill="white" fill-opacity="0.5"/>
<path d="M11.0812 21.5908C11.0812 22.067 10.7982 22.4536 10.4498 22.4536C10.1013 22.4536 9.81836 22.067 9.81836 21.5908C9.81836 21.1147 10.1013 20.728 10.4498 20.728C10.7982 20.728 11.0812 21.1147 11.0812 21.5908Z" fill="white" fill-opacity="0.5"/>
<path d="M16.7697 21.5908C16.7697 22.067 16.4867 22.4536 16.1383 22.4536C15.7898 22.4536 15.5068 22.067 15.5068 21.5908C15.5068 21.1147 15.7898 20.728 16.1383 20.728C16.4867 20.728 16.7697 21.1147 16.7697 21.5908Z" fill="white" fill-opacity="0.5"/>
<path d="M22.4584 21.5908C22.4584 22.067 22.1754 22.4536 21.827 22.4536C21.4785 22.4536 21.1956 22.067 21.1956 21.5908C21.1956 21.1147 21.4785 20.728 21.827 20.728C22.1754 20.728 22.4584 21.1147 22.4584 21.5908Z" fill="white" fill-opacity="0.5"/>
<path d="M28.1473 21.5908C28.1473 22.067 27.8643 22.4536 27.5158 22.4536C27.1673 22.4536 26.8844 22.067 26.8844 21.5908C26.8844 21.1147 27.1673 20.728 27.5158 20.728C27.8643 20.728 28.1473 21.1147 28.1473 21.5908Z" fill="white" fill-opacity="0.5"/>
<path d="M5.39223 28.5015C5.39223 28.9777 5.10928 29.3644 4.76081 29.3644C4.41234 29.3644 4.12939 28.9777 4.12939 28.5015C4.12939 28.0253 4.41234 27.6387 4.76081 27.6387C5.10928 27.6346 5.39223 28.0213 5.39223 28.5015Z" fill="white" fill-opacity="0.5"/>
<path d="M11.0812 28.5015C11.0812 28.9777 10.7982 29.3644 10.4498 29.3644C10.1013 29.3644 9.81836 28.9777 9.81836 28.5015C9.81836 28.0253 10.1013 27.6387 10.4498 27.6387C10.7982 27.6387 11.0812 28.0213 11.0812 28.5015Z" fill="white" fill-opacity="0.5"/>
<path d="M16.7697 28.5015C16.7697 28.9777 16.4867 29.3644 16.1383 29.3644C15.7898 29.3644 15.5068 28.9777 15.5068 28.5015C15.5068 28.0253 15.7898 27.6387 16.1383 27.6387C16.4867 27.6346 16.7697 28.0213 16.7697 28.5015Z" fill="white" fill-opacity="0.5"/>
<path d="M22.4584 28.5015C22.4584 28.9777 22.1754 29.3644 21.827 29.3644C21.4785 29.3644 21.1956 28.9777 21.1956 28.5015C21.1956 28.0253 21.4785 27.6387 21.827 27.6387C22.1754 27.6346 22.4584 28.0213 22.4584 28.5015Z" fill="white" fill-opacity="0.5"/>
<path d="M28.1473 28.5015C28.1473 28.9777 27.8643 29.3644 27.5158 29.3644C27.1673 29.3644 26.8844 28.9777 26.8844 28.5015C26.8844 28.0253 27.1673 27.6387 27.5158 27.6387C27.8643 27.6346 28.1473 28.0213 28.1473 28.5015Z" fill="white" fill-opacity="0.5"/>
<path d="M4.76081 36.2709C5.10954 36.2709 5.39223 35.8846 5.39223 35.4081C5.39223 34.9316 5.10954 34.5453 4.76081 34.5453C4.41209 34.5453 4.12939 34.9316 4.12939 35.4081C4.12939 35.8846 4.41209 36.2709 4.76081 36.2709Z" fill="white" fill-opacity="0.5"/>
<path d="M10.4498 36.2709C10.7985 36.2709 11.0812 35.8846 11.0812 35.4081C11.0812 34.9316 10.7985 34.5453 10.4498 34.5453C10.1011 34.5453 9.81836 34.9316 9.81836 35.4081C9.81836 35.8846 10.1011 36.2709 10.4498 36.2709Z" fill="white" fill-opacity="0.5"/>
<path d="M16.1383 36.2709C16.487 36.2709 16.7697 35.8846 16.7697 35.4081C16.7697 34.9316 16.487 34.5453 16.1383 34.5453C15.7895 34.5453 15.5068 34.9316 15.5068 35.4081C15.5068 35.8846 15.7895 36.2709 16.1383 36.2709Z" fill="white" fill-opacity="0.5"/>
<path d="M21.827 36.2709C22.1757 36.2709 22.4584 35.8846 22.4584 35.4081C22.4584 34.9316 22.1757 34.5453 21.827 34.5453C21.4783 34.5453 21.1956 34.9316 21.1956 35.4081C21.1956 35.8846 21.4783 36.2709 21.827 36.2709Z" fill="white" fill-opacity="0.5"/>
<path d="M27.5158 36.2709C27.8645 36.2709 28.1473 35.8846 28.1473 35.4081C28.1473 34.9316 27.8645 34.5453 27.5158 34.5453C27.1671 34.5453 26.8844 34.9316 26.8844 35.4081C26.8844 35.8846 27.1671 36.2709 27.5158 36.2709Z" fill="white" fill-opacity="0.5"/>
<path d="M4.76081 43.1817C5.10954 43.1817 5.39223 42.7954 5.39223 42.3189C5.39223 41.8423 5.10954 41.4561 4.76081 41.4561C4.41209 41.4561 4.12939 41.8423 4.12939 42.3189C4.12939 42.7954 4.41209 43.1817 4.76081 43.1817Z" fill="white" fill-opacity="0.5"/>
<path d="M10.4498 43.1817C10.7985 43.1817 11.0812 42.7954 11.0812 42.3189C11.0812 41.8423 10.7985 41.4561 10.4498 41.4561C10.1011 41.4561 9.81836 41.8423 9.81836 42.3189C9.81836 42.7954 10.1011 43.1817 10.4498 43.1817Z" fill="white" fill-opacity="0.5"/>
<path d="M16.1383 43.1817C16.487 43.1817 16.7697 42.7954 16.7697 42.3189C16.7697 41.8423 16.487 41.4561 16.1383 41.4561C15.7895 41.4561 15.5068 41.8423 15.5068 42.3189C15.5068 42.7954 15.7895 43.1817 16.1383 43.1817Z" fill="white" fill-opacity="0.5"/>
<path d="M21.827 43.1817C22.1757 43.1817 22.4584 42.7954 22.4584 42.3189C22.4584 41.8423 22.1757 41.4561 21.827 41.4561C21.4783 41.4561 21.1956 41.8423 21.1956 42.3189C21.1956 42.7954 21.4783 43.1817 21.827 43.1817Z" fill="white" fill-opacity="0.5"/>
<path d="M27.5158 43.1817C27.8645 43.1817 28.1473 42.7954 28.1473 42.3189C28.1473 41.8423 27.8645 41.4561 27.5158 41.4561C27.1671 41.4561 26.8844 41.8423 26.8844 42.3189C26.8844 42.7954 27.1671 43.1817 27.5158 43.1817Z" fill="white" fill-opacity="0.5"/>
<path d="M5.39223 49.2295C5.39223 49.7057 5.10928 50.0923 4.76081 50.0923C4.41234 50.0923 4.12939 49.7057 4.12939 49.2295C4.12939 48.7534 4.41234 48.3667 4.76081 48.3667C5.10928 48.3627 5.39223 48.7493 5.39223 49.2295Z" fill="white" fill-opacity="0.5"/>
<path d="M11.0812 49.2295C11.0812 49.7057 10.7982 50.0923 10.4498 50.0923C10.1013 50.0923 9.81836 49.7057 9.81836 49.2295C9.81836 48.7533 10.1013 48.3667 10.4498 48.3667C10.7982 48.3667 11.0812 48.7493 11.0812 49.2295Z" fill="white" fill-opacity="0.5"/>
<path d="M16.7697 49.2295C16.7697 49.7057 16.4867 50.0923 16.1383 50.0923C15.7898 50.0923 15.5068 49.7057 15.5068 49.2295C15.5068 48.7534 15.7898 48.3667 16.1383 48.3667C16.4867 48.3627 16.7697 48.7493 16.7697 49.2295Z" fill="white" fill-opacity="0.5"/>
<path d="M22.4584 49.2295C22.4584 49.7057 22.1754 50.0923 21.827 50.0923C21.4785 50.0923 21.1956 49.7057 21.1956 49.2295C21.1956 48.7534 21.4785 48.3667 21.827 48.3667C22.1754 48.3627 22.4584 48.7493 22.4584 49.2295Z" fill="white" fill-opacity="0.5"/>
<path d="M28.1473 49.2295C28.1473 49.7057 27.8643 50.0923 27.5158 50.0923C27.1673 50.0923 26.8844 49.7057 26.8844 49.2295C26.8844 48.7534 27.1673 48.3667 27.5158 48.3667C27.8643 48.3627 28.1473 48.7493 28.1473 49.2295Z" fill="white" fill-opacity="0.5"/>
<path d="M5.39223 56.1362C5.39223 56.6124 5.10928 56.999 4.76081 56.999C4.41234 56.999 4.12939 56.6124 4.12939 56.1362C4.12939 55.66 4.41234 55.2733 4.76081 55.2733C5.10928 55.2733 5.39223 55.66 5.39223 56.1362Z" fill="white" fill-opacity="0.5"/>
<path d="M11.0812 56.1362C11.0812 56.6124 10.7982 56.999 10.4498 56.999C10.1013 56.999 9.81836 56.6124 9.81836 56.1362C9.81836 55.66 10.1013 55.2733 10.4498 55.2733C10.7982 55.2733 11.0812 55.66 11.0812 56.1362Z" fill="white" fill-opacity="0.5"/>
<path d="M16.7697 56.1362C16.7697 56.6124 16.4867 56.999 16.1383 56.999C15.7898 56.999 15.5068 56.6124 15.5068 56.1362C15.5068 55.66 15.7898 55.2733 16.1383 55.2733C16.4867 55.2733 16.7697 55.66 16.7697 56.1362Z" fill="white" fill-opacity="0.5"/>
<path d="M22.4584 56.1362C22.4584 56.6124 22.1754 56.999 21.827 56.999C21.4785 56.999 21.1956 56.6124 21.1956 56.1362C21.1956 55.66 21.4785 55.2733 21.827 55.2733C22.1754 55.2733 22.4584 55.66 22.4584 56.1362Z" fill="white" fill-opacity="0.5"/>
<path d="M28.1473 56.1362C28.1473 56.6124 27.8643 56.999 27.5158 56.999C27.1673 56.999 26.8844 56.6124 26.8844 56.1362C26.8844 55.66 27.1673 55.2733 27.5158 55.2733C27.8643 55.2733 28.1473 55.66 28.1473 56.1362Z" fill="white" fill-opacity="0.5"/>
<path d="M4.76081 63.9095C5.10954 63.9095 5.39223 63.5232 5.39223 63.0467C5.39223 62.5702 5.10954 62.184 4.76081 62.184C4.41209 62.184 4.12939 62.5702 4.12939 63.0467C4.12939 63.5232 4.41209 63.9095 4.76081 63.9095Z" fill="white" fill-opacity="0.5"/>
<path d="M10.4498 63.9095C10.7985 63.9095 11.0812 63.5232 11.0812 63.0467C11.0812 62.5702 10.7985 62.184 10.4498 62.184C10.1011 62.184 9.81836 62.5702 9.81836 63.0467C9.81836 63.5232 10.1011 63.9095 10.4498 63.9095Z" fill="white" fill-opacity="0.5"/>
<path d="M16.1383 63.9095C16.487 63.9095 16.7697 63.5232 16.7697 63.0467C16.7697 62.5702 16.487 62.184 16.1383 62.184C15.7895 62.184 15.5068 62.5702 15.5068 63.0467C15.5068 63.5232 15.7895 63.9095 16.1383 63.9095Z" fill="white" fill-opacity="0.5"/>
<path d="M21.827 63.9095C22.1757 63.9095 22.4584 63.5232 22.4584 63.0467C22.4584 62.5702 22.1757 62.184 21.827 62.184C21.4783 62.184 21.1956 62.5702 21.1956 63.0467C21.1956 63.5232 21.4783 63.9095 21.827 63.9095Z" fill="white" fill-opacity="0.5"/>
<path d="M27.5158 63.9095C27.8645 63.9095 28.1473 63.5232 28.1473 63.0467C28.1473 62.5702 27.8645 62.184 27.5158 62.184C27.1671 62.184 26.8844 62.5702 26.8844 63.0467C26.8844 63.5232 27.1671 63.9095 27.5158 63.9095Z" fill="white" fill-opacity="0.5"/>
<path d="M4.76081 70.8202C5.10954 70.8202 5.39223 70.4339 5.39223 69.9574C5.39223 69.4809 5.10954 69.0946 4.76081 69.0946C4.41209 69.0946 4.12939 69.4809 4.12939 69.9574C4.12939 70.4339 4.41209 70.8202 4.76081 70.8202Z" fill="white" fill-opacity="0.5"/>
<path d="M10.4498 70.8202C10.7985 70.8202 11.0812 70.4339 11.0812 69.9574C11.0812 69.4809 10.7985 69.0946 10.4498 69.0946C10.1011 69.0946 9.81836 69.4809 9.81836 69.9574C9.81836 70.4339 10.1011 70.8202 10.4498 70.8202Z" fill="white" fill-opacity="0.5"/>
<path d="M16.1383 70.8202C16.487 70.8202 16.7697 70.4339 16.7697 69.9574C16.7697 69.4809 16.487 69.0946 16.1383 69.0946C15.7895 69.0946 15.5068 69.4809 15.5068 69.9574C15.5068 70.4339 15.7895 70.8202 16.1383 70.8202Z" fill="white" fill-opacity="0.5"/>
<path d="M21.827 70.8202C22.1757 70.8202 22.4584 70.4339 22.4584 69.9574C22.4584 69.4809 22.1757 69.0946 21.827 69.0946C21.4783 69.0946 21.1956 69.4809 21.1956 69.9574C21.1956 70.4339 21.4783 70.8202 21.827 70.8202Z" fill="white" fill-opacity="0.5"/>
<path d="M27.5158 70.8202C27.8645 70.8202 28.1473 70.4339 28.1473 69.9574C28.1473 69.4809 27.8645 69.0946 27.5158 69.0946C27.1671 69.0946 26.8844 69.4809 26.8844 69.9574C26.8844 70.4339 27.1671 70.8202 27.5158 70.8202Z" fill="white" fill-opacity="0.5"/>
<path d="M5.39223 76.864C5.39223 77.3402 5.10928 77.7268 4.76081 77.7268C4.41234 77.7268 4.12939 77.3402 4.12939 76.864C4.12939 76.3879 4.41234 76.0012 4.76081 76.0012C5.10928 76.0012 5.39223 76.3879 5.39223 76.864Z" fill="white" fill-opacity="0.5"/>
<path d="M11.0812 76.864C11.0812 77.3402 10.7982 77.7268 10.4498 77.7268C10.1013 77.7268 9.81836 77.3402 9.81836 76.864C9.81836 76.3879 10.1013 76.0012 10.4498 76.0012C10.7982 76.0012 11.0812 76.3879 11.0812 76.864Z" fill="white" fill-opacity="0.5"/>
<path d="M16.7697 76.864C16.7697 77.3402 16.4867 77.7268 16.1383 77.7268C15.7898 77.7268 15.5068 77.3402 15.5068 76.864C15.5068 76.3879 15.7898 76.0012 16.1383 76.0012C16.4867 76.0012 16.7697 76.3879 16.7697 76.864Z" fill="white" fill-opacity="0.5"/>
<path d="M22.4584 76.864C22.4584 77.3402 22.1754 77.7268 21.827 77.7268C21.4785 77.7268 21.1956 77.3402 21.1956 76.864C21.1956 76.3879 21.4785 76.0012 21.827 76.0012C22.1754 76.0012 22.4584 76.3879 22.4584 76.864Z" fill="white" fill-opacity="0.5"/>
<path d="M28.1473 76.864C28.1473 77.3402 27.8643 77.7268 27.5158 77.7268C27.1673 77.7268 26.8844 77.3402 26.8844 76.864C26.8844 76.3879 27.1673 76.0012 27.5158 76.0012C27.8643 76.0012 28.1473 76.3879 28.1473 76.864Z" fill="white" fill-opacity="0.5"/>
</svg>
