<svg width="43" height="49" viewBox="0 0 43 49" fill="none" xmlns="http://www.w3.org/2000/svg">
<path d="M1.94943 36.2895C4.91579 33.5361 4.65504 31.2787 7.45037 29.7651C10.2485 28.3542 13.4756 27.9609 16.4868 26.9547C22.9102 24.8312 28.6327 19.0194 35.7822 21.6104C44.2607 24.6802 45.4159 34.2173 38.471 39.65C31.6271 45.077 21.085 48.4433 12.4775 48.258C8.82981 48.1497 4.05223 47.2461 1.54569 44.2248C-0.341232 41.6994 -0.823476 38.6268 1.94943 36.2895Z" fill="#1F445F"/>
<ellipse cx="26.1739" cy="12.7013" rx="6.85507" ry="6.98577" fill="#1F445F"/>
<ellipse cx="17.1377" cy="2.85781" rx="2.80435" ry="2.85781" fill="#1F445F"/>
<path fill-rule="evenodd" clip-rule="evenodd" d="M27.9776 6.85864C27.9776 5.17512 26.4955 3.8103 24.665 3.8103H4.76093C2.93369 3.8103 1.44836 5.17621 1.44836 6.85864V41.4064C1.44836 43.0889 2.93369 44.4548 4.76093 44.4548H24.665C26.4955 44.4548 27.9776 43.0899 27.9776 41.4064V37.4027C27.9776 37.3987 27.9777 37.3946 27.9777 37.3906C27.9777 37.3866 27.9776 37.3826 27.9776 37.3785V6.85864ZM25.7701 36.3745V6.85864C25.7701 6.29718 25.2764 5.84253 24.6659 5.84253H4.76179C4.15387 5.84253 3.65761 6.2989 3.65761 6.85864V9.95541H22.4571C23.0669 9.95541 23.5613 10.4103 23.5613 10.9715C23.5613 11.5327 23.0669 11.9876 22.4571 11.9876H3.65761V41.4064C3.65761 41.9662 4.15387 42.4226 4.76179 42.4226H24.6659C25.2764 42.4226 25.7701 41.9679 25.7701 41.4064V38.4067H6.96938C6.35956 38.4067 5.86519 37.9518 5.86519 37.3906C5.86519 36.8294 6.35956 36.3745 6.96938 36.3745H25.7701Z" fill="white"/>
<path d="M23.636 29.0549L33.4427 19.0621L35.4078 21.0646L25.5835 31.0771L23.4379 31.276L23.636 29.0549ZM38.7716 17.6348L37.4807 18.9507L35.5164 16.9485L36.8074 15.6326L38.7716 17.6348ZM36.8483 15.5909C36.8482 15.591 36.848 15.5911 36.8479 15.5913L36.8483 15.5909Z" stroke="white" stroke-width="2"/>
<line x1="7.47827" y1="31.2534" x2="20.5652" y2="31.2534" stroke="white"/>
<path d="M7.10706 30.0813C7.13361 29.3913 7.49702 28.9364 8.02379 28.5338C8.29388 28.3273 8.73391 27.972 9.08868 27.9581C9.84497 27.9285 10.2375 28.3607 10.899 28.68C11.4884 28.9645 12.1069 29.2661 12.7741 29.2321C13.1264 29.2141 13.2653 28.9394 13.5427 28.8263C13.8845 28.687 14.2137 28.4286 14.5243 28.2176C15.5838 27.4978 17.1691 27.6118 18.1079 28.4677C18.8134 29.111 19.5314 29.1471 20.4414 29.1471" stroke="white" stroke-width="0.5" stroke-linecap="round" stroke-linejoin="round"/>
</svg>
