<svg width="49" height="44" viewBox="0 0 49 44" fill="none" xmlns="http://www.w3.org/2000/svg">
<path d="M16.8753 34.8823C19.1619 32.7859 18.9609 31.0672 21.1158 29.9149C23.2727 28.8407 25.7604 28.5412 28.0816 27.7752C33.0332 26.1584 37.4444 21.7336 42.9557 23.7062C49.4914 26.0434 50.3819 33.3046 45.0284 37.4408C39.7526 41.5727 31.6262 44.1356 24.991 43.9946C22.1791 43.9121 18.4963 43.2242 16.5641 40.9239C15.1095 39.0011 14.7378 36.6618 16.8753 34.8823Z" fill="#1F445F"/>
<ellipse cx="35.549" cy="16.9231" rx="5.28431" ry="5.31866" fill="#1F445F"/>
<ellipse cx="28.5834" cy="9.42874" rx="2.16176" ry="2.17581" fill="#1F445F"/>
<mask id="path-4-outside-1" maskUnits="userSpaceOnUse" x="1.62256" y="7.58984" width="33" height="33" fill="black">
<rect fill="white" x="1.62256" y="7.58984" width="33" height="33"/>
<path d="M28.6652 25.0744C28.7213 24.6231 28.7633 24.1718 28.7633 23.6923C28.7633 23.2129 28.7213 22.7616 28.6652 22.3103L31.6216 19.9834C31.8879 19.7718 31.9579 19.3911 31.7898 19.0808L28.9875 14.2014C28.8614 13.9757 28.6232 13.8488 28.371 13.8488C28.2869 13.8488 28.2029 13.8629 28.1328 13.8911L24.644 15.3014C23.9154 14.7373 23.1307 14.2719 22.276 13.9193L21.7436 10.1821C21.7016 9.84369 21.4073 9.58984 21.057 9.58984H15.4525C15.1022 9.58984 14.8079 9.84369 14.7659 10.1821L14.2335 13.9193C13.3788 14.2719 12.5941 14.7514 11.8655 15.3014L8.37669 13.8911C8.29262 13.8629 8.20855 13.8488 8.12448 13.8488C7.88629 13.8488 7.64809 13.9757 7.52199 14.2014L4.7197 19.0808C4.53755 19.3911 4.62162 19.7718 4.88784 19.9834L7.84425 22.3103C7.78821 22.7616 7.74617 23.227 7.74617 23.6923C7.74617 24.1577 7.78821 24.6231 7.84425 25.0744L4.88784 27.4013C4.62162 27.6128 4.55156 27.9936 4.7197 28.3039L7.52199 33.1833C7.64809 33.409 7.88629 33.5359 8.13849 33.5359C8.22256 33.5359 8.30663 33.5218 8.37669 33.4936L11.8655 32.0833C12.5941 32.6474 13.3788 33.1128 14.2335 33.4654L14.7659 37.2025C14.8079 37.541 15.1022 37.7948 15.4525 37.7948H21.057C21.4073 37.7948 21.7016 37.541 21.7436 37.2025L22.276 33.4654C23.1307 33.1128 23.9154 32.6333 24.644 32.0833L28.1328 33.4936C28.2169 33.5218 28.3009 33.5359 28.385 33.5359C28.6232 33.5359 28.8614 33.409 28.9875 33.1833L31.7898 28.3039C31.9579 27.9936 31.8879 27.6128 31.6216 27.4013L28.6652 25.0744ZM25.891 22.6629C25.947 23.1 25.961 23.3962 25.961 23.6923C25.961 23.9885 25.933 24.2988 25.891 24.7218L25.6948 26.3154L26.9418 27.3026L28.4551 28.4872L27.4743 30.1936L25.6948 29.4744L24.2376 28.8821L22.9766 29.841C22.3741 30.2923 21.7996 30.6308 21.2252 30.8705L19.74 31.4769L19.5158 33.0705L19.2355 34.9743H17.2739L17.0077 33.0705L16.7835 31.4769L15.2983 30.8705C14.6958 30.6167 14.1354 30.2923 13.5749 29.8692L12.2999 28.8821L10.8147 29.4885L9.03522 30.2077L8.05442 28.5013L9.56766 27.3167L10.8147 26.3295L10.6185 24.7359C10.5765 24.2988 10.5485 23.9744 10.5485 23.6923C10.5485 23.4103 10.5765 23.0859 10.6185 22.6629L10.8147 21.0693L9.56766 20.0821L8.05442 18.8975L9.03522 17.1911L10.8147 17.9103L12.2719 18.5026L13.5329 17.5437C14.1354 17.0924 14.7099 16.7539 15.2843 16.5142L16.7695 15.9078L16.9937 14.3142L17.2739 12.4103H19.2215L19.4877 14.3142L19.7119 15.9078L21.1971 16.5142C21.7996 16.768 22.3601 17.0924 22.9205 17.5154L24.1956 18.5026L25.6808 17.8962L27.4603 17.177L28.4411 18.8834L26.9418 20.0821L25.6948 21.0693L25.891 22.6629ZM18.2547 18.0513C15.1582 18.0513 12.6502 20.5757 12.6502 23.6923C12.6502 26.809 15.1582 29.3333 18.2547 29.3333C21.3513 29.3333 23.8593 26.809 23.8593 23.6923C23.8593 20.5757 21.3513 18.0513 18.2547 18.0513ZM18.2547 26.5128C16.7135 26.5128 15.4525 25.2436 15.4525 23.6923C15.4525 22.1411 16.7135 20.8718 18.2547 20.8718C19.796 20.8718 21.057 22.1411 21.057 23.6923C21.057 25.2436 19.796 26.5128 18.2547 26.5128Z"/>
</mask>
<path d="M28.6652 25.0744C28.7213 24.6231 28.7633 24.1718 28.7633 23.6923C28.7633 23.2129 28.7213 22.7616 28.6652 22.3103L31.6216 19.9834C31.8879 19.7718 31.9579 19.3911 31.7898 19.0808L28.9875 14.2014C28.8614 13.9757 28.6232 13.8488 28.371 13.8488C28.2869 13.8488 28.2029 13.8629 28.1328 13.8911L24.644 15.3014C23.9154 14.7373 23.1307 14.2719 22.276 13.9193L21.7436 10.1821C21.7016 9.84369 21.4073 9.58984 21.057 9.58984H15.4525C15.1022 9.58984 14.8079 9.84369 14.7659 10.1821L14.2335 13.9193C13.3788 14.2719 12.5941 14.7514 11.8655 15.3014L8.37669 13.8911C8.29262 13.8629 8.20855 13.8488 8.12448 13.8488C7.88629 13.8488 7.64809 13.9757 7.52199 14.2014L4.7197 19.0808C4.53755 19.3911 4.62162 19.7718 4.88784 19.9834L7.84425 22.3103C7.78821 22.7616 7.74617 23.227 7.74617 23.6923C7.74617 24.1577 7.78821 24.6231 7.84425 25.0744L4.88784 27.4013C4.62162 27.6128 4.55156 27.9936 4.7197 28.3039L7.52199 33.1833C7.64809 33.409 7.88629 33.5359 8.13849 33.5359C8.22256 33.5359 8.30663 33.5218 8.37669 33.4936L11.8655 32.0833C12.5941 32.6474 13.3788 33.1128 14.2335 33.4654L14.7659 37.2025C14.8079 37.541 15.1022 37.7948 15.4525 37.7948H21.057C21.4073 37.7948 21.7016 37.541 21.7436 37.2025L22.276 33.4654C23.1307 33.1128 23.9154 32.6333 24.644 32.0833L28.1328 33.4936C28.2169 33.5218 28.3009 33.5359 28.385 33.5359C28.6232 33.5359 28.8614 33.409 28.9875 33.1833L31.7898 28.3039C31.9579 27.9936 31.8879 27.6128 31.6216 27.4013L28.6652 25.0744ZM25.891 22.6629C25.947 23.1 25.961 23.3962 25.961 23.6923C25.961 23.9885 25.933 24.2988 25.891 24.7218L25.6948 26.3154L26.9418 27.3026L28.4551 28.4872L27.4743 30.1936L25.6948 29.4744L24.2376 28.8821L22.9766 29.841C22.3741 30.2923 21.7996 30.6308 21.2252 30.8705L19.74 31.4769L19.5158 33.0705L19.2355 34.9743H17.2739L17.0077 33.0705L16.7835 31.4769L15.2983 30.8705C14.6958 30.6167 14.1354 30.2923 13.5749 29.8692L12.2999 28.8821L10.8147 29.4885L9.03522 30.2077L8.05442 28.5013L9.56766 27.3167L10.8147 26.3295L10.6185 24.7359C10.5765 24.2988 10.5485 23.9744 10.5485 23.6923C10.5485 23.4103 10.5765 23.0859 10.6185 22.6629L10.8147 21.0693L9.56766 20.0821L8.05442 18.8975L9.03522 17.1911L10.8147 17.9103L12.2719 18.5026L13.5329 17.5437C14.1354 17.0924 14.7099 16.7539 15.2843 16.5142L16.7695 15.9078L16.9937 14.3142L17.2739 12.4103H19.2215L19.4877 14.3142L19.7119 15.9078L21.1971 16.5142C21.7996 16.768 22.3601 17.0924 22.9205 17.5154L24.1956 18.5026L25.6808 17.8962L27.4603 17.177L28.4411 18.8834L26.9418 20.0821L25.6948 21.0693L25.891 22.6629ZM18.2547 18.0513C15.1582 18.0513 12.6502 20.5757 12.6502 23.6923C12.6502 26.809 15.1582 29.3333 18.2547 29.3333C21.3513 29.3333 23.8593 26.809 23.8593 23.6923C23.8593 20.5757 21.3513 18.0513 18.2547 18.0513ZM18.2547 26.5128C16.7135 26.5128 15.4525 25.2436 15.4525 23.6923C15.4525 22.1411 16.7135 20.8718 18.2547 20.8718C19.796 20.8718 21.057 22.1411 21.057 23.6923C21.057 25.2436 19.796 26.5128 18.2547 26.5128Z" stroke="white" stroke-width="4" mask="url(#path-4-outside-1)"/>
<path fill-rule="evenodd" clip-rule="evenodd" d="M37.2037 26.9964C37.2037 26.7567 37.4464 26.5398 37.7708 26.5398H43.8958C44.2203 26.5398 44.463 26.7567 44.463 26.9964V28.3659H35.9183C35.1328 28.3659 34.4816 28.971 34.4816 29.7358V31.1063H34.0846C33.3075 31.1063 32.6667 31.7128 32.6667 32.4763V40.696C32.6667 41.4594 33.3075 42.066 34.0846 42.066H47.5822C48.3593 42.066 49.0001 41.4594 49.0001 40.696V32.4763C49.0001 31.7128 48.3593 31.1063 47.5822 31.1063H47.1853V29.7358C47.1853 28.971 46.534 28.3659 45.7485 28.3659H45.3704V26.9964C45.3704 26.2266 44.6991 25.6265 43.8958 25.6265H37.7708C36.9676 25.6265 36.2963 26.2266 36.2963 26.9964C36.2963 27.2486 36.4994 27.4531 36.75 27.4531C37.0006 27.4531 37.2037 27.2486 37.2037 26.9964ZM35.9183 29.2792H44.463V29.7235C44.463 29.9758 44.6661 30.1802 44.9167 30.1802C45.1672 30.1802 45.3704 29.9758 45.3704 29.7235V29.2792H45.7485C46.0483 29.2792 46.2779 29.4924 46.2779 29.7358V31.1063H35.389V29.7358C35.389 29.4924 35.6185 29.2792 35.9183 29.2792ZM35.389 32.0196V32.9507C35.389 33.2029 35.1858 33.4073 34.9353 33.4073C34.6847 33.4073 34.4816 33.2029 34.4816 32.9507V32.0196H34.0845C33.7966 32.0196 33.5741 32.2302 33.5741 32.4763V40.696C33.5741 40.9421 33.7966 41.1527 34.0845 41.1527H47.5822C47.8702 41.1527 48.0926 40.9421 48.0926 40.696V32.4763C48.0926 32.2302 47.8702 32.0196 47.5822 32.0196H35.389ZM43.5555 36.5861V35.6628C43.5555 35.4106 43.7586 35.2061 44.0092 35.2061C44.2597 35.2061 44.4629 35.4106 44.4629 35.6628V36.5861C44.4629 37.1074 44.0084 37.4994 43.4798 37.4994H38.1866C37.6581 37.4994 37.2036 37.1074 37.2036 36.5861V35.6628C37.2036 35.4106 37.4067 35.2061 37.6573 35.2061C37.9079 35.2061 38.111 35.4106 38.111 35.6628V36.5861C38.111 36.5765 38.1173 36.5777 38.1326 36.5806C38.1446 36.5828 38.1621 36.5861 38.1866 36.5861H43.4798C43.5043 36.5861 43.5219 36.5828 43.5339 36.5806C43.5492 36.5777 43.5555 36.5765 43.5555 36.5861Z" fill="white"/>
<path fill-rule="evenodd" clip-rule="evenodd" d="M35.6926 14.0249L33.4382 10.9791C32.884 10.23 33.4156 9.16493 34.3441 9.16412L36.2291 9.16412C36.2219 9.044 36.2141 8.93692 36.2085 8.86611C35.8281 5.85996 33.2751 3.58069 30.2363 3.58069C26.911 3.58018 24.2147 6.29399 24.2152 9.64103C24.2152 12.9875 26.911 15.7009 30.2365 15.7014C30.4443 15.7014 30.6128 15.871 30.6127 16.0802C30.6127 16.2894 30.4442 16.4589 30.2363 16.4589C26.4953 16.4583 23.4626 13.4059 23.4626 9.64109C23.462 5.87564 26.4953 2.82259 30.2364 2.82316C33.6552 2.82316 36.527 5.38707 36.9568 8.78667C36.9649 8.88435 36.9747 9.01838 36.9831 9.16412L38.8521 9.16412C39.7802 9.16493 40.3119 10.23 39.7576 10.9792L37.5034 14.0247C37.0529 14.6353 36.1438 14.635 35.6926 14.0249ZM36.992 9.92072L38.8525 9.92072C39.1619 9.92099 39.3393 10.2764 39.1547 10.5258L36.9 13.572C36.7504 13.7749 36.4474 13.7748 36.297 13.5716L34.0426 10.5257C33.8581 10.2764 34.0355 9.92099 34.3452 9.92072H36.2391L36.2143 10.7511C36.2081 10.9602 36.3715 11.1348 36.5792 11.141C36.787 11.1473 36.9604 10.9828 36.9666 10.7737L36.992 9.92072Z" fill="white"/>
</svg>
