<svg width="23" height="18" viewBox="0 0 23 18" fill="none" xmlns="http://www.w3.org/2000/svg">
<path fill-rule="evenodd" clip-rule="evenodd" d="M21.275 0.307678C22.2274 0.307678 23 1.15673 23 2.20328V16.1044C23 17.1509 22.2274 18 21.275 18H1.725C0.772636 18 0 17.1509 0 16.1044V2.20328C0 1.15673 0.772636 0.307678 1.725 0.307678H21.275ZM20.6767 1.57142H1.72472C1.40748 1.57142 1.14972 1.85467 1.14972 2.20328V15.958L7.83432 8.5767L3.32057 3.9319C3.08877 3.69337 3.07682 3.29351 3.29388 3.03879C3.51095 2.78406 3.87482 2.77094 4.10662 3.00946L11.1694 10.2861C11.3683 10.4388 11.6316 10.4388 11.7755 10.3335L20.6767 1.57142ZM20.7524 16.7362H2.06734L8.67412 9.44089L10.4471 11.2654C11.1055 11.7786 11.8956 11.7786 12.4891 11.3217L21.8445 2.11826C21.848 2.14607 21.8497 2.17445 21.8497 2.20328V16.1044C21.8497 16.1212 21.8491 16.1378 21.8479 16.1543L16.5019 10.2548C16.2778 10.0075 15.9137 10.0067 15.6887 10.2529C15.4637 10.4992 15.4629 10.8992 15.687 11.1465L20.7524 16.7362Z" fill="white"/>
</svg>
