<svg width="67" height="45" viewBox="0 0 67 45" fill="none" xmlns="http://www.w3.org/2000/svg">
<path d="M15.3429 33.5551C18.138 31.0091 17.8923 28.9218 20.5263 27.5223C23.1629 26.2177 26.2037 25.854 29.0411 24.9237C35.0937 22.9602 40.4858 17.5864 47.2226 19.9821C55.2117 22.8205 56.3002 31.639 49.7562 36.6624C43.3074 41.6804 33.3738 44.793 25.2632 44.6217C21.8261 44.5215 17.3243 43.6861 14.9624 40.8924C13.1844 38.5573 12.73 35.7162 15.3429 33.5551Z" fill="#1F445F"/>
<circle cx="38.169" cy="11.7443" r="6.45936" fill="#1F445F"/>
<ellipse cx="29.6544" cy="2.64247" rx="2.64247" ry="2.64247" fill="#1F445F"/>
<path fill-rule="evenodd" clip-rule="evenodd" d="M41.8244 30.6103H29.3494C28.7251 30.6103 28.219 30.1337 28.219 29.5459C28.219 28.958 28.7251 28.4815 29.3494 28.4815H41.8244C42.448 28.4815 42.9548 28.0043 42.9548 27.4171V6.12921C42.9548 5.54074 42.449 5.06482 41.8244 5.06482H3.39117C2.76525 5.06482 2.26078 5.53984 2.26078 6.12921V27.4171C2.26078 28.0052 2.76621 28.4815 3.39117 28.4815H20.1942C20.2399 28.4762 20.2864 28.4735 20.3335 28.4735C20.3807 28.4735 20.4272 28.4762 20.4728 28.4815H24.7985C24.8485 28.4815 24.8977 28.4845 24.946 28.4905C25.5279 28.534 25.9857 28.9924 25.9857 29.5515V34.8657H32.7812C33.4055 34.8657 33.9116 35.3422 33.9116 35.9301C33.9116 36.5179 33.4055 36.9945 32.7812 36.9945H12.4342C11.8099 36.9945 11.3038 36.5179 11.3038 35.9301C11.3038 35.3422 11.8099 34.8657 12.4342 34.8657H19.2031V30.6103H3.39117C1.51727 30.6103 0 29.1806 0 27.4171V6.12921C0 4.36415 1.51666 2.93604 3.39117 2.93604H41.8244C43.6972 2.93604 45.2155 4.36472 45.2155 6.12921V27.4171C45.2155 29.18 43.6966 30.6103 41.8244 30.6103ZM23.7249 34.8657V30.6103H21.4639V34.8657H23.7249Z" fill="white"/>
<path d="M60.9235 15.2434C60.9235 15.85 60.9235 16.4474 60.9235 17.054C62.0098 17.054 63.4221 17.054 64.5446 17.054C64.5446 16.4474 64.5446 15.85 64.5446 15.2434C63.4221 15.2434 62.0098 15.2434 60.9235 15.2434Z" fill="white"/>
<path d="M59.1129 21.2273C59.982 21.87 61.1136 22.721 62.0098 23.3909C62.372 22.9111 62.7341 22.4223 63.0962 21.9425C62.1999 21.2726 61.0683 20.4216 60.1993 19.7698C59.8371 20.2586 59.475 20.7475 59.1129 21.2273Z" fill="white"/>
<path d="M63.0962 10.3547C62.7341 9.87491 62.372 9.38605 62.0098 8.90625C61.1136 9.57616 59.982 10.4271 59.1129 11.0789C59.475 11.5587 59.8371 12.0476 60.1993 12.5274C61.0683 11.8756 62.1999 11.0337 63.0962 10.3547Z" fill="white"/>
<path d="M48.2494 13.4329C47.2536 13.4329 46.4388 14.2477 46.4388 15.2435V17.0541C46.4388 18.0499 47.2536 18.8646 48.2494 18.8646H49.1547V22.4858H50.9653V18.8646H51.8706L56.397 21.5805V10.717L51.8706 13.4329H48.2494ZM52.803 14.981L54.5864 13.9127V18.3848L52.803 17.3166L52.3685 17.0541H51.8706H48.2494V15.2435H51.8706H52.3685L52.803 14.981Z" fill="white"/>
<path d="M58.6603 16.1484C58.6603 14.9444 58.1352 13.8581 57.3024 13.1157V19.1721C58.1352 18.4388 58.6603 17.3525 58.6603 16.1484Z" fill="white"/>
<path d="M19.896 18.677H17.052L16.485 20H14.793L17.79 13.592H19.122L22.128 20H20.463L19.896 18.677ZM19.347 17.408L18.474 15.383L17.601 17.408H19.347ZM22.493 13.592H25.112C25.82 13.592 26.429 13.721 26.939 13.979C27.455 14.231 27.848 14.597 28.118 15.077C28.394 15.557 28.532 16.127 28.532 16.787C28.532 17.453 28.397 18.029 28.127 18.515C27.857 18.995 27.464 19.364 26.948 19.622C26.438 19.874 25.826 20 25.112 20H22.493V13.592ZM24.995 18.65C25.619 18.65 26.084 18.497 26.39 18.191C26.702 17.879 26.858 17.411 26.858 16.787C26.858 15.557 26.237 14.942 24.995 14.942H24.185V18.65H24.995Z" fill="white"/>
</svg>
