<svg width="16" height="22" viewBox="0 0 16 22" fill="none" xmlns="http://www.w3.org/2000/svg">
<path fill-rule="evenodd" clip-rule="evenodd" d="M15.2416 1.65C15.2416 0.738748 14.3901 0 13.3385 0H1.90314C0.853356 0 0 0.739338 0 1.65V20.35C0 21.2607 0.853356 22 1.90314 22H13.3385C14.3901 22 15.2416 21.2613 15.2416 20.35V18.1989C15.242 18.1914 15.2422 18.1839 15.2422 18.1763C15.2422 18.1687 15.242 18.1612 15.2416 18.1537V1.65ZM13.9729 17.6263V1.65C13.9729 1.34609 13.6893 1.1 13.3386 1.1H1.9032C1.55393 1.1 1.26882 1.34702 1.26882 1.65V3.3263H12.0702C12.4205 3.3263 12.7045 3.57254 12.7045 3.8763C12.7045 4.18005 12.4205 4.4263 12.0702 4.4263H1.26882V20.35C1.26882 20.653 1.55393 20.9 1.9032 20.9H13.3386C13.6893 20.9 13.9729 20.6539 13.9729 20.35V18.7263H3.17243C2.82207 18.7263 2.53805 18.48 2.53805 18.1763C2.53805 17.8725 2.82207 17.6263 3.17243 17.6263H13.9729Z" fill="white"/>
</svg>
