<svg width="50" height="56" viewBox="0 0 50 56" fill="none" xmlns="http://www.w3.org/2000/svg">
<path d="M2.26678 42.1323C5.71603 38.9906 5.41284 36.4148 8.66322 34.6878C11.9169 33.0779 15.6693 32.6291 19.1707 31.481C26.6398 29.058 33.2938 22.4265 41.6072 25.3829C51.466 28.8856 52.8092 39.7679 44.7337 45.9668C36.7757 52.1592 24.5174 56.0002 14.5087 55.7888C10.2672 55.6652 4.7119 54.6342 1.79731 51.1868C-0.396782 48.3052 -0.95753 44.7992 2.26678 42.1323Z" fill="#1F445F"/>
<circle cx="37.6812" cy="14.4927" r="7.97101" fill="#1F445F"/>
<circle cx="27.174" cy="3.26087" r="3.26087" fill="#1F445F"/>
<path d="M45.1359 47.0686C45.1359 47.1397 45.124 47.2228 45.112 47.3058L44.2153 53.5548C44.0837 54.4204 43.3903 55.0726 42.4935 55.0726H34.375C33.8848 55.0726 33.4305 54.871 33.1077 54.5508L27.2011 48.6931L28.1457 47.7445C28.3848 47.5073 28.7196 47.3532 29.0903 47.3532C29.1979 47.3532 29.2816 47.3769 29.3772 47.3888L33.4783 48.2425V35.5073C33.4783 34.5231 34.2794 33.7287 35.2718 33.7287C36.2642 33.7287 37.0653 34.5231 37.0653 35.5073V42.622H37.974C38.2011 42.622 38.4163 42.6694 38.6196 42.7524L44.0479 45.4322C44.6816 45.6931 45.1359 46.3334 45.1359 47.0686ZM45.5903 32.3888C43.8685 30.3729 40.174 28.9856 35.8696 28.9856C31.5653 28.9856 27.8707 30.3729 26.149 32.3888L23.9131 30.1714V36.1002H29.8913L27.4163 33.6457C28.612 32.116 31.8403 30.7643 35.8696 30.7643C39.899 30.7643 43.1272 32.116 44.3229 33.6457L41.8479 36.1002H47.8261V30.1714L45.5903 32.3888Z" fill="#F5F5F5"/>
<path fill-rule="evenodd" clip-rule="evenodd" d="M32.2174 5.48905C32.2174 3.65814 30.5487 2.17383 28.4879 2.17383H6.07829C4.02105 2.17383 2.34875 3.65932 2.34875 5.48905V43.0615C2.34875 44.8912 4.02105 46.3767 6.07829 46.3767H28.4879C30.5487 46.3767 32.2174 44.8924 32.2174 43.0615V38.697C32.2174 38.6961 32.2174 38.6952 32.2174 38.6942C32.2174 38.6933 32.2174 38.6924 32.2174 38.6915V5.48905ZM29.7318 37.5892V5.48917C29.7318 4.87855 29.1759 4.38409 28.4886 4.38409H6.07902C5.39458 4.38409 4.83584 4.88041 4.83584 5.48917V8.85717H26.0017C26.6883 8.85717 27.2449 9.35193 27.2449 9.96225C27.2449 10.5726 26.6883 11.0673 26.0017 11.0673H4.83584V43.0616C4.83584 43.6704 5.39458 44.1667 6.07902 44.1667H28.4886C29.1759 44.1667 29.7318 43.6722 29.7318 43.0616V39.7993H8.56466C7.87807 39.7993 7.32148 39.3046 7.32148 38.6942C7.32148 38.0839 7.87807 37.5892 8.56466 37.5892H29.7318Z" fill="white"/>
</svg>
