<svg width="24" height="24" viewBox="0 0 24 24" fill="none" xmlns="http://www.w3.org/2000/svg">
<path fill-rule="evenodd" clip-rule="evenodd" d="M20.1576 10.2656C20.3168 9.62053 20.3991 8.9912 20.3991 8.3796C20.3991 3.75103 16.6481 0 12.0195 0C7.39072 0 3.63869 3.75123 3.63869 8.3796C3.63869 9.04704 3.7381 9.73655 3.92969 10.4456C4.49112 12.5235 5.81543 14.7069 7.66979 16.9131L7.74308 16.9999C3.19568 17.4645 0 18.6887 0 20.393C0 22.5924 5.3214 23.993 12 23.993C18.6786 23.993 24 22.5924 24 20.393C24 18.9312 21.8675 17.9082 18.4046 17.3024C18.0782 17.2453 17.7673 17.4636 17.7102 17.7901C17.6531 18.1165 17.8714 18.4274 18.1978 18.4845C21.0575 18.9847 22.8 19.8206 22.8 20.393C22.8 20.805 21.7756 21.4423 19.9084 21.9338C17.8378 22.4788 15.016 22.793 12 22.793C8.98403 22.793 6.16216 22.4788 4.09158 21.9338C2.22445 21.4423 1.2 20.805 1.2 20.393C1.2 19.9812 2.22434 19.3441 4.0915 18.8529C5.39014 18.5113 6.98442 18.2604 8.73687 18.1208C9.2795 18.7062 9.83515 19.2654 10.3908 19.7925C10.7156 20.1005 11.0175 20.3756 11.2889 20.6143C11.4531 20.7588 11.5716 20.8597 11.6369 20.9138L12.0182 21.2295L12.4006 20.915C12.4659 20.8613 12.5845 20.7609 12.7487 20.6173C13.0202 20.3799 13.3221 20.1063 13.6469 19.7997C14.5742 18.9244 15.5014 17.9591 16.3682 16.9302C18.2813 14.6593 19.6287 12.4085 20.1576 10.2656ZM8.58821 16.1409C8.79799 16.3905 9.01163 16.6365 9.22816 16.8784C10.1166 16.8229 11.0444 16.7942 12 16.7942C12.3314 16.7942 12.6 17.0629 12.6 17.3942C12.6 17.7256 12.3314 17.9942 12 17.9942C11.4272 17.9942 10.8614 18.0056 10.3064 18.0276C10.6082 18.3349 10.9123 18.6333 11.2165 18.9218C11.5058 19.1963 11.7758 19.4432 12.0205 19.6597C12.2647 19.4448 12.5343 19.1996 12.823 18.927C13.7191 18.0813 14.6152 17.1483 15.4502 16.1571C17.2554 14.0144 18.5159 11.9088 18.9924 9.97813C19.1292 9.42383 19.1989 8.8904 19.1989 8.37961C19.1989 4.41378 15.9851 1.20001 12.0193 1.20001C8.05323 1.20001 4.83851 4.41404 4.83851 8.37961C4.83851 8.93644 4.92288 9.52163 5.08797 10.1326C5.59548 12.0109 6.83628 14.0567 8.58821 16.1409ZM14.4188 8.38837C14.4188 7.06329 13.3442 5.98837 12.0188 5.98837C11.6874 5.98837 11.4188 5.71974 11.4188 5.38837C11.4188 5.057 11.6874 4.78837 12.0188 4.78837C14.007 4.78837 15.6188 6.40062 15.6188 8.38837C15.6188 10.3769 14.0073 11.9884 12.0188 11.9884C10.0302 11.9884 8.41878 10.3769 8.41878 8.38837C8.41878 8.057 8.6874 7.78837 9.01878 7.78837C9.35015 7.78837 9.61878 8.057 9.61878 8.38837C9.61878 9.7142 10.6929 10.7884 12.0188 10.7884C13.3446 10.7884 14.4188 9.7142 14.4188 8.38837Z" fill="white"/>
</svg>
