<svg width="52" height="46" viewBox="0 0 52 46" fill="none" xmlns="http://www.w3.org/2000/svg">
<path d="M13.3581 35.5655C15.9843 33.1665 15.7534 31.1997 18.2282 29.8809C20.7055 28.6516 23.5625 28.3089 26.2284 27.4323C31.9152 25.5821 36.9814 20.5184 43.311 22.7758C50.8173 25.4505 51.84 33.7601 45.6915 38.4935C39.6324 43.222 30.2992 46.155 22.6788 45.9935C19.4494 45.8992 15.2197 45.1119 13.0006 42.4795C11.3301 40.2791 10.9032 37.602 13.3581 35.5655Z" fill="#1F445F"/>
<path fill-rule="evenodd" clip-rule="evenodd" d="M46.6074 16.7169C46.5541 16.0366 46.9945 15.407 47.6616 15.2283C48.4233 15.0242 49.2059 15.4759 49.41 16.2377C49.6141 16.9993 49.1621 17.7821 48.4005 17.9862C48.1937 18.0416 47.9812 18.0496 47.7749 18.012C47.6456 17.9884 47.5217 18.0741 47.4981 18.2034C47.4745 18.3326 47.5602 18.4565 47.6895 18.4801C47.9646 18.5303 48.2484 18.5196 48.5237 18.4458C49.5391 18.1737 50.1417 17.13 49.8697 16.1146C49.5975 15.0988 48.554 14.4965 47.5384 14.7686C46.6489 15.007 46.0619 15.8462 46.133 16.754C46.1432 16.8851 46.2578 16.9829 46.3888 16.9727C46.5198 16.9624 46.6177 16.8479 46.6074 16.7169ZM43.7467 22.6815C44.7621 22.4094 45.3647 21.3657 45.0926 20.3502C45.0353 20.1363 44.9437 19.9406 44.8253 19.7676L48.1889 16.785C48.2872 16.6978 48.2962 16.5474 48.209 16.4491C48.1218 16.3508 47.9715 16.3418 47.8731 16.429L44.5094 19.4118C44.0475 19.0074 43.3989 18.8335 42.7614 19.0043C41.7459 19.2764 41.1433 20.3201 41.4154 21.3355C41.6875 22.351 42.7312 22.9536 43.7467 22.6815ZM44.1496 19.7308C43.8068 19.4553 43.3419 19.3414 42.8846 19.4639C42.1231 19.668 41.6711 20.4508 41.8752 21.2123C42.0792 21.9739 42.862 22.4259 43.6236 22.2218C44.3852 22.0177 44.8372 21.2349 44.6331 20.4734C44.5956 20.3333 44.5384 20.2037 44.4655 20.0867L43.412 21.0209C43.3137 21.1081 43.1633 21.099 43.0761 21.0007C42.9889 20.9024 42.998 20.752 43.0963 20.6648L44.1496 19.7308ZM49.1397 20.744C48.9044 20.807 48.6937 20.9265 48.5221 21.0909C48.4272 21.1818 48.2766 21.1786 48.1857 21.0837C48.0947 20.9888 48.098 20.8382 48.1929 20.7473C48.4219 20.5278 48.7034 20.3682 49.0165 20.2843C50.0316 20.0123 51.0757 20.615 51.3478 21.6303C51.6198 22.6456 51.017 23.6896 50.0018 23.9616C48.9864 24.2336 47.9426 23.631 47.6706 22.6156C47.614 22.4045 47.5942 22.1892 47.6105 21.9772L45.796 21.6059C45.6672 21.5796 45.5842 21.4538 45.6106 21.3251C45.6369 21.1964 45.7626 21.1134 45.8914 21.1397L49.5567 21.8898C49.6854 21.9161 49.7684 22.0418 49.7421 22.1706C49.7157 22.2993 49.59 22.3823 49.4613 22.356L48.0817 22.0736C48.0769 22.2127 48.093 22.3535 48.1302 22.4924C48.3343 23.254 49.1171 23.706 49.8787 23.5019C50.64 23.2979 51.0921 22.5149 50.8881 21.7535C50.6841 20.992 49.901 20.54 49.1397 20.744Z" fill="white"/>
<path d="M49.7621 31.2218C50.1246 31.005 50.3959 30.6636 50.5252 30.2614C50.1846 30.4636 49.8118 30.606 49.4232 30.6825C48.8843 30.1123 48.0305 29.9736 47.3389 30.3438C46.6473 30.714 46.2891 31.5015 46.4644 32.2662C45.069 32.1962 43.7689 31.5368 42.8877 30.4523C42.4278 31.2458 42.6628 32.2601 43.4247 32.7703C43.1492 32.7614 42.8798 32.6868 42.6389 32.5527C42.6389 32.5599 42.6389 32.5672 42.6389 32.5745C42.6391 33.401 43.2215 34.113 44.0314 34.2768C43.7758 34.3463 43.5077 34.3565 43.2476 34.3067C43.4754 35.0135 44.1266 35.4977 44.8689 35.5122C44.2542 35.9949 43.4949 36.2566 42.7134 36.2553C42.5748 36.2555 42.4364 36.2475 42.2988 36.2314C43.0925 36.7416 44.0162 37.0123 44.9595 37.0114C46.272 37.0204 47.5333 36.5028 48.4613 35.5745C49.3894 34.6462 49.9067 33.3845 49.8976 32.0717C49.8976 31.9964 49.8958 31.9216 49.8923 31.8472C50.2322 31.6014 50.5256 31.2971 50.7586 30.9483C50.4419 31.0887 50.106 31.1809 49.7621 31.2218Z" fill="white"/>
<circle cx="23.793" cy="12.6899" r="5.81609" fill="#1F445F"/>
<path fill-rule="evenodd" clip-rule="evenodd" d="M6.48207 35.4055L28.7702 33.9642L28.722 37.572C28.7156 38.0485 28.3087 38.4376 27.8103 38.4439L17.0078 38.5818C16.5093 38.5882 16.1127 38.2093 16.1191 37.7329L16.1422 35.9966C16.1486 35.5214 15.7507 35.1413 15.2535 35.1477C14.7564 35.154 14.3482 35.5444 14.3418 36.0196L14.3186 37.7559C14.2996 39.1827 15.492 40.3217 16.9848 40.3026L27.7873 40.1647C29.2801 40.1457 30.5033 38.9758 30.5224 37.5491L30.5718 33.8477L37.7366 33.3843C39.4512 33.2736 40.6646 31.6847 40.2418 30.1067L35.5665 12.6583C35.144 11.0816 33.2984 10.3129 31.7586 11.0741L3.68164 24.9505C3.57331 25.0042 3.46991 25.0639 3.37173 25.129L3.19525 24.4704C3.0727 24.013 2.58272 23.7469 2.10085 23.8761C1.61897 24.0052 1.32768 24.4806 1.45023 24.938L4.55672 36.5315C4.67927 36.9889 5.16924 37.255 5.65112 37.1259C6.13299 36.9967 6.42428 36.5213 6.30173 36.064L6.12541 35.4059C6.24268 35.4132 6.36176 35.4132 6.48207 35.4055ZM38.4966 30.5745C38.6377 31.1009 38.2331 31.6306 37.6617 31.6675L6.40812 33.6887C5.98246 33.7158 5.60302 33.4552 5.49801 33.0632L3.99935 27.4702C3.89474 27.0798 4.09319 26.6644 4.47612 26.4747L32.5522 12.5987C33.0654 12.345 33.6807 12.6013 33.8214 13.1262L38.4966 30.5745Z" fill="white"/>
<path d="M28.7702 33.9642L29.2701 33.9708L29.2773 33.4303L28.7379 33.4652L28.7702 33.9642ZM6.48207 35.4055L6.51382 35.9045L6.51434 35.9045L6.48207 35.4055ZM28.722 37.572L28.222 37.5654L28.222 37.5654L28.722 37.572ZM27.8103 38.4439L27.8039 37.944L27.8039 37.944L27.8103 38.4439ZM17.0078 38.5818L17.0014 38.0819L17.0014 38.0819L17.0078 38.5818ZM16.1191 37.7329L16.619 37.7396L16.619 37.7396L16.1191 37.7329ZM16.1422 35.9966L15.6423 35.9899L16.1422 35.9966ZM15.2535 35.1477L15.2599 35.6477L15.2599 35.6477L15.2535 35.1477ZM14.3418 36.0196L13.8419 36.0129L14.3418 36.0196ZM14.3186 37.7559L14.8186 37.7626L14.3186 37.7559ZM16.9848 40.3026L16.9912 40.8026L16.9848 40.3026ZM27.7873 40.1647L27.7809 39.6648L27.7873 40.1647ZM30.5224 37.5491L31.0223 37.5557L30.5224 37.5491ZM30.5718 33.8477L30.5396 33.3487L30.078 33.3785L30.0719 33.841L30.5718 33.8477ZM37.7366 33.3843L37.7043 32.8854L37.7043 32.8854L37.7366 33.3843ZM40.2418 30.1067L39.7588 30.2361L40.2418 30.1067ZM35.5665 12.6583L36.0495 12.5289L35.5665 12.6583ZM31.7586 11.0741L31.9801 11.5223L31.9801 11.5223L31.7586 11.0741ZM3.68164 24.9505L3.46011 24.5022L3.45964 24.5025L3.68164 24.9505ZM3.37173 25.129L2.88876 25.2584L3.06873 25.9301L3.64816 25.5457L3.37173 25.129ZM1.45023 24.938L1.93319 24.8086L1.45023 24.938ZM4.55672 36.5315L4.07375 36.6609L4.55672 36.5315ZM6.12541 35.4059L6.15639 34.9069L5.46251 34.8638L5.64244 35.5353L6.12541 35.4059ZM37.6617 31.6675L37.6295 31.1686L37.6294 31.1686L37.6617 31.6675ZM6.40812 33.6887L6.43987 34.1877L6.44039 34.1877L6.40812 33.6887ZM4.47612 26.4747L4.25458 26.0264L4.25412 26.0267L4.47612 26.4747ZM32.5522 12.5987L32.7738 13.0469L32.7738 13.0469L32.5522 12.5987ZM28.7379 33.4652L6.44981 34.9066L6.51434 35.9045L28.8024 34.4631L28.7379 33.4652ZM29.2219 37.5787L29.2701 33.9708L28.2702 33.9575L28.222 37.5654L29.2219 37.5787ZM27.8167 38.9439C28.5654 38.9343 29.2117 38.3464 29.2219 37.5787L28.222 37.5654C28.2195 37.7505 28.052 37.9408 27.8039 37.944L27.8167 38.9439ZM17.0142 39.0818L27.8167 38.9439L27.8039 37.944L17.0014 38.0819L17.0142 39.0818ZM15.6191 37.7262C15.6087 38.5058 16.2569 39.0914 17.0142 39.0818L17.0014 38.0819C16.7618 38.0849 16.6167 37.9129 16.619 37.7396L15.6191 37.7262ZM15.6423 35.9899L15.6191 37.7262L16.619 37.7396L16.6422 36.0033L15.6423 35.9899ZM15.2599 35.6477C15.4983 35.6446 15.6446 35.8179 15.6423 35.9899L16.6422 36.0033C16.6526 35.225 16.0031 34.6381 15.2471 34.6477L15.2599 35.6477ZM14.8418 36.0263C14.8442 35.8424 15.0131 35.6508 15.2599 35.6477L15.2471 34.6477C14.4997 34.6573 13.8521 35.2464 13.8419 36.0129L14.8418 36.0263ZM14.8186 37.7626L14.8418 36.0263L13.8419 36.0129L13.8187 37.7492L14.8186 37.7626ZM16.9784 39.8027C15.7444 39.8184 14.8036 38.8862 14.8186 37.7626L13.8187 37.7492C13.7956 39.4791 15.2395 40.8249 16.9912 40.8026L16.9784 39.8027ZM27.7809 39.6648L16.9784 39.8027L16.9912 40.8026L27.7937 40.6647L27.7809 39.6648ZM30.0224 37.5424C30.0073 38.6779 29.0234 39.6489 27.7809 39.6648L27.7937 40.6647C29.5368 40.6424 30.9994 39.2738 31.0223 37.5557L30.0224 37.5424ZM30.0719 33.841L30.0224 37.5424L31.0223 37.5557L31.0718 33.8543L30.0719 33.841ZM37.7043 32.8854L30.5396 33.3487L30.6041 34.3466L37.7688 33.8833L37.7043 32.8854ZM39.7588 30.2361C40.0919 31.479 39.1362 32.7929 37.7043 32.8854L37.7688 33.8833C39.7661 33.7543 41.2374 31.8903 40.7247 29.9773L39.7588 30.2361ZM35.0836 12.7878L39.7588 30.2361L40.7247 29.9773L36.0495 12.5289L35.0836 12.7878ZM31.9801 11.5223C33.2663 10.8865 34.7509 11.5464 35.0836 12.7878L36.0495 12.5289C35.5371 10.6168 33.3305 9.73928 31.537 10.6259L31.9801 11.5223ZM3.90317 25.3987L31.9801 11.5223L31.537 10.6258L3.46011 24.5022L3.90317 25.3987ZM3.64816 25.5457C3.72888 25.4921 3.81411 25.4429 3.90364 25.3985L3.45964 24.5025C3.33252 24.5655 3.21093 24.6357 3.0953 24.7124L3.64816 25.5457ZM3.85469 24.9996L3.67821 24.341L2.71228 24.5998L2.88876 25.2584L3.85469 24.9996ZM3.67821 24.341C3.47791 23.5934 2.69597 23.199 1.97144 23.3931L2.23026 24.359C2.46947 24.2949 2.66749 24.4326 2.71228 24.5998L3.67821 24.341ZM1.97144 23.3931C1.24691 23.5872 0.766963 24.3198 0.967267 25.0674L1.93319 24.8086C1.8884 24.6414 1.99104 24.4231 2.23026 24.359L1.97144 23.3931ZM0.967267 25.0674L4.07375 36.6609L5.03968 36.4021L1.93319 24.8086L0.967267 25.0674ZM4.07375 36.6609C4.27406 37.4085 5.056 37.803 5.78053 37.6088L5.52171 36.6429C5.28249 36.707 5.08447 36.5693 5.03968 36.4021L4.07375 36.6609ZM5.78053 37.6088C6.50506 37.4147 6.985 36.6821 6.7847 35.9346L5.81877 36.1934C5.86356 36.3605 5.76092 36.5788 5.52171 36.6429L5.78053 37.6088ZM6.7847 35.9346L6.60837 35.2765L5.64244 35.5353L5.81877 36.1934L6.7847 35.9346ZM6.45032 34.9065C6.35091 34.9129 6.25279 34.9128 6.15639 34.9069L6.09442 35.9049C6.23258 35.9135 6.37261 35.9135 6.51382 35.9045L6.45032 34.9065ZM37.6939 32.1665C38.5483 32.1113 39.2104 31.3064 38.9796 30.4451L38.0137 30.7039C38.065 30.8955 37.9179 31.1499 37.6295 31.1686L37.6939 32.1665ZM6.44039 34.1877L37.694 32.1665L37.6294 31.1686L6.37585 33.1897L6.44039 34.1877ZM5.01504 33.1927C5.18626 33.8317 5.79454 34.2288 6.43987 34.1877L6.37637 33.1897C6.17039 33.2028 6.01978 33.0787 5.98097 32.9338L5.01504 33.1927ZM3.51638 27.5996L5.01504 33.1927L5.98097 32.9338L4.48231 27.3408L3.51638 27.5996ZM4.25412 26.0267C3.67491 26.3137 3.34531 26.9611 3.51638 27.5996L4.48231 27.3408C4.44417 27.1984 4.51147 27.0152 4.69812 26.9227L4.25412 26.0267ZM32.3307 12.1504L4.25458 26.0264L4.69765 26.9229L32.7738 13.0469L32.3307 12.1504ZM34.3043 12.9968C34.0737 12.1362 33.0973 11.7715 32.3307 12.1505L32.7738 13.0469C33.0335 12.9185 33.2877 13.0663 33.3384 13.2556L34.3043 12.9968ZM38.9796 30.4451L34.3043 12.9968L33.3384 13.2556L38.0137 30.7039L38.9796 30.4451Z" fill="white"/>
<g clip-path="url(#clip0)">
<path d="M35.7276 8.2906C36.3387 10.5694 38.5158 12.0658 40.8623 11.8198L39.9948 8.58213L38.8195 8.89705L38.4608 7.55824L39.6374 7.24296L39.3644 6.2238C39.1824 5.75497 39.2183 5.22947 39.4626 4.78983C39.7068 4.35019 40.1339 4.04197 40.6281 3.94876C40.9773 3.86122 41.3324 3.79925 41.6906 3.76337L41.9959 4.90251L41.4103 5.05941C41.2016 5.08702 41.0168 5.2079 40.9079 5.388C40.799 5.56811 40.7777 5.78793 40.8501 5.98556L41.0833 6.85555L42.3669 6.51159L42.5206 7.90585L41.4421 8.19482L42.3095 11.432C44.6406 10.3951 45.7519 7.71468 44.8382 5.33258C43.9246 2.95047 41.3059 1.70063 38.8793 2.48849C36.4527 3.27636 35.0676 5.82612 35.7276 8.2906Z" fill="white"/>
</g>
<defs>
<clipPath id="clip0">
<rect width="11.5103" height="11.5103" fill="white" transform="translate(33.3103 2.979) rotate(-15)"/>
</clipPath>
</defs>
</svg>
